<?xml version="1.0" encoding="utf-8" standalone="no"?>
<!DOCTYPE svg PUBLIC "-//W3C//DTD SVG 1.1//EN"
  "http://www.w3.org/Graphics/SVG/1.1/DTD/svg11.dtd">
<svg xmlns:xlink="http://www.w3.org/1999/xlink" width="712.370625pt" height="495.034375pt" viewBox="0 0 712.370625 495.034375" xmlns="http://www.w3.org/2000/svg" version="1.1">
 <metadata>
  <rdf:RDF xmlns:dc="http://purl.org/dc/elements/1.1/" xmlns:cc="http://creativecommons.org/ns#" xmlns:rdf="http://www.w3.org/1999/02/22-rdf-syntax-ns#">
   <cc:Work>
    <dc:type rdf:resource="http://purl.org/dc/dcmitype/StillImage"/>
    <dc:date>2025-08-13T15:36:59.217221</dc:date>
    <dc:format>image/svg+xml</dc:format>
    <dc:creator>
     <cc:Agent>
      <dc:title>Matplotlib v3.10.3, https://matplotlib.org/</dc:title>
     </cc:Agent>
    </dc:creator>
   </cc:Work>
  </rdf:RDF>
 </metadata>
 <defs>
  <style type="text/css">*{stroke-linejoin: round; stroke-linecap: butt}</style>
 </defs>
 <g id="figure_1">
  <g id="patch_1">
   <path d="M 0 495.034375 
L 712.370625 495.034375 
L 712.370625 0 
L 0 0 
z
" style="fill: #ffffff"/>
  </g>
  <g id="axes_1">
   <g id="patch_2">
    <path d="M 34.240625 457.478125 
L 705.170625 457.478125 
L 705.170625 22.318125 
L 34.240625 22.318125 
z
" style="fill: #ffffff"/>
   </g>
   <g id="PathCollection_1">
    <path d="M 205.491989 110.267526 
C 206.085001 110.267526 206.653805 110.03192 207.073127 109.612597 
C 207.49245 109.193274 207.728057 108.62447 207.728057 108.031458 
C 207.728057 107.438446 207.49245 106.869642 207.073127 106.45032 
C 206.653805 106.030997 206.085001 105.79539 205.491989 105.79539 
C 204.898976 105.79539 204.330173 106.030997 203.91085 106.45032 
C 203.491527 106.869642 203.255921 107.438446 203.255921 108.031458 
C 203.255921 108.62447 203.491527 109.193274 203.91085 109.612597 
C 204.330173 110.03192 204.898976 110.267526 205.491989 110.267526 
z
" clip-path="url(#p877687c659)" style="fill: #1f77b4; fill-opacity: 0.55; stroke: #1f77b4; stroke-opacity: 0.55; stroke-width: 0.8"/>
    <path d="M 158.573807 442.321436 
C 159.799923 442.321436 160.975986 441.834294 161.842981 440.967299 
C 162.709976 440.100304 163.197117 438.924241 163.197117 437.698125 
C 163.197117 436.472009 162.709976 435.295946 161.842981 434.428951 
C 160.975986 433.561956 159.799923 433.074814 158.573807 433.074814 
C 157.347691 433.074814 156.171628 433.561956 155.304633 434.428951 
C 154.437637 435.295946 153.950496 436.472009 153.950496 437.698125 
C 153.950496 438.924241 154.437637 440.100304 155.304633 440.967299 
C 156.171628 441.834294 157.347691 442.321436 158.573807 442.321436 
z
" clip-path="url(#p877687c659)" style="fill: #1f77b4; fill-opacity: 0.55; stroke: #1f77b4; stroke-opacity: 0.55; stroke-width: 0.8"/>
    <path d="M 252.41017 308.187302 
C 253.034948 308.187302 253.634219 307.939076 254.076004 307.497291 
C 254.517788 307.055507 254.766014 306.456235 254.766014 305.831458 
C 254.766014 305.206681 254.517788 304.607409 254.076004 304.165625 
C 253.634219 303.723841 253.034948 303.475615 252.41017 303.475615 
C 251.785393 303.475615 251.186121 303.723841 250.744337 304.165625 
C 250.302553 304.607409 250.054327 305.206681 250.054327 305.831458 
C 250.054327 306.456235 250.302553 307.055507 250.744337 307.497291 
C 251.186121 307.939076 251.785393 308.187302 252.41017 308.187302 
z
" clip-path="url(#p877687c659)" style="fill: #1f77b4; fill-opacity: 0.55; stroke: #1f77b4; stroke-opacity: 0.55; stroke-width: 0.8"/>
    <path d="M 158.573807 308.067526 
C 159.166819 308.067526 159.735623 307.83192 160.154946 307.412597 
C 160.574269 306.993274 160.809875 306.42447 160.809875 305.831458 
C 160.809875 305.238446 160.574269 304.669642 160.154946 304.25032 
C 159.735623 303.830997 159.166819 303.59539 158.573807 303.59539 
C 157.980795 303.59539 157.411991 303.830997 156.992668 304.25032 
C 156.573345 304.669642 156.337739 305.238446 156.337739 305.831458 
C 156.337739 306.42447 156.573345 306.993274 156.992668 307.412597 
C 157.411991 307.83192 157.980795 308.067526 158.573807 308.067526 
z
" clip-path="url(#p877687c659)" style="fill: #1f77b4; fill-opacity: 0.55; stroke: #1f77b4; stroke-opacity: 0.55; stroke-width: 0.8"/>
    <path d="M 346.246534 308.677508 
C 347.001315 308.677508 347.725284 308.37763 348.258995 307.84392 
C 348.792706 307.310209 349.092584 306.58624 349.092584 305.831458 
C 349.092584 305.076677 348.792706 304.352708 348.258995 303.818997 
C 347.725284 303.285286 347.001315 302.985408 346.246534 302.985408 
C 345.491753 302.985408 344.767784 303.285286 344.234073 303.818997 
C 343.700362 304.352708 343.400484 305.076677 343.400484 305.831458 
C 343.400484 306.58624 343.700362 307.310209 344.234073 307.84392 
C 344.767784 308.37763 345.491753 308.677508 346.246534 308.677508 
z
" clip-path="url(#p877687c659)" style="fill: #1f77b4; fill-opacity: 0.55; stroke: #1f77b4; stroke-opacity: 0.55; stroke-width: 0.8"/>
    <path d="M 64.737443 441.10767 
C 65.641665 441.10767 66.508974 440.748419 67.148356 440.109038 
C 67.787737 439.469656 68.146989 438.602347 68.146989 437.698125 
C 68.146989 436.793903 67.787737 435.926594 67.148356 435.287212 
C 66.508974 434.647831 65.641665 434.28858 64.737443 434.28858 
C 63.833221 434.28858 62.965912 434.647831 62.32653 435.287212 
C 61.687149 435.926594 61.327898 436.793903 61.327898 437.698125 
C 61.327898 438.602347 61.687149 439.469656 62.32653 440.109038 
C 62.965912 440.748419 63.833221 441.10767 64.737443 441.10767 
z
" clip-path="url(#p877687c659)" style="fill: #1f77b4; fill-opacity: 0.55; stroke: #1f77b4; stroke-opacity: 0.55; stroke-width: 0.8"/>
    <path d="M 158.573807 308.067526 
C 159.166819 308.067526 159.735623 307.83192 160.154946 307.412597 
C 160.574269 306.993274 160.809875 306.42447 160.809875 305.831458 
C 160.809875 305.238446 160.574269 304.669642 160.154946 304.25032 
C 159.735623 303.830997 159.166819 303.59539 158.573807 303.59539 
C 157.980795 303.59539 157.411991 303.830997 156.992668 304.25032 
C 156.573345 304.669642 156.337739 305.238446 156.337739 305.831458 
C 156.337739 306.42447 156.573345 306.993274 156.992668 307.412597 
C 157.411991 307.83192 157.980795 308.067526 158.573807 308.067526 
z
" clip-path="url(#p877687c659)" style="fill: #1f77b4; fill-opacity: 0.55; stroke: #1f77b4; stroke-opacity: 0.55; stroke-width: 0.8"/>
    <path d="M 252.41017 242.134193 
C 253.003183 242.134193 253.571986 241.898587 253.991309 241.479264 
C 254.410632 241.059941 254.646238 240.491137 254.646238 239.898125 
C 254.646238 239.305113 254.410632 238.736309 253.991309 238.316986 
C 253.571986 237.897663 253.003183 237.662057 252.41017 237.662057 
C 251.817158 237.662057 251.248355 237.897663 250.829032 238.316986 
C 250.409709 238.736309 250.174102 239.305113 250.174102 239.898125 
C 250.174102 240.491137 250.409709 241.059941 250.829032 241.479264 
C 251.248355 241.898587 251.817158 242.134193 252.41017 242.134193 
z
" clip-path="url(#p877687c659)" style="fill: #1f77b4; fill-opacity: 0.55; stroke: #1f77b4; stroke-opacity: 0.55; stroke-width: 0.8"/>
    <path d="M 158.573807 242.134193 
C 159.166819 242.134193 159.735623 241.898587 160.154946 241.479264 
C 160.574269 241.059941 160.809875 240.491137 160.809875 239.898125 
C 160.809875 239.305113 160.574269 238.736309 160.154946 238.316986 
C 159.735623 237.897663 159.166819 237.662057 158.573807 237.662057 
C 157.980795 237.662057 157.411991 237.897663 156.992668 238.316986 
C 156.573345 238.736309 156.337739 239.305113 156.337739 239.898125 
C 156.337739 240.491137 156.573345 241.059941 156.992668 241.479264 
C 157.411991 241.898587 157.980795 242.134193 158.573807 242.134193 
z
" clip-path="url(#p877687c659)" style="fill: #1f77b4; fill-opacity: 0.55; stroke: #1f77b4; stroke-opacity: 0.55; stroke-width: 0.8"/>
    <path d="M 64.737443 439.934193 
C 65.330455 439.934193 65.899259 439.698587 66.318582 439.279264 
C 66.737905 438.859941 66.973511 438.291137 66.973511 437.698125 
C 66.973511 437.105113 66.737905 436.536309 66.318582 436.116986 
C 65.899259 435.697663 65.330455 435.462057 64.737443 435.462057 
C 64.144431 435.462057 63.575627 435.697663 63.156304 436.116986 
C 62.736981 436.536309 62.501375 437.105113 62.501375 437.698125 
C 62.501375 438.291137 62.736981 438.859941 63.156304 439.279264 
C 63.575627 439.698587 64.144431 439.934193 64.737443 439.934193 
z
" clip-path="url(#p877687c659)" style="fill: #1f77b4; fill-opacity: 0.55; stroke: #1f77b4; stroke-opacity: 0.55; stroke-width: 0.8"/>
    <path d="M 111.655625 374.00086 
C 112.248637 374.00086 112.817441 373.765253 113.236764 373.34593 
C 113.656087 372.926608 113.891693 372.357804 113.891693 371.764792 
C 113.891693 371.17178 113.656087 370.602976 113.236764 370.183653 
C 112.817441 369.76433 112.248637 369.528724 111.655625 369.528724 
C 111.062613 369.528724 110.493809 369.76433 110.074486 370.183653 
C 109.655163 370.602976 109.419557 371.17178 109.419557 371.764792 
C 109.419557 372.357804 109.655163 372.926608 110.074486 373.34593 
C 110.493809 373.765253 111.062613 374.00086 111.655625 374.00086 
z
" clip-path="url(#p877687c659)" style="fill: #1f77b4; fill-opacity: 0.55; stroke: #1f77b4; stroke-opacity: 0.55; stroke-width: 0.8"/>
    <path d="M 64.737443 439.934193 
C 65.330455 439.934193 65.899259 439.698587 66.318582 439.279264 
C 66.737905 438.859941 66.973511 438.291137 66.973511 437.698125 
C 66.973511 437.105113 66.737905 436.536309 66.318582 436.116986 
C 65.899259 435.697663 65.330455 435.462057 64.737443 435.462057 
C 64.144431 435.462057 63.575627 435.697663 63.156304 436.116986 
C 62.736981 436.536309 62.501375 437.105113 62.501375 437.698125 
C 62.501375 438.291137 62.736981 438.859941 63.156304 439.279264 
C 63.575627 439.698587 64.144431 439.934193 64.737443 439.934193 
z
" clip-path="url(#p877687c659)" style="fill: #1f77b4; fill-opacity: 0.55; stroke: #1f77b4; stroke-opacity: 0.55; stroke-width: 0.8"/>
    <path d="M 440.082898 176.20086 
C 440.67591 176.20086 441.244714 175.965253 441.664037 175.54593 
C 442.083359 175.126608 442.318966 174.557804 442.318966 173.964792 
C 442.318966 173.37178 442.083359 172.802976 441.664037 172.383653 
C 441.244714 171.96433 440.67591 171.728724 440.082898 171.728724 
C 439.489886 171.728724 438.921082 171.96433 438.501759 172.383653 
C 438.082436 172.802976 437.84683 173.37178 437.84683 173.964792 
C 437.84683 174.557804 438.082436 175.126608 438.501759 175.54593 
C 438.921082 175.965253 439.489886 176.20086 440.082898 176.20086 
z
" clip-path="url(#p877687c659)" style="fill: #1f77b4; fill-opacity: 0.55; stroke: #1f77b4; stroke-opacity: 0.55; stroke-width: 0.8"/>
    <path d="M 299.328352 244.140766 
C 300.453514 244.140766 301.532743 243.693734 302.328352 242.898125 
C 303.123962 242.102516 303.570993 241.023286 303.570993 239.898125 
C 303.570993 238.772964 303.123962 237.693734 302.328352 236.898125 
C 301.532743 236.102516 300.453514 235.655484 299.328352 235.655484 
C 298.203191 235.655484 297.123962 236.102516 296.328352 236.898125 
C 295.532743 237.693734 295.085712 238.772964 295.085712 239.898125 
C 295.085712 241.023286 295.532743 242.102516 296.328352 242.898125 
C 297.123962 243.693734 298.203191 244.140766 299.328352 244.140766 
z
" clip-path="url(#p877687c659)" style="fill: #1f77b4; fill-opacity: 0.55; stroke: #1f77b4; stroke-opacity: 0.55; stroke-width: 0.8"/>
    <path d="M 252.41017 242.704368 
C 253.154395 242.704368 253.868238 242.408685 254.394484 241.882438 
C 254.92073 241.356192 255.216413 240.642349 255.216413 239.898125 
C 255.216413 239.153901 254.92073 238.440058 254.394484 237.913812 
C 253.868238 237.387565 253.154395 237.091882 252.41017 237.091882 
C 251.665946 237.091882 250.952103 237.387565 250.425857 237.913812 
C 249.899611 238.440058 249.603927 239.153901 249.603927 239.898125 
C 249.603927 240.642349 249.899611 241.356192 250.425857 241.882438 
C 250.952103 242.408685 251.665946 242.704368 252.41017 242.704368 
z
" clip-path="url(#p877687c659)" style="fill: #1f77b4; fill-opacity: 0.55; stroke: #1f77b4; stroke-opacity: 0.55; stroke-width: 0.8"/>
    <path d="M 158.573807 246.137115 
C 160.228406 246.137115 161.815461 245.479736 162.985439 244.309757 
C 164.155418 243.139779 164.812797 241.552725 164.812797 239.898125 
C 164.812797 238.243525 164.155418 236.656471 162.985439 235.486493 
C 161.815461 234.316514 160.228406 233.659135 158.573807 233.659135 
C 156.919207 233.659135 155.332153 234.316514 154.162174 235.486493 
C 152.992196 236.656471 152.334817 238.243525 152.334817 239.898125 
C 152.334817 241.552725 152.992196 243.139779 154.162174 244.309757 
C 155.332153 245.479736 156.919207 246.137115 158.573807 246.137115 
z
" clip-path="url(#p877687c659)" style="fill: #1f77b4; fill-opacity: 0.55; stroke: #1f77b4; stroke-opacity: 0.55; stroke-width: 0.8"/>
    <path d="M 64.737443 439.934193 
C 65.330455 439.934193 65.899259 439.698587 66.318582 439.279264 
C 66.737905 438.859941 66.973511 438.291137 66.973511 437.698125 
C 66.973511 437.105113 66.737905 436.536309 66.318582 436.116986 
C 65.899259 435.697663 65.330455 435.462057 64.737443 435.462057 
C 64.144431 435.462057 63.575627 435.697663 63.156304 436.116986 
C 62.736981 436.536309 62.501375 437.105113 62.501375 437.698125 
C 62.501375 438.291137 62.736981 438.859941 63.156304 439.279264 
C 63.575627 439.698587 64.144431 439.934193 64.737443 439.934193 
z
" clip-path="url(#p877687c659)" style="fill: #1f77b4; fill-opacity: 0.55; stroke: #1f77b4; stroke-opacity: 0.55; stroke-width: 0.8"/>
    <path d="M 111.655625 374.00086 
C 112.248637 374.00086 112.817441 373.765253 113.236764 373.34593 
C 113.656087 372.926608 113.891693 372.357804 113.891693 371.764792 
C 113.891693 371.17178 113.656087 370.602976 113.236764 370.183653 
C 112.817441 369.76433 112.248637 369.528724 111.655625 369.528724 
C 111.062613 369.528724 110.493809 369.76433 110.074486 370.183653 
C 109.655163 370.602976 109.419557 371.17178 109.419557 371.764792 
C 109.419557 372.357804 109.655163 372.926608 110.074486 373.34593 
C 110.493809 373.765253 111.062613 374.00086 111.655625 374.00086 
z
" clip-path="url(#p877687c659)" style="fill: #1f77b4; fill-opacity: 0.55; stroke: #1f77b4; stroke-opacity: 0.55; stroke-width: 0.8"/>
    <path d="M 205.491989 246.516282 
C 207.247144 246.516282 208.93065 245.818951 210.171732 244.577869 
C 211.412815 243.336786 212.110145 241.653281 212.110145 239.898125 
C 212.110145 238.142969 211.412815 236.459464 210.171732 235.218381 
C 208.93065 233.977299 207.247144 233.279968 205.491989 233.279968 
C 203.736833 233.279968 202.053328 233.977299 200.812245 235.218381 
C 199.571163 236.459464 198.873832 238.142969 198.873832 239.898125 
C 198.873832 241.653281 199.571163 243.336786 200.812245 244.577869 
C 202.053328 245.818951 203.736833 246.516282 205.491989 246.516282 
z
" clip-path="url(#p877687c659)" style="fill: #1f77b4; fill-opacity: 0.55; stroke: #1f77b4; stroke-opacity: 0.55; stroke-width: 0.8"/>
    <path d="M 158.573807 374.00086 
C 159.166819 374.00086 159.735623 373.765253 160.154946 373.34593 
C 160.574269 372.926608 160.809875 372.357804 160.809875 371.764792 
C 160.809875 371.17178 160.574269 370.602976 160.154946 370.183653 
C 159.735623 369.76433 159.166819 369.528724 158.573807 369.528724 
C 157.980795 369.528724 157.411991 369.76433 156.992668 370.183653 
C 156.573345 370.602976 156.337739 371.17178 156.337739 371.764792 
C 156.337739 372.357804 156.573345 372.926608 156.992668 373.34593 
C 157.411991 373.765253 157.980795 374.00086 158.573807 374.00086 
z
" clip-path="url(#p877687c659)" style="fill: #1f77b4; fill-opacity: 0.55; stroke: #1f77b4; stroke-opacity: 0.55; stroke-width: 0.8"/>
    <path d="M 158.573807 181.967916 
C 160.69626 181.967916 162.732069 181.124656 164.23287 179.623855 
C 165.733672 178.123054 166.576931 176.087245 166.576931 173.964792 
C 166.576931 171.842338 165.733672 169.806529 164.23287 168.305728 
C 162.732069 166.804927 160.69626 165.961667 158.573807 165.961667 
C 156.451353 165.961667 154.415544 166.804927 152.914743 168.305728 
C 151.413942 169.806529 150.570682 171.842338 150.570682 173.964792 
C 150.570682 176.087245 151.413942 178.123054 152.914743 179.623855 
C 154.415544 181.124656 156.451353 181.967916 158.573807 181.967916 
z
" clip-path="url(#p877687c659)" style="fill: #1f77b4; fill-opacity: 0.55; stroke: #1f77b4; stroke-opacity: 0.55; stroke-width: 0.8"/>
    <path d="M 64.737443 439.934193 
C 65.330455 439.934193 65.899259 439.698587 66.318582 439.279264 
C 66.737905 438.859941 66.973511 438.291137 66.973511 437.698125 
C 66.973511 437.105113 66.737905 436.536309 66.318582 436.116986 
C 65.899259 435.697663 65.330455 435.462057 64.737443 435.462057 
C 64.144431 435.462057 63.575627 435.697663 63.156304 436.116986 
C 62.736981 436.536309 62.501375 437.105113 62.501375 437.698125 
C 62.501375 438.291137 62.736981 438.859941 63.156304 439.279264 
C 63.575627 439.698587 64.144431 439.934193 64.737443 439.934193 
z
" clip-path="url(#p877687c659)" style="fill: #1f77b4; fill-opacity: 0.55; stroke: #1f77b4; stroke-opacity: 0.55; stroke-width: 0.8"/>
    <path d="M 64.737443 439.934193 
C 65.330455 439.934193 65.899259 439.698587 66.318582 439.279264 
C 66.737905 438.859941 66.973511 438.291137 66.973511 437.698125 
C 66.973511 437.105113 66.737905 436.536309 66.318582 436.116986 
C 65.899259 435.697663 65.330455 435.462057 64.737443 435.462057 
C 64.144431 435.462057 63.575627 435.697663 63.156304 436.116986 
C 62.736981 436.536309 62.501375 437.105113 62.501375 437.698125 
C 62.501375 438.291137 62.736981 438.859941 63.156304 439.279264 
C 63.575627 439.698587 64.144431 439.934193 64.737443 439.934193 
z
" clip-path="url(#p877687c659)" style="fill: #1f77b4; fill-opacity: 0.55; stroke: #1f77b4; stroke-opacity: 0.55; stroke-width: 0.8"/>
    <path d="M 252.41017 311.396977 
C 253.886163 311.396977 255.301902 310.810559 256.345587 309.766874 
C 257.389271 308.72319 257.975689 307.307451 257.975689 305.831458 
C 257.975689 304.355465 257.389271 302.939727 256.345587 301.896042 
C 255.301902 300.852358 253.886163 300.265939 252.41017 300.265939 
C 250.934178 300.265939 249.518439 300.852358 248.474754 301.896042 
C 247.43107 302.939727 246.844652 304.355465 246.844652 305.831458 
C 246.844652 307.307451 247.43107 308.72319 248.474754 309.766874 
C 249.518439 310.810559 250.934178 311.396977 252.41017 311.396977 
z
" clip-path="url(#p877687c659)" style="fill: #1f77b4; fill-opacity: 0.55; stroke: #1f77b4; stroke-opacity: 0.55; stroke-width: 0.8"/>
    <path d="M 111.655625 439.939776 
C 112.250118 439.939776 112.820342 439.703582 113.240712 439.283212 
C 113.661082 438.862842 113.897276 438.292618 113.897276 437.698125 
C 113.897276 437.103632 113.661082 436.533408 113.240712 436.113038 
C 112.820342 435.692668 112.250118 435.456474 111.655625 435.456474 
C 111.061132 435.456474 110.490908 435.692668 110.070538 436.113038 
C 109.650168 436.533408 109.413974 437.103632 109.413974 437.698125 
C 109.413974 438.292618 109.650168 438.862842 110.070538 439.283212 
C 110.490908 439.703582 111.061132 439.939776 111.655625 439.939776 
z
" clip-path="url(#p877687c659)" style="fill: #1f77b4; fill-opacity: 0.55; stroke: #1f77b4; stroke-opacity: 0.55; stroke-width: 0.8"/>
    <path d="M 205.491989 374.00086 
C 206.085001 374.00086 206.653805 373.765253 207.073127 373.34593 
C 207.49245 372.926608 207.728057 372.357804 207.728057 371.764792 
C 207.728057 371.17178 207.49245 370.602976 207.073127 370.183653 
C 206.653805 369.76433 206.085001 369.528724 205.491989 369.528724 
C 204.898976 369.528724 204.330173 369.76433 203.91085 370.183653 
C 203.491527 370.602976 203.255921 371.17178 203.255921 371.764792 
C 203.255921 372.357804 203.491527 372.926608 203.91085 373.34593 
C 204.330173 373.765253 204.898976 374.00086 205.491989 374.00086 
z
" clip-path="url(#p877687c659)" style="fill: #1f77b4; fill-opacity: 0.55; stroke: #1f77b4; stroke-opacity: 0.55; stroke-width: 0.8"/>
    <path d="M 205.491989 439.934193 
C 206.085001 439.934193 206.653805 439.698587 207.073127 439.279264 
C 207.49245 438.859941 207.728057 438.291137 207.728057 437.698125 
C 207.728057 437.105113 207.49245 436.536309 207.073127 436.116986 
C 206.653805 435.697663 206.085001 435.462057 205.491989 435.462057 
C 204.898976 435.462057 204.330173 435.697663 203.91085 436.116986 
C 203.491527 436.536309 203.255921 437.105113 203.255921 437.698125 
C 203.255921 438.291137 203.491527 438.859941 203.91085 439.279264 
C 204.330173 439.698587 204.898976 439.934193 205.491989 439.934193 
z
" clip-path="url(#p877687c659)" style="fill: #1f77b4; fill-opacity: 0.55; stroke: #1f77b4; stroke-opacity: 0.55; stroke-width: 0.8"/>
    <path d="M 205.491989 439.934193 
C 206.085001 439.934193 206.653805 439.698587 207.073127 439.279264 
C 207.49245 438.859941 207.728057 438.291137 207.728057 437.698125 
C 207.728057 437.105113 207.49245 436.536309 207.073127 436.116986 
C 206.653805 435.697663 206.085001 435.462057 205.491989 435.462057 
C 204.898976 435.462057 204.330173 435.697663 203.91085 436.116986 
C 203.491527 436.536309 203.255921 437.105113 203.255921 437.698125 
C 203.255921 438.291137 203.491527 438.859941 203.91085 439.279264 
C 204.330173 439.698587 204.898976 439.934193 205.491989 439.934193 
z
" clip-path="url(#p877687c659)" style="fill: #1f77b4; fill-opacity: 0.55; stroke: #1f77b4; stroke-opacity: 0.55; stroke-width: 0.8"/>
    <path d="M 64.737443 374.00086 
C 65.330455 374.00086 65.899259 373.765253 66.318582 373.34593 
C 66.737905 372.926608 66.973511 372.357804 66.973511 371.764792 
C 66.973511 371.17178 66.737905 370.602976 66.318582 370.183653 
C 65.899259 369.76433 65.330455 369.528724 64.737443 369.528724 
C 64.144431 369.528724 63.575627 369.76433 63.156304 370.183653 
C 62.736981 370.602976 62.501375 371.17178 62.501375 371.764792 
C 62.501375 372.357804 62.736981 372.926608 63.156304 373.34593 
C 63.575627 373.765253 64.144431 374.00086 64.737443 374.00086 
z
" clip-path="url(#p877687c659)" style="fill: #1f77b4; fill-opacity: 0.55; stroke: #1f77b4; stroke-opacity: 0.55; stroke-width: 0.8"/>
    <path d="M 111.655625 439.934193 
C 112.248637 439.934193 112.817441 439.698587 113.236764 439.279264 
C 113.656087 438.859941 113.891693 438.291137 113.891693 437.698125 
C 113.891693 437.105113 113.656087 436.536309 113.236764 436.116986 
C 112.817441 435.697663 112.248637 435.462057 111.655625 435.462057 
C 111.062613 435.462057 110.493809 435.697663 110.074486 436.116986 
C 109.655163 436.536309 109.419557 437.105113 109.419557 437.698125 
C 109.419557 438.291137 109.655163 438.859941 110.074486 439.279264 
C 110.493809 439.698587 111.062613 439.934193 111.655625 439.934193 
z
" clip-path="url(#p877687c659)" style="fill: #1f77b4; fill-opacity: 0.55; stroke: #1f77b4; stroke-opacity: 0.55; stroke-width: 0.8"/>
    <path d="M 346.246534 242.134193 
C 346.839546 242.134193 347.40835 241.898587 347.827673 241.479264 
C 348.246996 241.059941 348.482602 240.491137 348.482602 239.898125 
C 348.482602 239.305113 348.246996 238.736309 347.827673 238.316986 
C 347.40835 237.897663 346.839546 237.662057 346.246534 237.662057 
C 345.653522 237.662057 345.084718 237.897663 344.665395 238.316986 
C 344.246072 238.736309 344.010466 239.305113 344.010466 239.898125 
C 344.010466 240.491137 344.246072 241.059941 344.665395 241.479264 
C 345.084718 241.898587 345.653522 242.134193 346.246534 242.134193 
z
" clip-path="url(#p877687c659)" style="fill: #1f77b4; fill-opacity: 0.55; stroke: #1f77b4; stroke-opacity: 0.55; stroke-width: 0.8"/>
    <path d="M 299.328352 176.20086 
C 299.921364 176.20086 300.490168 175.965253 300.909491 175.54593 
C 301.328814 175.126608 301.56442 174.557804 301.56442 173.964792 
C 301.56442 173.37178 301.328814 172.802976 300.909491 172.383653 
C 300.490168 171.96433 299.921364 171.728724 299.328352 171.728724 
C 298.73534 171.728724 298.166536 171.96433 297.747213 172.383653 
C 297.327891 172.802976 297.092284 173.37178 297.092284 173.964792 
C 297.092284 174.557804 297.327891 175.126608 297.747213 175.54593 
C 298.166536 175.965253 298.73534 176.20086 299.328352 176.20086 
z
" clip-path="url(#p877687c659)" style="fill: #1f77b4; fill-opacity: 0.55; stroke: #1f77b4; stroke-opacity: 0.55; stroke-width: 0.8"/>
    <path d="M 64.737443 308.067526 
C 65.330455 308.067526 65.899259 307.83192 66.318582 307.412597 
C 66.737905 306.993274 66.973511 306.42447 66.973511 305.831458 
C 66.973511 305.238446 66.737905 304.669642 66.318582 304.25032 
C 65.899259 303.830997 65.330455 303.59539 64.737443 303.59539 
C 64.144431 303.59539 63.575627 303.830997 63.156304 304.25032 
C 62.736981 304.669642 62.501375 305.238446 62.501375 305.831458 
C 62.501375 306.42447 62.736981 306.993274 63.156304 307.412597 
C 63.575627 307.83192 64.144431 308.067526 64.737443 308.067526 
z
" clip-path="url(#p877687c659)" style="fill: #1f77b4; fill-opacity: 0.55; stroke: #1f77b4; stroke-opacity: 0.55; stroke-width: 0.8"/>
    <path d="M 205.491989 374.00086 
C 206.085001 374.00086 206.653805 373.765253 207.073127 373.34593 
C 207.49245 372.926608 207.728057 372.357804 207.728057 371.764792 
C 207.728057 371.17178 207.49245 370.602976 207.073127 370.183653 
C 206.653805 369.76433 206.085001 369.528724 205.491989 369.528724 
C 204.898976 369.528724 204.330173 369.76433 203.91085 370.183653 
C 203.491527 370.602976 203.255921 371.17178 203.255921 371.764792 
C 203.255921 372.357804 203.491527 372.926608 203.91085 373.34593 
C 204.330173 373.765253 204.898976 374.00086 205.491989 374.00086 
z
" clip-path="url(#p877687c659)" style="fill: #1f77b4; fill-opacity: 0.55; stroke: #1f77b4; stroke-opacity: 0.55; stroke-width: 0.8"/>
    <path d="M 205.491989 374.00086 
C 206.085001 374.00086 206.653805 373.765253 207.073127 373.34593 
C 207.49245 372.926608 207.728057 372.357804 207.728057 371.764792 
C 207.728057 371.17178 207.49245 370.602976 207.073127 370.183653 
C 206.653805 369.76433 206.085001 369.528724 205.491989 369.528724 
C 204.898976 369.528724 204.330173 369.76433 203.91085 370.183653 
C 203.491527 370.602976 203.255921 371.17178 203.255921 371.764792 
C 203.255921 372.357804 203.491527 372.926608 203.91085 373.34593 
C 204.330173 373.765253 204.898976 374.00086 205.491989 374.00086 
z
" clip-path="url(#p877687c659)" style="fill: #1f77b4; fill-opacity: 0.55; stroke: #1f77b4; stroke-opacity: 0.55; stroke-width: 0.8"/>
    <path d="M 252.41017 308.067526 
C 253.003183 308.067526 253.571986 307.83192 253.991309 307.412597 
C 254.410632 306.993274 254.646238 306.42447 254.646238 305.831458 
C 254.646238 305.238446 254.410632 304.669642 253.991309 304.25032 
C 253.571986 303.830997 253.003183 303.59539 252.41017 303.59539 
C 251.817158 303.59539 251.248355 303.830997 250.829032 304.25032 
C 250.409709 304.669642 250.174102 305.238446 250.174102 305.831458 
C 250.174102 306.42447 250.409709 306.993274 250.829032 307.412597 
C 251.248355 307.83192 251.817158 308.067526 252.41017 308.067526 
z
" clip-path="url(#p877687c659)" style="fill: #1f77b4; fill-opacity: 0.55; stroke: #1f77b4; stroke-opacity: 0.55; stroke-width: 0.8"/>
    <path d="M 440.082898 374.00086 
C 440.67591 374.00086 441.244714 373.765253 441.664037 373.34593 
C 442.083359 372.926608 442.318966 372.357804 442.318966 371.764792 
C 442.318966 371.17178 442.083359 370.602976 441.664037 370.183653 
C 441.244714 369.76433 440.67591 369.528724 440.082898 369.528724 
C 439.489886 369.528724 438.921082 369.76433 438.501759 370.183653 
C 438.082436 370.602976 437.84683 371.17178 437.84683 371.764792 
C 437.84683 372.357804 438.082436 372.926608 438.501759 373.34593 
C 438.921082 373.765253 439.489886 374.00086 440.082898 374.00086 
z
" clip-path="url(#p877687c659)" style="fill: #1f77b4; fill-opacity: 0.55; stroke: #1f77b4; stroke-opacity: 0.55; stroke-width: 0.8"/>
    <path d="M 440.082898 310.947609 
C 441.439717 310.947609 442.741147 310.408539 443.700563 309.449123 
C 444.659979 308.489707 445.199049 307.188277 445.199049 305.831458 
C 445.199049 304.474639 444.659979 303.173209 443.700563 302.213793 
C 442.741147 301.254377 441.439717 300.715307 440.082898 300.715307 
C 438.726079 300.715307 437.424649 301.254377 436.465233 302.213793 
C 435.505817 303.173209 434.966747 304.474639 434.966747 305.831458 
C 434.966747 307.188277 435.505817 308.489707 436.465233 309.449123 
C 437.424649 310.408539 438.726079 310.947609 440.082898 310.947609 
z
" clip-path="url(#p877687c659)" style="fill: #1f77b4; fill-opacity: 0.55; stroke: #1f77b4; stroke-opacity: 0.55; stroke-width: 0.8"/>
    <path d="M 533.919261 375.752272 
C 534.976754 375.752272 535.991076 375.332126 536.738836 374.584366 
C 537.486596 373.836606 537.906742 372.822284 537.906742 371.764792 
C 537.906742 370.7073 537.486596 369.692977 536.738836 368.945217 
C 535.991076 368.197457 534.976754 367.777311 533.919261 367.777311 
C 532.861769 367.777311 531.847447 368.197457 531.099687 368.945217 
C 530.351927 369.692977 529.931781 370.7073 529.931781 371.764792 
C 529.931781 372.822284 530.351927 373.836606 531.099687 374.584366 
C 531.847447 375.332126 532.861769 375.752272 533.919261 375.752272 
z
" clip-path="url(#p877687c659)" style="fill: #1f77b4; fill-opacity: 0.55; stroke: #1f77b4; stroke-opacity: 0.55; stroke-width: 0.8"/>
    <path d="M 440.082898 112.829896 
C 441.355458 112.829896 442.576069 112.324302 443.475905 111.424466 
C 444.375741 110.52463 444.881335 109.304019 444.881335 108.031458 
C 444.881335 106.758898 444.375741 105.538287 443.475905 104.638451 
C 442.576069 103.738615 441.355458 103.233021 440.082898 103.233021 
C 438.810337 103.233021 437.589726 103.738615 436.68989 104.638451 
C 435.790054 105.538287 435.28446 106.758898 435.28446 108.031458 
C 435.28446 109.304019 435.790054 110.52463 436.68989 111.424466 
C 437.589726 112.324302 438.810337 112.829896 440.082898 112.829896 
z
" clip-path="url(#p877687c659)" style="fill: #1f77b4; fill-opacity: 0.55; stroke: #1f77b4; stroke-opacity: 0.55; stroke-width: 0.8"/>
    <path d="M 674.673807 176.20086 
C 675.266819 176.20086 675.835623 175.965253 676.254946 175.54593 
C 676.674269 175.126608 676.909875 174.557804 676.909875 173.964792 
C 676.909875 173.37178 676.674269 172.802976 676.254946 172.383653 
C 675.835623 171.96433 675.266819 171.728724 674.673807 171.728724 
C 674.080795 171.728724 673.511991 171.96433 673.092668 172.383653 
C 672.673345 172.802976 672.437739 173.37178 672.437739 173.964792 
C 672.437739 174.557804 672.673345 175.126608 673.092668 175.54593 
C 673.511991 175.965253 674.080795 176.20086 674.673807 176.20086 
z
" clip-path="url(#p877687c659)" style="fill: #1f77b4; fill-opacity: 0.55; stroke: #1f77b4; stroke-opacity: 0.55; stroke-width: 0.8"/>
    <path d="M 299.328352 374.00086 
C 299.921364 374.00086 300.490168 373.765253 300.909491 373.34593 
C 301.328814 372.926608 301.56442 372.357804 301.56442 371.764792 
C 301.56442 371.17178 301.328814 370.602976 300.909491 370.183653 
C 300.490168 369.76433 299.921364 369.528724 299.328352 369.528724 
C 298.73534 369.528724 298.166536 369.76433 297.747213 370.183653 
C 297.327891 370.602976 297.092284 371.17178 297.092284 371.764792 
C 297.092284 372.357804 297.327891 372.926608 297.747213 373.34593 
C 298.166536 373.765253 298.73534 374.00086 299.328352 374.00086 
z
" clip-path="url(#p877687c659)" style="fill: #1f77b4; fill-opacity: 0.55; stroke: #1f77b4; stroke-opacity: 0.55; stroke-width: 0.8"/>
    <path d="M 252.41017 242.134193 
C 253.003183 242.134193 253.571986 241.898587 253.991309 241.479264 
C 254.410632 241.059941 254.646238 240.491137 254.646238 239.898125 
C 254.646238 239.305113 254.410632 238.736309 253.991309 238.316986 
C 253.571986 237.897663 253.003183 237.662057 252.41017 237.662057 
C 251.817158 237.662057 251.248355 237.897663 250.829032 238.316986 
C 250.409709 238.736309 250.174102 239.305113 250.174102 239.898125 
C 250.174102 240.491137 250.409709 241.059941 250.829032 241.479264 
C 251.248355 241.898587 251.817158 242.134193 252.41017 242.134193 
z
" clip-path="url(#p877687c659)" style="fill: #1f77b4; fill-opacity: 0.55; stroke: #1f77b4; stroke-opacity: 0.55; stroke-width: 0.8"/>
    <path d="M 440.082898 47.623068 
C 441.54813 47.623068 442.953547 47.040926 443.989623 46.00485 
C 445.025698 44.968774 445.607841 43.563357 445.607841 42.098125 
C 445.607841 40.632893 445.025698 39.227476 443.989623 38.1914 
C 442.953547 37.155324 441.54813 36.573182 440.082898 36.573182 
C 438.617666 36.573182 437.212248 37.155324 436.176173 38.1914 
C 435.140097 39.227476 434.557954 40.632893 434.557954 42.098125 
C 434.557954 43.563357 435.140097 44.968774 436.176173 46.00485 
C 437.212248 47.040926 438.617666 47.623068 440.082898 47.623068 
z
" clip-path="url(#p877687c659)" style="fill: #1f77b4; fill-opacity: 0.55; stroke: #1f77b4; stroke-opacity: 0.55; stroke-width: 0.8"/>
    <path d="M 533.919261 242.134193 
C 534.512274 242.134193 535.081077 241.898587 535.5004 241.479264 
C 535.919723 241.059941 536.155329 240.491137 536.155329 239.898125 
C 536.155329 239.305113 535.919723 238.736309 535.5004 238.316986 
C 535.081077 237.897663 534.512274 237.662057 533.919261 237.662057 
C 533.326249 237.662057 532.757445 237.897663 532.338123 238.316986 
C 531.9188 238.736309 531.683193 239.305113 531.683193 239.898125 
C 531.683193 240.491137 531.9188 241.059941 532.338123 241.479264 
C 532.757445 241.898587 533.326249 242.134193 533.919261 242.134193 
z
" clip-path="url(#p877687c659)" style="fill: #1f77b4; fill-opacity: 0.55; stroke: #1f77b4; stroke-opacity: 0.55; stroke-width: 0.8"/>
    <path d="M 111.655625 443.078645 
C 113.082556 443.078645 114.451235 442.51172 115.460227 441.502727 
C 116.46922 440.493735 117.036145 439.125056 117.036145 437.698125 
C 117.036145 436.271194 116.46922 434.902515 115.460227 433.893523 
C 114.451235 432.88453 113.082556 432.317605 111.655625 432.317605 
C 110.228694 432.317605 108.860015 432.88453 107.851023 433.893523 
C 106.84203 434.902515 106.275105 436.271194 106.275105 437.698125 
C 106.275105 439.125056 106.84203 440.493735 107.851023 441.502727 
C 108.860015 442.51172 110.228694 443.078645 111.655625 443.078645 
z
" clip-path="url(#p877687c659)" style="fill: #1f77b4; fill-opacity: 0.55; stroke: #1f77b4; stroke-opacity: 0.55; stroke-width: 0.8"/>
    <path d="M 252.41017 176.591577 
C 253.106802 176.591577 253.774995 176.314802 254.267588 175.822209 
C 254.760181 175.329616 255.036956 174.661423 255.036956 173.964792 
C 255.036956 173.26816 254.760181 172.599967 254.267588 172.107374 
C 253.774995 171.614781 253.106802 171.338007 252.41017 171.338007 
C 251.713539 171.338007 251.045346 171.614781 250.552753 172.107374 
C 250.06016 172.599967 249.783385 173.26816 249.783385 173.964792 
C 249.783385 174.661423 250.06016 175.329616 250.552753 175.822209 
C 251.045346 176.314802 251.713539 176.591577 252.41017 176.591577 
z
" clip-path="url(#p877687c659)" style="fill: #1f77b4; fill-opacity: 0.55; stroke: #1f77b4; stroke-opacity: 0.55; stroke-width: 0.8"/>
    <path d="M 158.573807 375.028225 
C 159.43928 375.028225 160.269421 374.684369 160.881403 374.072388 
C 161.493385 373.460406 161.837241 372.630264 161.837241 371.764792 
C 161.837241 370.899319 161.493385 370.069177 160.881403 369.457196 
C 160.269421 368.845214 159.43928 368.501358 158.573807 368.501358 
C 157.708334 368.501358 156.878192 368.845214 156.266211 369.457196 
C 155.654229 370.069177 155.310373 370.899319 155.310373 371.764792 
C 155.310373 372.630264 155.654229 373.460406 156.266211 374.072388 
C 156.878192 374.684369 157.708334 375.028225 158.573807 375.028225 
z
" clip-path="url(#p877687c659)" style="fill: #1f77b4; fill-opacity: 0.55; stroke: #1f77b4; stroke-opacity: 0.55; stroke-width: 0.8"/>
    <path d="M 64.737443 439.934193 
C 65.330455 439.934193 65.899259 439.698587 66.318582 439.279264 
C 66.737905 438.859941 66.973511 438.291137 66.973511 437.698125 
C 66.973511 437.105113 66.737905 436.536309 66.318582 436.116986 
C 65.899259 435.697663 65.330455 435.462057 64.737443 435.462057 
C 64.144431 435.462057 63.575627 435.697663 63.156304 436.116986 
C 62.736981 436.536309 62.501375 437.105113 62.501375 437.698125 
C 62.501375 438.291137 62.736981 438.859941 63.156304 439.279264 
C 63.575627 439.698587 64.144431 439.934193 64.737443 439.934193 
z
" clip-path="url(#p877687c659)" style="fill: #1f77b4; fill-opacity: 0.55; stroke: #1f77b4; stroke-opacity: 0.55; stroke-width: 0.8"/>
   </g>
   <g id="matplotlib.axis_1">
    <g id="xtick_1">
     <g id="line2d_1">
      <path d="M 64.737443 457.478125 
L 64.737443 22.318125 
" clip-path="url(#p877687c659)" style="fill: none; stroke-dasharray: 2.96,1.28; stroke-dashoffset: 0; stroke: #b0b0b0; stroke-opacity: 0.35; stroke-width: 0.8"/>
     </g>
     <g id="line2d_2">
      <defs>
       <path id="mdccab55314" d="M 0 0 
L 0 3.5 
" style="stroke: #000000; stroke-width: 0.8"/>
      </defs>
      <g>
       <use xlink:href="#mdccab55314" x="64.737443" y="457.478125" style="stroke: #000000; stroke-width: 0.8"/>
      </g>
     </g>
     <g id="text_1">
      <!-- 0 -->
      <g transform="translate(61.556193 472.076563) scale(0.1 -0.1)">
       <defs>
        <path id="DejaVuSans-30" d="M 2034 4250 
Q 1547 4250 1301 3770 
Q 1056 3291 1056 2328 
Q 1056 1369 1301 889 
Q 1547 409 2034 409 
Q 2525 409 2770 889 
Q 3016 1369 3016 2328 
Q 3016 3291 2770 3770 
Q 2525 4250 2034 4250 
z
M 2034 4750 
Q 2819 4750 3233 4129 
Q 3647 3509 3647 2328 
Q 3647 1150 3233 529 
Q 2819 -91 2034 -91 
Q 1250 -91 836 529 
Q 422 1150 422 2328 
Q 422 3509 836 4129 
Q 1250 4750 2034 4750 
z
" transform="scale(0.015625)"/>
       </defs>
       <use xlink:href="#DejaVuSans-30"/>
      </g>
     </g>
    </g>
    <g id="xtick_2">
     <g id="line2d_3">
      <path d="M 158.573807 457.478125 
L 158.573807 22.318125 
" clip-path="url(#p877687c659)" style="fill: none; stroke-dasharray: 2.96,1.28; stroke-dashoffset: 0; stroke: #b0b0b0; stroke-opacity: 0.35; stroke-width: 0.8"/>
     </g>
     <g id="line2d_4">
      <g>
       <use xlink:href="#mdccab55314" x="158.573807" y="457.478125" style="stroke: #000000; stroke-width: 0.8"/>
      </g>
     </g>
     <g id="text_2">
      <!-- 2 -->
      <g transform="translate(155.392557 472.076563) scale(0.1 -0.1)">
       <defs>
        <path id="DejaVuSans-32" d="M 1228 531 
L 3431 531 
L 3431 0 
L 469 0 
L 469 531 
Q 828 903 1448 1529 
Q 2069 2156 2228 2338 
Q 2531 2678 2651 2914 
Q 2772 3150 2772 3378 
Q 2772 3750 2511 3984 
Q 2250 4219 1831 4219 
Q 1534 4219 1204 4116 
Q 875 4013 500 3803 
L 500 4441 
Q 881 4594 1212 4672 
Q 1544 4750 1819 4750 
Q 2544 4750 2975 4387 
Q 3406 4025 3406 3419 
Q 3406 3131 3298 2873 
Q 3191 2616 2906 2266 
Q 2828 2175 2409 1742 
Q 1991 1309 1228 531 
z
" transform="scale(0.015625)"/>
       </defs>
       <use xlink:href="#DejaVuSans-32"/>
      </g>
     </g>
    </g>
    <g id="xtick_3">
     <g id="line2d_5">
      <path d="M 252.41017 457.478125 
L 252.41017 22.318125 
" clip-path="url(#p877687c659)" style="fill: none; stroke-dasharray: 2.96,1.28; stroke-dashoffset: 0; stroke: #b0b0b0; stroke-opacity: 0.35; stroke-width: 0.8"/>
     </g>
     <g id="line2d_6">
      <g>
       <use xlink:href="#mdccab55314" x="252.41017" y="457.478125" style="stroke: #000000; stroke-width: 0.8"/>
      </g>
     </g>
     <g id="text_3">
      <!-- 4 -->
      <g transform="translate(249.22892 472.076563) scale(0.1 -0.1)">
       <defs>
        <path id="DejaVuSans-34" d="M 2419 4116 
L 825 1625 
L 2419 1625 
L 2419 4116 
z
M 2253 4666 
L 3047 4666 
L 3047 1625 
L 3713 1625 
L 3713 1100 
L 3047 1100 
L 3047 0 
L 2419 0 
L 2419 1100 
L 313 1100 
L 313 1709 
L 2253 4666 
z
" transform="scale(0.015625)"/>
       </defs>
       <use xlink:href="#DejaVuSans-34"/>
      </g>
     </g>
    </g>
    <g id="xtick_4">
     <g id="line2d_7">
      <path d="M 346.246534 457.478125 
L 346.246534 22.318125 
" clip-path="url(#p877687c659)" style="fill: none; stroke-dasharray: 2.96,1.28; stroke-dashoffset: 0; stroke: #b0b0b0; stroke-opacity: 0.35; stroke-width: 0.8"/>
     </g>
     <g id="line2d_8">
      <g>
       <use xlink:href="#mdccab55314" x="346.246534" y="457.478125" style="stroke: #000000; stroke-width: 0.8"/>
      </g>
     </g>
     <g id="text_4">
      <!-- 6 -->
      <g transform="translate(343.065284 472.076563) scale(0.1 -0.1)">
       <defs>
        <path id="DejaVuSans-36" d="M 2113 2584 
Q 1688 2584 1439 2293 
Q 1191 2003 1191 1497 
Q 1191 994 1439 701 
Q 1688 409 2113 409 
Q 2538 409 2786 701 
Q 3034 994 3034 1497 
Q 3034 2003 2786 2293 
Q 2538 2584 2113 2584 
z
M 3366 4563 
L 3366 3988 
Q 3128 4100 2886 4159 
Q 2644 4219 2406 4219 
Q 1781 4219 1451 3797 
Q 1122 3375 1075 2522 
Q 1259 2794 1537 2939 
Q 1816 3084 2150 3084 
Q 2853 3084 3261 2657 
Q 3669 2231 3669 1497 
Q 3669 778 3244 343 
Q 2819 -91 2113 -91 
Q 1303 -91 875 529 
Q 447 1150 447 2328 
Q 447 3434 972 4092 
Q 1497 4750 2381 4750 
Q 2619 4750 2861 4703 
Q 3103 4656 3366 4563 
z
" transform="scale(0.015625)"/>
       </defs>
       <use xlink:href="#DejaVuSans-36"/>
      </g>
     </g>
    </g>
    <g id="xtick_5">
     <g id="line2d_9">
      <path d="M 440.082898 457.478125 
L 440.082898 22.318125 
" clip-path="url(#p877687c659)" style="fill: none; stroke-dasharray: 2.96,1.28; stroke-dashoffset: 0; stroke: #b0b0b0; stroke-opacity: 0.35; stroke-width: 0.8"/>
     </g>
     <g id="line2d_10">
      <g>
       <use xlink:href="#mdccab55314" x="440.082898" y="457.478125" style="stroke: #000000; stroke-width: 0.8"/>
      </g>
     </g>
     <g id="text_5">
      <!-- 8 -->
      <g transform="translate(436.901648 472.076563) scale(0.1 -0.1)">
       <defs>
        <path id="DejaVuSans-38" d="M 2034 2216 
Q 1584 2216 1326 1975 
Q 1069 1734 1069 1313 
Q 1069 891 1326 650 
Q 1584 409 2034 409 
Q 2484 409 2743 651 
Q 3003 894 3003 1313 
Q 3003 1734 2745 1975 
Q 2488 2216 2034 2216 
z
M 1403 2484 
Q 997 2584 770 2862 
Q 544 3141 544 3541 
Q 544 4100 942 4425 
Q 1341 4750 2034 4750 
Q 2731 4750 3128 4425 
Q 3525 4100 3525 3541 
Q 3525 3141 3298 2862 
Q 3072 2584 2669 2484 
Q 3125 2378 3379 2068 
Q 3634 1759 3634 1313 
Q 3634 634 3220 271 
Q 2806 -91 2034 -91 
Q 1263 -91 848 271 
Q 434 634 434 1313 
Q 434 1759 690 2068 
Q 947 2378 1403 2484 
z
M 1172 3481 
Q 1172 3119 1398 2916 
Q 1625 2713 2034 2713 
Q 2441 2713 2670 2916 
Q 2900 3119 2900 3481 
Q 2900 3844 2670 4047 
Q 2441 4250 2034 4250 
Q 1625 4250 1398 4047 
Q 1172 3844 1172 3481 
z
" transform="scale(0.015625)"/>
       </defs>
       <use xlink:href="#DejaVuSans-38"/>
      </g>
     </g>
    </g>
    <g id="xtick_6">
     <g id="line2d_11">
      <path d="M 533.919261 457.478125 
L 533.919261 22.318125 
" clip-path="url(#p877687c659)" style="fill: none; stroke-dasharray: 2.96,1.28; stroke-dashoffset: 0; stroke: #b0b0b0; stroke-opacity: 0.35; stroke-width: 0.8"/>
     </g>
     <g id="line2d_12">
      <g>
       <use xlink:href="#mdccab55314" x="533.919261" y="457.478125" style="stroke: #000000; stroke-width: 0.8"/>
      </g>
     </g>
     <g id="text_6">
      <!-- 10 -->
      <g transform="translate(527.556761 472.076563) scale(0.1 -0.1)">
       <defs>
        <path id="DejaVuSans-31" d="M 794 531 
L 1825 531 
L 1825 4091 
L 703 3866 
L 703 4441 
L 1819 4666 
L 2450 4666 
L 2450 531 
L 3481 531 
L 3481 0 
L 794 0 
L 794 531 
z
" transform="scale(0.015625)"/>
       </defs>
       <use xlink:href="#DejaVuSans-31"/>
       <use xlink:href="#DejaVuSans-30" transform="translate(63.623047 0)"/>
      </g>
     </g>
    </g>
    <g id="xtick_7">
     <g id="line2d_13">
      <path d="M 627.755625 457.478125 
L 627.755625 22.318125 
" clip-path="url(#p877687c659)" style="fill: none; stroke-dasharray: 2.96,1.28; stroke-dashoffset: 0; stroke: #b0b0b0; stroke-opacity: 0.35; stroke-width: 0.8"/>
     </g>
     <g id="line2d_14">
      <g>
       <use xlink:href="#mdccab55314" x="627.755625" y="457.478125" style="stroke: #000000; stroke-width: 0.8"/>
      </g>
     </g>
     <g id="text_7">
      <!-- 12 -->
      <g transform="translate(621.393125 472.076563) scale(0.1 -0.1)">
       <use xlink:href="#DejaVuSans-31"/>
       <use xlink:href="#DejaVuSans-32" transform="translate(63.623047 0)"/>
      </g>
     </g>
    </g>
    <g id="text_8">
     <!-- Progressive Passes (per mecz) -->
     <g transform="translate(293.907969 485.754688) scale(0.1 -0.1)">
      <defs>
       <path id="DejaVuSans-50" d="M 1259 4147 
L 1259 2394 
L 2053 2394 
Q 2494 2394 2734 2622 
Q 2975 2850 2975 3272 
Q 2975 3691 2734 3919 
Q 2494 4147 2053 4147 
L 1259 4147 
z
M 628 4666 
L 2053 4666 
Q 2838 4666 3239 4311 
Q 3641 3956 3641 3272 
Q 3641 2581 3239 2228 
Q 2838 1875 2053 1875 
L 1259 1875 
L 1259 0 
L 628 0 
L 628 4666 
z
" transform="scale(0.015625)"/>
       <path id="DejaVuSans-72" d="M 2631 2963 
Q 2534 3019 2420 3045 
Q 2306 3072 2169 3072 
Q 1681 3072 1420 2755 
Q 1159 2438 1159 1844 
L 1159 0 
L 581 0 
L 581 3500 
L 1159 3500 
L 1159 2956 
Q 1341 3275 1631 3429 
Q 1922 3584 2338 3584 
Q 2397 3584 2469 3576 
Q 2541 3569 2628 3553 
L 2631 2963 
z
" transform="scale(0.015625)"/>
       <path id="DejaVuSans-6f" d="M 1959 3097 
Q 1497 3097 1228 2736 
Q 959 2375 959 1747 
Q 959 1119 1226 758 
Q 1494 397 1959 397 
Q 2419 397 2687 759 
Q 2956 1122 2956 1747 
Q 2956 2369 2687 2733 
Q 2419 3097 1959 3097 
z
M 1959 3584 
Q 2709 3584 3137 3096 
Q 3566 2609 3566 1747 
Q 3566 888 3137 398 
Q 2709 -91 1959 -91 
Q 1206 -91 779 398 
Q 353 888 353 1747 
Q 353 2609 779 3096 
Q 1206 3584 1959 3584 
z
" transform="scale(0.015625)"/>
       <path id="DejaVuSans-67" d="M 2906 1791 
Q 2906 2416 2648 2759 
Q 2391 3103 1925 3103 
Q 1463 3103 1205 2759 
Q 947 2416 947 1791 
Q 947 1169 1205 825 
Q 1463 481 1925 481 
Q 2391 481 2648 825 
Q 2906 1169 2906 1791 
z
M 3481 434 
Q 3481 -459 3084 -895 
Q 2688 -1331 1869 -1331 
Q 1566 -1331 1297 -1286 
Q 1028 -1241 775 -1147 
L 775 -588 
Q 1028 -725 1275 -790 
Q 1522 -856 1778 -856 
Q 2344 -856 2625 -561 
Q 2906 -266 2906 331 
L 2906 616 
Q 2728 306 2450 153 
Q 2172 0 1784 0 
Q 1141 0 747 490 
Q 353 981 353 1791 
Q 353 2603 747 3093 
Q 1141 3584 1784 3584 
Q 2172 3584 2450 3431 
Q 2728 3278 2906 2969 
L 2906 3500 
L 3481 3500 
L 3481 434 
z
" transform="scale(0.015625)"/>
       <path id="DejaVuSans-65" d="M 3597 1894 
L 3597 1613 
L 953 1613 
Q 991 1019 1311 708 
Q 1631 397 2203 397 
Q 2534 397 2845 478 
Q 3156 559 3463 722 
L 3463 178 
Q 3153 47 2828 -22 
Q 2503 -91 2169 -91 
Q 1331 -91 842 396 
Q 353 884 353 1716 
Q 353 2575 817 3079 
Q 1281 3584 2069 3584 
Q 2775 3584 3186 3129 
Q 3597 2675 3597 1894 
z
M 3022 2063 
Q 3016 2534 2758 2815 
Q 2500 3097 2075 3097 
Q 1594 3097 1305 2825 
Q 1016 2553 972 2059 
L 3022 2063 
z
" transform="scale(0.015625)"/>
       <path id="DejaVuSans-73" d="M 2834 3397 
L 2834 2853 
Q 2591 2978 2328 3040 
Q 2066 3103 1784 3103 
Q 1356 3103 1142 2972 
Q 928 2841 928 2578 
Q 928 2378 1081 2264 
Q 1234 2150 1697 2047 
L 1894 2003 
Q 2506 1872 2764 1633 
Q 3022 1394 3022 966 
Q 3022 478 2636 193 
Q 2250 -91 1575 -91 
Q 1294 -91 989 -36 
Q 684 19 347 128 
L 347 722 
Q 666 556 975 473 
Q 1284 391 1588 391 
Q 1994 391 2212 530 
Q 2431 669 2431 922 
Q 2431 1156 2273 1281 
Q 2116 1406 1581 1522 
L 1381 1569 
Q 847 1681 609 1914 
Q 372 2147 372 2553 
Q 372 3047 722 3315 
Q 1072 3584 1716 3584 
Q 2034 3584 2315 3537 
Q 2597 3491 2834 3397 
z
" transform="scale(0.015625)"/>
       <path id="DejaVuSans-69" d="M 603 3500 
L 1178 3500 
L 1178 0 
L 603 0 
L 603 3500 
z
M 603 4863 
L 1178 4863 
L 1178 4134 
L 603 4134 
L 603 4863 
z
" transform="scale(0.015625)"/>
       <path id="DejaVuSans-76" d="M 191 3500 
L 800 3500 
L 1894 563 
L 2988 3500 
L 3597 3500 
L 2284 0 
L 1503 0 
L 191 3500 
z
" transform="scale(0.015625)"/>
       <path id="DejaVuSans-20" transform="scale(0.015625)"/>
       <path id="DejaVuSans-61" d="M 2194 1759 
Q 1497 1759 1228 1600 
Q 959 1441 959 1056 
Q 959 750 1161 570 
Q 1363 391 1709 391 
Q 2188 391 2477 730 
Q 2766 1069 2766 1631 
L 2766 1759 
L 2194 1759 
z
M 3341 1997 
L 3341 0 
L 2766 0 
L 2766 531 
Q 2569 213 2275 61 
Q 1981 -91 1556 -91 
Q 1019 -91 701 211 
Q 384 513 384 1019 
Q 384 1609 779 1909 
Q 1175 2209 1959 2209 
L 2766 2209 
L 2766 2266 
Q 2766 2663 2505 2880 
Q 2244 3097 1772 3097 
Q 1472 3097 1187 3025 
Q 903 2953 641 2809 
L 641 3341 
Q 956 3463 1253 3523 
Q 1550 3584 1831 3584 
Q 2591 3584 2966 3190 
Q 3341 2797 3341 1997 
z
" transform="scale(0.015625)"/>
       <path id="DejaVuSans-28" d="M 1984 4856 
Q 1566 4138 1362 3434 
Q 1159 2731 1159 2009 
Q 1159 1288 1364 580 
Q 1569 -128 1984 -844 
L 1484 -844 
Q 1016 -109 783 600 
Q 550 1309 550 2009 
Q 550 2706 781 3412 
Q 1013 4119 1484 4856 
L 1984 4856 
z
" transform="scale(0.015625)"/>
       <path id="DejaVuSans-70" d="M 1159 525 
L 1159 -1331 
L 581 -1331 
L 581 3500 
L 1159 3500 
L 1159 2969 
Q 1341 3281 1617 3432 
Q 1894 3584 2278 3584 
Q 2916 3584 3314 3078 
Q 3713 2572 3713 1747 
Q 3713 922 3314 415 
Q 2916 -91 2278 -91 
Q 1894 -91 1617 61 
Q 1341 213 1159 525 
z
M 3116 1747 
Q 3116 2381 2855 2742 
Q 2594 3103 2138 3103 
Q 1681 3103 1420 2742 
Q 1159 2381 1159 1747 
Q 1159 1113 1420 752 
Q 1681 391 2138 391 
Q 2594 391 2855 752 
Q 3116 1113 3116 1747 
z
" transform="scale(0.015625)"/>
       <path id="DejaVuSans-6d" d="M 3328 2828 
Q 3544 3216 3844 3400 
Q 4144 3584 4550 3584 
Q 5097 3584 5394 3201 
Q 5691 2819 5691 2113 
L 5691 0 
L 5113 0 
L 5113 2094 
Q 5113 2597 4934 2840 
Q 4756 3084 4391 3084 
Q 3944 3084 3684 2787 
Q 3425 2491 3425 1978 
L 3425 0 
L 2847 0 
L 2847 2094 
Q 2847 2600 2669 2842 
Q 2491 3084 2119 3084 
Q 1678 3084 1418 2786 
Q 1159 2488 1159 1978 
L 1159 0 
L 581 0 
L 581 3500 
L 1159 3500 
L 1159 2956 
Q 1356 3278 1631 3431 
Q 1906 3584 2284 3584 
Q 2666 3584 2933 3390 
Q 3200 3197 3328 2828 
z
" transform="scale(0.015625)"/>
       <path id="DejaVuSans-63" d="M 3122 3366 
L 3122 2828 
Q 2878 2963 2633 3030 
Q 2388 3097 2138 3097 
Q 1578 3097 1268 2742 
Q 959 2388 959 1747 
Q 959 1106 1268 751 
Q 1578 397 2138 397 
Q 2388 397 2633 464 
Q 2878 531 3122 666 
L 3122 134 
Q 2881 22 2623 -34 
Q 2366 -91 2075 -91 
Q 1284 -91 818 406 
Q 353 903 353 1747 
Q 353 2603 823 3093 
Q 1294 3584 2113 3584 
Q 2378 3584 2631 3529 
Q 2884 3475 3122 3366 
z
" transform="scale(0.015625)"/>
       <path id="DejaVuSans-7a" d="M 353 3500 
L 3084 3500 
L 3084 2975 
L 922 459 
L 3084 459 
L 3084 0 
L 275 0 
L 275 525 
L 2438 3041 
L 353 3041 
L 353 3500 
z
" transform="scale(0.015625)"/>
       <path id="DejaVuSans-29" d="M 513 4856 
L 1013 4856 
Q 1481 4119 1714 3412 
Q 1947 2706 1947 2009 
Q 1947 1309 1714 600 
Q 1481 -109 1013 -844 
L 513 -844 
Q 928 -128 1133 580 
Q 1338 1288 1338 2009 
Q 1338 2731 1133 3434 
Q 928 4138 513 4856 
z
" transform="scale(0.015625)"/>
      </defs>
      <use xlink:href="#DejaVuSans-50"/>
      <use xlink:href="#DejaVuSans-72" transform="translate(58.552734 0)"/>
      <use xlink:href="#DejaVuSans-6f" transform="translate(97.416016 0)"/>
      <use xlink:href="#DejaVuSans-67" transform="translate(158.597656 0)"/>
      <use xlink:href="#DejaVuSans-72" transform="translate(222.074219 0)"/>
      <use xlink:href="#DejaVuSans-65" transform="translate(260.9375 0)"/>
      <use xlink:href="#DejaVuSans-73" transform="translate(322.460938 0)"/>
      <use xlink:href="#DejaVuSans-73" transform="translate(374.560547 0)"/>
      <use xlink:href="#DejaVuSans-69" transform="translate(426.660156 0)"/>
      <use xlink:href="#DejaVuSans-76" transform="translate(454.443359 0)"/>
      <use xlink:href="#DejaVuSans-65" transform="translate(513.623047 0)"/>
      <use xlink:href="#DejaVuSans-20" transform="translate(575.146484 0)"/>
      <use xlink:href="#DejaVuSans-50" transform="translate(606.933594 0)"/>
      <use xlink:href="#DejaVuSans-61" transform="translate(662.736328 0)"/>
      <use xlink:href="#DejaVuSans-73" transform="translate(724.015625 0)"/>
      <use xlink:href="#DejaVuSans-73" transform="translate(776.115234 0)"/>
      <use xlink:href="#DejaVuSans-65" transform="translate(828.214844 0)"/>
      <use xlink:href="#DejaVuSans-73" transform="translate(889.738281 0)"/>
      <use xlink:href="#DejaVuSans-20" transform="translate(941.837891 0)"/>
      <use xlink:href="#DejaVuSans-28" transform="translate(973.625 0)"/>
      <use xlink:href="#DejaVuSans-70" transform="translate(1012.638672 0)"/>
      <use xlink:href="#DejaVuSans-65" transform="translate(1076.115234 0)"/>
      <use xlink:href="#DejaVuSans-72" transform="translate(1137.638672 0)"/>
      <use xlink:href="#DejaVuSans-20" transform="translate(1178.751953 0)"/>
      <use xlink:href="#DejaVuSans-6d" transform="translate(1210.539062 0)"/>
      <use xlink:href="#DejaVuSans-65" transform="translate(1307.951172 0)"/>
      <use xlink:href="#DejaVuSans-63" transform="translate(1369.474609 0)"/>
      <use xlink:href="#DejaVuSans-7a" transform="translate(1424.455078 0)"/>
      <use xlink:href="#DejaVuSans-29" transform="translate(1476.945312 0)"/>
     </g>
    </g>
   </g>
   <g id="matplotlib.axis_2">
    <g id="ytick_1">
     <g id="line2d_15">
      <path d="M 34.240625 437.698125 
L 705.170625 437.698125 
" clip-path="url(#p877687c659)" style="fill: none; stroke-dasharray: 2.96,1.28; stroke-dashoffset: 0; stroke: #b0b0b0; stroke-opacity: 0.35; stroke-width: 0.8"/>
     </g>
     <g id="line2d_16">
      <defs>
       <path id="mf5d1887ba9" d="M 0 0 
L -3.5 0 
" style="stroke: #000000; stroke-width: 0.8"/>
      </defs>
      <g>
       <use xlink:href="#mf5d1887ba9" x="34.240625" y="437.698125" style="stroke: #000000; stroke-width: 0.8"/>
      </g>
     </g>
     <g id="text_9">
      <!-- 0 -->
      <g transform="translate(20.878125 441.497344) scale(0.1 -0.1)">
       <use xlink:href="#DejaVuSans-30"/>
      </g>
     </g>
    </g>
    <g id="ytick_2">
     <g id="line2d_17">
      <path d="M 34.240625 371.764792 
L 705.170625 371.764792 
" clip-path="url(#p877687c659)" style="fill: none; stroke-dasharray: 2.96,1.28; stroke-dashoffset: 0; stroke: #b0b0b0; stroke-opacity: 0.35; stroke-width: 0.8"/>
     </g>
     <g id="line2d_18">
      <g>
       <use xlink:href="#mf5d1887ba9" x="34.240625" y="371.764792" style="stroke: #000000; stroke-width: 0.8"/>
      </g>
     </g>
     <g id="text_10">
      <!-- 1 -->
      <g transform="translate(20.878125 375.56401) scale(0.1 -0.1)">
       <use xlink:href="#DejaVuSans-31"/>
      </g>
     </g>
    </g>
    <g id="ytick_3">
     <g id="line2d_19">
      <path d="M 34.240625 305.831458 
L 705.170625 305.831458 
" clip-path="url(#p877687c659)" style="fill: none; stroke-dasharray: 2.96,1.28; stroke-dashoffset: 0; stroke: #b0b0b0; stroke-opacity: 0.35; stroke-width: 0.8"/>
     </g>
     <g id="line2d_20">
      <g>
       <use xlink:href="#mf5d1887ba9" x="34.240625" y="305.831458" style="stroke: #000000; stroke-width: 0.8"/>
      </g>
     </g>
     <g id="text_11">
      <!-- 2 -->
      <g transform="translate(20.878125 309.630677) scale(0.1 -0.1)">
       <use xlink:href="#DejaVuSans-32"/>
      </g>
     </g>
    </g>
    <g id="ytick_4">
     <g id="line2d_21">
      <path d="M 34.240625 239.898125 
L 705.170625 239.898125 
" clip-path="url(#p877687c659)" style="fill: none; stroke-dasharray: 2.96,1.28; stroke-dashoffset: 0; stroke: #b0b0b0; stroke-opacity: 0.35; stroke-width: 0.8"/>
     </g>
     <g id="line2d_22">
      <g>
       <use xlink:href="#mf5d1887ba9" x="34.240625" y="239.898125" style="stroke: #000000; stroke-width: 0.8"/>
      </g>
     </g>
     <g id="text_12">
      <!-- 3 -->
      <g transform="translate(20.878125 243.697344) scale(0.1 -0.1)">
       <defs>
        <path id="DejaVuSans-33" d="M 2597 2516 
Q 3050 2419 3304 2112 
Q 3559 1806 3559 1356 
Q 3559 666 3084 287 
Q 2609 -91 1734 -91 
Q 1441 -91 1130 -33 
Q 819 25 488 141 
L 488 750 
Q 750 597 1062 519 
Q 1375 441 1716 441 
Q 2309 441 2620 675 
Q 2931 909 2931 1356 
Q 2931 1769 2642 2001 
Q 2353 2234 1838 2234 
L 1294 2234 
L 1294 2753 
L 1863 2753 
Q 2328 2753 2575 2939 
Q 2822 3125 2822 3475 
Q 2822 3834 2567 4026 
Q 2313 4219 1838 4219 
Q 1578 4219 1281 4162 
Q 984 4106 628 3988 
L 628 4550 
Q 988 4650 1302 4700 
Q 1616 4750 1894 4750 
Q 2613 4750 3031 4423 
Q 3450 4097 3450 3541 
Q 3450 3153 3228 2886 
Q 3006 2619 2597 2516 
z
" transform="scale(0.015625)"/>
       </defs>
       <use xlink:href="#DejaVuSans-33"/>
      </g>
     </g>
    </g>
    <g id="ytick_5">
     <g id="line2d_23">
      <path d="M 34.240625 173.964792 
L 705.170625 173.964792 
" clip-path="url(#p877687c659)" style="fill: none; stroke-dasharray: 2.96,1.28; stroke-dashoffset: 0; stroke: #b0b0b0; stroke-opacity: 0.35; stroke-width: 0.8"/>
     </g>
     <g id="line2d_24">
      <g>
       <use xlink:href="#mf5d1887ba9" x="34.240625" y="173.964792" style="stroke: #000000; stroke-width: 0.8"/>
      </g>
     </g>
     <g id="text_13">
      <!-- 4 -->
      <g transform="translate(20.878125 177.76401) scale(0.1 -0.1)">
       <use xlink:href="#DejaVuSans-34"/>
      </g>
     </g>
    </g>
    <g id="ytick_6">
     <g id="line2d_25">
      <path d="M 34.240625 108.031458 
L 705.170625 108.031458 
" clip-path="url(#p877687c659)" style="fill: none; stroke-dasharray: 2.96,1.28; stroke-dashoffset: 0; stroke: #b0b0b0; stroke-opacity: 0.35; stroke-width: 0.8"/>
     </g>
     <g id="line2d_26">
      <g>
       <use xlink:href="#mf5d1887ba9" x="34.240625" y="108.031458" style="stroke: #000000; stroke-width: 0.8"/>
      </g>
     </g>
     <g id="text_14">
      <!-- 5 -->
      <g transform="translate(20.878125 111.830677) scale(0.1 -0.1)">
       <defs>
        <path id="DejaVuSans-35" d="M 691 4666 
L 3169 4666 
L 3169 4134 
L 1269 4134 
L 1269 2991 
Q 1406 3038 1543 3061 
Q 1681 3084 1819 3084 
Q 2600 3084 3056 2656 
Q 3513 2228 3513 1497 
Q 3513 744 3044 326 
Q 2575 -91 1722 -91 
Q 1428 -91 1123 -41 
Q 819 9 494 109 
L 494 744 
Q 775 591 1075 516 
Q 1375 441 1709 441 
Q 2250 441 2565 725 
Q 2881 1009 2881 1497 
Q 2881 1984 2565 2268 
Q 2250 2553 1709 2553 
Q 1456 2553 1204 2497 
Q 953 2441 691 2322 
L 691 4666 
z
" transform="scale(0.015625)"/>
       </defs>
       <use xlink:href="#DejaVuSans-35"/>
      </g>
     </g>
    </g>
    <g id="ytick_7">
     <g id="line2d_27">
      <path d="M 34.240625 42.098125 
L 705.170625 42.098125 
" clip-path="url(#p877687c659)" style="fill: none; stroke-dasharray: 2.96,1.28; stroke-dashoffset: 0; stroke: #b0b0b0; stroke-opacity: 0.35; stroke-width: 0.8"/>
     </g>
     <g id="line2d_28">
      <g>
       <use xlink:href="#mf5d1887ba9" x="34.240625" y="42.098125" style="stroke: #000000; stroke-width: 0.8"/>
      </g>
     </g>
     <g id="text_15">
      <!-- 6 -->
      <g transform="translate(20.878125 45.897344) scale(0.1 -0.1)">
       <use xlink:href="#DejaVuSans-36"/>
      </g>
     </g>
    </g>
    <g id="text_16">
     <!-- Progressive Carries (per mecz) -->
     <g transform="translate(14.798438 316.600469) rotate(-90) scale(0.1 -0.1)">
      <defs>
       <path id="DejaVuSans-43" d="M 4122 4306 
L 4122 3641 
Q 3803 3938 3442 4084 
Q 3081 4231 2675 4231 
Q 1875 4231 1450 3742 
Q 1025 3253 1025 2328 
Q 1025 1406 1450 917 
Q 1875 428 2675 428 
Q 3081 428 3442 575 
Q 3803 722 4122 1019 
L 4122 359 
Q 3791 134 3420 21 
Q 3050 -91 2638 -91 
Q 1578 -91 968 557 
Q 359 1206 359 2328 
Q 359 3453 968 4101 
Q 1578 4750 2638 4750 
Q 3056 4750 3426 4639 
Q 3797 4528 4122 4306 
z
" transform="scale(0.015625)"/>
      </defs>
      <use xlink:href="#DejaVuSans-50"/>
      <use xlink:href="#DejaVuSans-72" transform="translate(58.552734 0)"/>
      <use xlink:href="#DejaVuSans-6f" transform="translate(97.416016 0)"/>
      <use xlink:href="#DejaVuSans-67" transform="translate(158.597656 0)"/>
      <use xlink:href="#DejaVuSans-72" transform="translate(222.074219 0)"/>
      <use xlink:href="#DejaVuSans-65" transform="translate(260.9375 0)"/>
      <use xlink:href="#DejaVuSans-73" transform="translate(322.460938 0)"/>
      <use xlink:href="#DejaVuSans-73" transform="translate(374.560547 0)"/>
      <use xlink:href="#DejaVuSans-69" transform="translate(426.660156 0)"/>
      <use xlink:href="#DejaVuSans-76" transform="translate(454.443359 0)"/>
      <use xlink:href="#DejaVuSans-65" transform="translate(513.623047 0)"/>
      <use xlink:href="#DejaVuSans-20" transform="translate(575.146484 0)"/>
      <use xlink:href="#DejaVuSans-43" transform="translate(606.933594 0)"/>
      <use xlink:href="#DejaVuSans-61" transform="translate(676.757812 0)"/>
      <use xlink:href="#DejaVuSans-72" transform="translate(738.037109 0)"/>
      <use xlink:href="#DejaVuSans-72" transform="translate(777.400391 0)"/>
      <use xlink:href="#DejaVuSans-69" transform="translate(818.513672 0)"/>
      <use xlink:href="#DejaVuSans-65" transform="translate(846.296875 0)"/>
      <use xlink:href="#DejaVuSans-73" transform="translate(907.820312 0)"/>
      <use xlink:href="#DejaVuSans-20" transform="translate(959.919922 0)"/>
      <use xlink:href="#DejaVuSans-28" transform="translate(991.707031 0)"/>
      <use xlink:href="#DejaVuSans-70" transform="translate(1030.720703 0)"/>
      <use xlink:href="#DejaVuSans-65" transform="translate(1094.197266 0)"/>
      <use xlink:href="#DejaVuSans-72" transform="translate(1155.720703 0)"/>
      <use xlink:href="#DejaVuSans-20" transform="translate(1196.833984 0)"/>
      <use xlink:href="#DejaVuSans-6d" transform="translate(1228.621094 0)"/>
      <use xlink:href="#DejaVuSans-65" transform="translate(1326.033203 0)"/>
      <use xlink:href="#DejaVuSans-63" transform="translate(1387.556641 0)"/>
      <use xlink:href="#DejaVuSans-7a" transform="translate(1442.537109 0)"/>
      <use xlink:href="#DejaVuSans-29" transform="translate(1495.027344 0)"/>
     </g>
    </g>
   </g>
   <g id="patch_3">
    <path d="M 34.240625 457.478125 
L 34.240625 22.318125 
" style="fill: none; stroke: #000000; stroke-width: 0.8; stroke-linejoin: miter; stroke-linecap: square"/>
   </g>
   <g id="patch_4">
    <path d="M 705.170625 457.478125 
L 705.170625 22.318125 
" style="fill: none; stroke: #000000; stroke-width: 0.8; stroke-linejoin: miter; stroke-linecap: square"/>
   </g>
   <g id="patch_5">
    <path d="M 34.240625 457.478125 
L 705.170625 457.478125 
" style="fill: none; stroke: #000000; stroke-width: 0.8; stroke-linejoin: miter; stroke-linecap: square"/>
   </g>
   <g id="patch_6">
    <path d="M 34.240625 22.318125 
L 705.170625 22.318125 
" style="fill: none; stroke: #000000; stroke-width: 0.8; stroke-linejoin: miter; stroke-linecap: square"/>
   </g>
   <g id="text_17">
    <!-- PP vs PC (rozmiar punktu ~ xA) -->
    <g transform="translate(275.329375 16.318125) scale(0.12 -0.12)">
     <defs>
      <path id="DejaVuSans-75" d="M 544 1381 
L 544 3500 
L 1119 3500 
L 1119 1403 
Q 1119 906 1312 657 
Q 1506 409 1894 409 
Q 2359 409 2629 706 
Q 2900 1003 2900 1516 
L 2900 3500 
L 3475 3500 
L 3475 0 
L 2900 0 
L 2900 538 
Q 2691 219 2414 64 
Q 2138 -91 1772 -91 
Q 1169 -91 856 284 
Q 544 659 544 1381 
z
M 1991 3584 
L 1991 3584 
z
" transform="scale(0.015625)"/>
      <path id="DejaVuSans-6e" d="M 3513 2113 
L 3513 0 
L 2938 0 
L 2938 2094 
Q 2938 2591 2744 2837 
Q 2550 3084 2163 3084 
Q 1697 3084 1428 2787 
Q 1159 2491 1159 1978 
L 1159 0 
L 581 0 
L 581 3500 
L 1159 3500 
L 1159 2956 
Q 1366 3272 1645 3428 
Q 1925 3584 2291 3584 
Q 2894 3584 3203 3211 
Q 3513 2838 3513 2113 
z
" transform="scale(0.015625)"/>
      <path id="DejaVuSans-6b" d="M 581 4863 
L 1159 4863 
L 1159 1991 
L 2875 3500 
L 3609 3500 
L 1753 1863 
L 3688 0 
L 2938 0 
L 1159 1709 
L 1159 0 
L 581 0 
L 581 4863 
z
" transform="scale(0.015625)"/>
      <path id="DejaVuSans-74" d="M 1172 4494 
L 1172 3500 
L 2356 3500 
L 2356 3053 
L 1172 3053 
L 1172 1153 
Q 1172 725 1289 603 
Q 1406 481 1766 481 
L 2356 481 
L 2356 0 
L 1766 0 
Q 1100 0 847 248 
Q 594 497 594 1153 
L 594 3053 
L 172 3053 
L 172 3500 
L 594 3500 
L 594 4494 
L 1172 4494 
z
" transform="scale(0.015625)"/>
      <path id="DejaVuSans-7e" d="M 4684 2553 
L 4684 1997 
Q 4356 1750 4076 1644 
Q 3797 1538 3494 1538 
Q 3150 1538 2694 1722 
Q 2659 1734 2644 1741 
Q 2622 1750 2575 1766 
Q 2091 1959 1797 1959 
Q 1522 1959 1253 1839 
Q 984 1719 678 1459 
L 678 2016 
Q 1006 2263 1286 2370 
Q 1566 2478 1869 2478 
Q 2213 2478 2672 2291 
Q 2703 2278 2719 2272 
Q 2744 2263 2788 2247 
Q 3272 2053 3566 2053 
Q 3834 2053 4098 2172 
Q 4363 2291 4684 2553 
z
" transform="scale(0.015625)"/>
      <path id="DejaVuSans-78" d="M 3513 3500 
L 2247 1797 
L 3578 0 
L 2900 0 
L 1881 1375 
L 863 0 
L 184 0 
L 1544 1831 
L 300 3500 
L 978 3500 
L 1906 2253 
L 2834 3500 
L 3513 3500 
z
" transform="scale(0.015625)"/>
      <path id="DejaVuSans-41" d="M 2188 4044 
L 1331 1722 
L 3047 1722 
L 2188 4044 
z
M 1831 4666 
L 2547 4666 
L 4325 0 
L 3669 0 
L 3244 1197 
L 1141 1197 
L 716 0 
L 50 0 
L 1831 4666 
z
" transform="scale(0.015625)"/>
     </defs>
     <use xlink:href="#DejaVuSans-50"/>
     <use xlink:href="#DejaVuSans-50" transform="translate(60.302734 0)"/>
     <use xlink:href="#DejaVuSans-20" transform="translate(120.605469 0)"/>
     <use xlink:href="#DejaVuSans-76" transform="translate(152.392578 0)"/>
     <use xlink:href="#DejaVuSans-73" transform="translate(211.572266 0)"/>
     <use xlink:href="#DejaVuSans-20" transform="translate(263.671875 0)"/>
     <use xlink:href="#DejaVuSans-50" transform="translate(295.458984 0)"/>
     <use xlink:href="#DejaVuSans-43" transform="translate(355.761719 0)"/>
     <use xlink:href="#DejaVuSans-20" transform="translate(425.585938 0)"/>
     <use xlink:href="#DejaVuSans-28" transform="translate(457.373047 0)"/>
     <use xlink:href="#DejaVuSans-72" transform="translate(496.386719 0)"/>
     <use xlink:href="#DejaVuSans-6f" transform="translate(535.25 0)"/>
     <use xlink:href="#DejaVuSans-7a" transform="translate(596.431641 0)"/>
     <use xlink:href="#DejaVuSans-6d" transform="translate(648.921875 0)"/>
     <use xlink:href="#DejaVuSans-69" transform="translate(746.333984 0)"/>
     <use xlink:href="#DejaVuSans-61" transform="translate(774.117188 0)"/>
     <use xlink:href="#DejaVuSans-72" transform="translate(835.396484 0)"/>
     <use xlink:href="#DejaVuSans-20" transform="translate(876.509766 0)"/>
     <use xlink:href="#DejaVuSans-70" transform="translate(908.296875 0)"/>
     <use xlink:href="#DejaVuSans-75" transform="translate(971.773438 0)"/>
     <use xlink:href="#DejaVuSans-6e" transform="translate(1035.152344 0)"/>
     <use xlink:href="#DejaVuSans-6b" transform="translate(1098.53125 0)"/>
     <use xlink:href="#DejaVuSans-74" transform="translate(1156.441406 0)"/>
     <use xlink:href="#DejaVuSans-75" transform="translate(1195.650391 0)"/>
     <use xlink:href="#DejaVuSans-20" transform="translate(1259.029297 0)"/>
     <use xlink:href="#DejaVuSans-7e" transform="translate(1290.816406 0)"/>
     <use xlink:href="#DejaVuSans-20" transform="translate(1374.605469 0)"/>
     <use xlink:href="#DejaVuSans-78" transform="translate(1406.392578 0)"/>
     <use xlink:href="#DejaVuSans-41" transform="translate(1465.572266 0)"/>
     <use xlink:href="#DejaVuSans-29" transform="translate(1533.980469 0)"/>
    </g>
   </g>
  </g>
 </g>
 <defs>
  <clipPath id="p877687c659">
   <rect x="34.240625" y="22.318125" width="670.93" height="435.16"/>
  </clipPath>
 </defs>
</svg>
