<?xml version="1.0" encoding="utf-8" standalone="no"?>
<!DOCTYPE svg PUBLIC "-//W3C//DTD SVG 1.1//EN"
  "http://www.w3.org/Graphics/SVG/1.1/DTD/svg11.dtd">
<svg xmlns:xlink="http://www.w3.org/1999/xlink" width="526.518437pt" height="500.451563pt" viewBox="0 0 526.518437 500.451563" xmlns="http://www.w3.org/2000/svg" version="1.1">
 <metadata>
  <rdf:RDF xmlns:dc="http://purl.org/dc/elements/1.1/" xmlns:cc="http://creativecommons.org/ns#" xmlns:rdf="http://www.w3.org/1999/02/22-rdf-syntax-ns#">
   <cc:Work>
    <dc:type rdf:resource="http://purl.org/dc/dcmitype/StillImage"/>
    <dc:date>2025-08-14T20:10:55.797992</dc:date>
    <dc:format>image/svg+xml</dc:format>
    <dc:creator>
     <cc:Agent>
      <dc:title>Matplotlib v3.10.3, https://matplotlib.org/</dc:title>
     </cc:Agent>
    </dc:creator>
   </cc:Work>
  </rdf:RDF>
 </metadata>
 <defs>
  <style type="text/css">*{stroke-linejoin: round; stroke-linecap: butt}</style>
 </defs>
 <g id="figure_1">
  <g id="patch_1">
   <path d="M 0 500.451563 
L 526.518437 500.451563 
L 526.518437 0 
L 0 0 
z
" style="fill: #ffffff"/>
  </g>
  <g id="axes_1">
   <g id="patch_2">
    <path d="M 467.111562 265.544688 
C 467.111562 238.24351 461.733826 211.207801 451.286117 185.984802 
C 440.838409 160.761802 425.52391 137.842036 406.219062 118.537188 
C 386.914214 99.23234 363.994448 83.917841 338.771448 73.470133 
C 313.548449 63.022424 286.51274 57.644688 259.211562 57.644688 
C 231.910385 57.644688 204.874676 63.022424 179.651677 73.470133 
C 154.428677 83.917841 131.508911 99.23234 112.204063 118.537188 
C 92.899215 137.842036 77.584716 160.761802 67.137008 185.984802 
C 56.689299 211.207801 51.311562 238.24351 51.311562 265.544688 
C 51.311562 292.845865 56.689299 319.881574 67.137008 345.104573 
C 77.584716 370.327573 92.899215 393.247339 112.204063 412.552187 
C 131.508911 431.857035 154.428677 447.171534 179.651677 457.619242 
C 204.874676 468.066951 231.910385 473.444688 259.211562 473.444688 
C 286.51274 473.444688 313.548449 468.066951 338.771448 457.619242 
C 363.994448 447.171534 386.914214 431.857035 406.219062 412.552187 
C 425.52391 393.247339 440.838409 370.327573 451.286117 345.104573 
C 461.733826 319.881574 467.111562 292.845865 467.111562 265.544688 
M 259.211562 265.544688 
C 259.211562 265.544688 259.211562 265.544688 259.211562 265.544688 
C 259.211562 265.544688 259.211562 265.544688 259.211562 265.544688 
C 259.211562 265.544688 259.211562 265.544688 259.211562 265.544688 
C 259.211562 265.544688 259.211562 265.544688 259.211562 265.544688 
C 259.211562 265.544688 259.211562 265.544688 259.211562 265.544688 
C 259.211562 265.544688 259.211562 265.544688 259.211562 265.544688 
C 259.211562 265.544688 259.211562 265.544688 259.211562 265.544688 
C 259.211562 265.544688 259.211562 265.544688 259.211562 265.544688 
C 259.211562 265.544688 259.211562 265.544688 259.211562 265.544688 
C 259.211562 265.544688 259.211562 265.544688 259.211562 265.544688 
C 259.211562 265.544688 259.211562 265.544688 259.211562 265.544688 
C 259.211562 265.544688 259.211562 265.544688 259.211562 265.544688 
C 259.211562 265.544688 259.211562 265.544688 259.211562 265.544688 
C 259.211562 265.544688 259.211562 265.544688 259.211562 265.544688 
C 259.211562 265.544688 259.211562 265.544688 259.211562 265.544688 
C 259.211562 265.544688 259.211562 265.544688 259.211562 265.544688 
z
" style="fill: #ffffff"/>
   </g>
   <g id="patch_3">
    <path d="M 259.211562 252.850864 
L 311.673229 213.083021 
L 265.60001 265.544688 
L 392.854744 399.187869 
L 259.211562 280.305553 
L 252.050893 272.705357 
L 251.653582 265.544688 
L 258.454031 264.787156 
z
" clip-path="url(#p5a656063c7)" style="fill: #1f77b4; opacity: 0.15"/>
   </g>
   <g id="matplotlib.axis_1">
    <g id="xtick_1">
     <g id="line2d_1">
      <path d="M 259.211562 265.544688 
L 259.211562 57.644688 
" clip-path="url(#p5a656063c7)" style="fill: none; stroke-dasharray: 0.7,1.155; stroke-dashoffset: 0; stroke: #e5e5e5; stroke-width: 0.7"/>
     </g>
     <g id="text_1">
      <!-- KeyP p90 -->
      <g transform="translate(231.365 46.955938) scale(0.12 -0.12)">
       <defs>
        <path id="DejaVuSans-4b" d="M 628 4666 
L 1259 4666 
L 1259 2694 
L 3353 4666 
L 4166 4666 
L 1850 2491 
L 4331 0 
L 3500 0 
L 1259 2247 
L 1259 0 
L 628 0 
L 628 4666 
z
" transform="scale(0.015625)"/>
        <path id="DejaVuSans-65" d="M 3597 1894 
L 3597 1613 
L 953 1613 
Q 991 1019 1311 708 
Q 1631 397 2203 397 
Q 2534 397 2845 478 
Q 3156 559 3463 722 
L 3463 178 
Q 3153 47 2828 -22 
Q 2503 -91 2169 -91 
Q 1331 -91 842 396 
Q 353 884 353 1716 
Q 353 2575 817 3079 
Q 1281 3584 2069 3584 
Q 2775 3584 3186 3129 
Q 3597 2675 3597 1894 
z
M 3022 2063 
Q 3016 2534 2758 2815 
Q 2500 3097 2075 3097 
Q 1594 3097 1305 2825 
Q 1016 2553 972 2059 
L 3022 2063 
z
" transform="scale(0.015625)"/>
        <path id="DejaVuSans-79" d="M 2059 -325 
Q 1816 -950 1584 -1140 
Q 1353 -1331 966 -1331 
L 506 -1331 
L 506 -850 
L 844 -850 
Q 1081 -850 1212 -737 
Q 1344 -625 1503 -206 
L 1606 56 
L 191 3500 
L 800 3500 
L 1894 763 
L 2988 3500 
L 3597 3500 
L 2059 -325 
z
" transform="scale(0.015625)"/>
        <path id="DejaVuSans-50" d="M 1259 4147 
L 1259 2394 
L 2053 2394 
Q 2494 2394 2734 2622 
Q 2975 2850 2975 3272 
Q 2975 3691 2734 3919 
Q 2494 4147 2053 4147 
L 1259 4147 
z
M 628 4666 
L 2053 4666 
Q 2838 4666 3239 4311 
Q 3641 3956 3641 3272 
Q 3641 2581 3239 2228 
Q 2838 1875 2053 1875 
L 1259 1875 
L 1259 0 
L 628 0 
L 628 4666 
z
" transform="scale(0.015625)"/>
        <path id="DejaVuSans-20" transform="scale(0.015625)"/>
        <path id="DejaVuSans-70" d="M 1159 525 
L 1159 -1331 
L 581 -1331 
L 581 3500 
L 1159 3500 
L 1159 2969 
Q 1341 3281 1617 3432 
Q 1894 3584 2278 3584 
Q 2916 3584 3314 3078 
Q 3713 2572 3713 1747 
Q 3713 922 3314 415 
Q 2916 -91 2278 -91 
Q 1894 -91 1617 61 
Q 1341 213 1159 525 
z
M 3116 1747 
Q 3116 2381 2855 2742 
Q 2594 3103 2138 3103 
Q 1681 3103 1420 2742 
Q 1159 2381 1159 1747 
Q 1159 1113 1420 752 
Q 1681 391 2138 391 
Q 2594 391 2855 752 
Q 3116 1113 3116 1747 
z
" transform="scale(0.015625)"/>
        <path id="DejaVuSans-39" d="M 703 97 
L 703 672 
Q 941 559 1184 500 
Q 1428 441 1663 441 
Q 2288 441 2617 861 
Q 2947 1281 2994 2138 
Q 2813 1869 2534 1725 
Q 2256 1581 1919 1581 
Q 1219 1581 811 2004 
Q 403 2428 403 3163 
Q 403 3881 828 4315 
Q 1253 4750 1959 4750 
Q 2769 4750 3195 4129 
Q 3622 3509 3622 2328 
Q 3622 1225 3098 567 
Q 2575 -91 1691 -91 
Q 1453 -91 1209 -44 
Q 966 3 703 97 
z
M 1959 2075 
Q 2384 2075 2632 2365 
Q 2881 2656 2881 3163 
Q 2881 3666 2632 3958 
Q 2384 4250 1959 4250 
Q 1534 4250 1286 3958 
Q 1038 3666 1038 3163 
Q 1038 2656 1286 2365 
Q 1534 2075 1959 2075 
z
" transform="scale(0.015625)"/>
        <path id="DejaVuSans-30" d="M 2034 4250 
Q 1547 4250 1301 3770 
Q 1056 3291 1056 2328 
Q 1056 1369 1301 889 
Q 1547 409 2034 409 
Q 2525 409 2770 889 
Q 3016 1369 3016 2328 
Q 3016 3291 2770 3770 
Q 2525 4250 2034 4250 
z
M 2034 4750 
Q 2819 4750 3233 4129 
Q 3647 3509 3647 2328 
Q 3647 1150 3233 529 
Q 2819 -91 2034 -91 
Q 1250 -91 836 529 
Q 422 1150 422 2328 
Q 422 3509 836 4129 
Q 1250 4750 2034 4750 
z
" transform="scale(0.015625)"/>
       </defs>
       <use xlink:href="#DejaVuSans-4b"/>
       <use xlink:href="#DejaVuSans-65" transform="translate(60.576172 0)"/>
       <use xlink:href="#DejaVuSans-79" transform="translate(122.099609 0)"/>
       <use xlink:href="#DejaVuSans-50" transform="translate(181.279297 0)"/>
       <use xlink:href="#DejaVuSans-20" transform="translate(241.582031 0)"/>
       <use xlink:href="#DejaVuSans-70" transform="translate(273.369141 0)"/>
       <use xlink:href="#DejaVuSans-39" transform="translate(336.845703 0)"/>
       <use xlink:href="#DejaVuSans-30" transform="translate(400.46875 0)"/>
      </g>
     </g>
    </g>
    <g id="xtick_2">
     <g id="line2d_2">
      <path d="M 259.211562 265.544688 
L 406.219062 118.537188 
" clip-path="url(#p5a656063c7)" style="fill: none; stroke-dasharray: 0.7,1.155; stroke-dashoffset: 0; stroke: #e5e5e5; stroke-width: 0.7"/>
     </g>
     <g id="text_2">
      <!-- ProgP p90 -->
      <g transform="translate(385.82512 111.948943) scale(0.12 -0.12)">
       <defs>
        <path id="DejaVuSans-72" d="M 2631 2963 
Q 2534 3019 2420 3045 
Q 2306 3072 2169 3072 
Q 1681 3072 1420 2755 
Q 1159 2438 1159 1844 
L 1159 0 
L 581 0 
L 581 3500 
L 1159 3500 
L 1159 2956 
Q 1341 3275 1631 3429 
Q 1922 3584 2338 3584 
Q 2397 3584 2469 3576 
Q 2541 3569 2628 3553 
L 2631 2963 
z
" transform="scale(0.015625)"/>
        <path id="DejaVuSans-6f" d="M 1959 3097 
Q 1497 3097 1228 2736 
Q 959 2375 959 1747 
Q 959 1119 1226 758 
Q 1494 397 1959 397 
Q 2419 397 2687 759 
Q 2956 1122 2956 1747 
Q 2956 2369 2687 2733 
Q 2419 3097 1959 3097 
z
M 1959 3584 
Q 2709 3584 3137 3096 
Q 3566 2609 3566 1747 
Q 3566 888 3137 398 
Q 2709 -91 1959 -91 
Q 1206 -91 779 398 
Q 353 888 353 1747 
Q 353 2609 779 3096 
Q 1206 3584 1959 3584 
z
" transform="scale(0.015625)"/>
        <path id="DejaVuSans-67" d="M 2906 1791 
Q 2906 2416 2648 2759 
Q 2391 3103 1925 3103 
Q 1463 3103 1205 2759 
Q 947 2416 947 1791 
Q 947 1169 1205 825 
Q 1463 481 1925 481 
Q 2391 481 2648 825 
Q 2906 1169 2906 1791 
z
M 3481 434 
Q 3481 -459 3084 -895 
Q 2688 -1331 1869 -1331 
Q 1566 -1331 1297 -1286 
Q 1028 -1241 775 -1147 
L 775 -588 
Q 1028 -725 1275 -790 
Q 1522 -856 1778 -856 
Q 2344 -856 2625 -561 
Q 2906 -266 2906 331 
L 2906 616 
Q 2728 306 2450 153 
Q 2172 0 1784 0 
Q 1141 0 747 490 
Q 353 981 353 1791 
Q 353 2603 747 3093 
Q 1141 3584 1784 3584 
Q 2172 3584 2450 3431 
Q 2728 3278 2906 2969 
L 2906 3500 
L 3481 3500 
L 3481 434 
z
" transform="scale(0.015625)"/>
       </defs>
       <use xlink:href="#DejaVuSans-50"/>
       <use xlink:href="#DejaVuSans-72" transform="translate(58.552734 0)"/>
       <use xlink:href="#DejaVuSans-6f" transform="translate(97.416016 0)"/>
       <use xlink:href="#DejaVuSans-67" transform="translate(158.597656 0)"/>
       <use xlink:href="#DejaVuSans-50" transform="translate(222.074219 0)"/>
       <use xlink:href="#DejaVuSans-20" transform="translate(282.376953 0)"/>
       <use xlink:href="#DejaVuSans-70" transform="translate(314.164062 0)"/>
       <use xlink:href="#DejaVuSans-39" transform="translate(377.640625 0)"/>
       <use xlink:href="#DejaVuSans-30" transform="translate(441.263672 0)"/>
      </g>
     </g>
    </g>
    <g id="xtick_3">
     <g id="line2d_3">
      <path d="M 259.211562 265.544688 
L 467.111562 265.544688 
" clip-path="url(#p5a656063c7)" style="fill: none; stroke-dasharray: 0.7,1.155; stroke-dashoffset: 0; stroke: #e5e5e5; stroke-width: 0.7"/>
     </g>
     <g id="text_3">
      <!-- Dribbles p90 -->
      <g transform="translate(442.904688 268.855938) scale(0.12 -0.12)">
       <defs>
        <path id="DejaVuSans-44" d="M 1259 4147 
L 1259 519 
L 2022 519 
Q 2988 519 3436 956 
Q 3884 1394 3884 2338 
Q 3884 3275 3436 3711 
Q 2988 4147 2022 4147 
L 1259 4147 
z
M 628 4666 
L 1925 4666 
Q 3281 4666 3915 4102 
Q 4550 3538 4550 2338 
Q 4550 1131 3912 565 
Q 3275 0 1925 0 
L 628 0 
L 628 4666 
z
" transform="scale(0.015625)"/>
        <path id="DejaVuSans-69" d="M 603 3500 
L 1178 3500 
L 1178 0 
L 603 0 
L 603 3500 
z
M 603 4863 
L 1178 4863 
L 1178 4134 
L 603 4134 
L 603 4863 
z
" transform="scale(0.015625)"/>
        <path id="DejaVuSans-62" d="M 3116 1747 
Q 3116 2381 2855 2742 
Q 2594 3103 2138 3103 
Q 1681 3103 1420 2742 
Q 1159 2381 1159 1747 
Q 1159 1113 1420 752 
Q 1681 391 2138 391 
Q 2594 391 2855 752 
Q 3116 1113 3116 1747 
z
M 1159 2969 
Q 1341 3281 1617 3432 
Q 1894 3584 2278 3584 
Q 2916 3584 3314 3078 
Q 3713 2572 3713 1747 
Q 3713 922 3314 415 
Q 2916 -91 2278 -91 
Q 1894 -91 1617 61 
Q 1341 213 1159 525 
L 1159 0 
L 581 0 
L 581 4863 
L 1159 4863 
L 1159 2969 
z
" transform="scale(0.015625)"/>
        <path id="DejaVuSans-6c" d="M 603 4863 
L 1178 4863 
L 1178 0 
L 603 0 
L 603 4863 
z
" transform="scale(0.015625)"/>
        <path id="DejaVuSans-73" d="M 2834 3397 
L 2834 2853 
Q 2591 2978 2328 3040 
Q 2066 3103 1784 3103 
Q 1356 3103 1142 2972 
Q 928 2841 928 2578 
Q 928 2378 1081 2264 
Q 1234 2150 1697 2047 
L 1894 2003 
Q 2506 1872 2764 1633 
Q 3022 1394 3022 966 
Q 3022 478 2636 193 
Q 2250 -91 1575 -91 
Q 1294 -91 989 -36 
Q 684 19 347 128 
L 347 722 
Q 666 556 975 473 
Q 1284 391 1588 391 
Q 1994 391 2212 530 
Q 2431 669 2431 922 
Q 2431 1156 2273 1281 
Q 2116 1406 1581 1522 
L 1381 1569 
Q 847 1681 609 1914 
Q 372 2147 372 2553 
Q 372 3047 722 3315 
Q 1072 3584 1716 3584 
Q 2034 3584 2315 3537 
Q 2597 3491 2834 3397 
z
" transform="scale(0.015625)"/>
       </defs>
       <use xlink:href="#DejaVuSans-44"/>
       <use xlink:href="#DejaVuSans-72" transform="translate(77.001953 0)"/>
       <use xlink:href="#DejaVuSans-69" transform="translate(118.115234 0)"/>
       <use xlink:href="#DejaVuSans-62" transform="translate(145.898438 0)"/>
       <use xlink:href="#DejaVuSans-62" transform="translate(209.375 0)"/>
       <use xlink:href="#DejaVuSans-6c" transform="translate(272.851562 0)"/>
       <use xlink:href="#DejaVuSans-65" transform="translate(300.634766 0)"/>
       <use xlink:href="#DejaVuSans-73" transform="translate(362.158203 0)"/>
       <use xlink:href="#DejaVuSans-20" transform="translate(414.257812 0)"/>
       <use xlink:href="#DejaVuSans-70" transform="translate(446.044922 0)"/>
       <use xlink:href="#DejaVuSans-39" transform="translate(509.521484 0)"/>
       <use xlink:href="#DejaVuSans-30" transform="translate(573.144531 0)"/>
      </g>
     </g>
    </g>
    <g id="xtick_4">
     <g id="line2d_4">
      <path d="M 259.211562 265.544688 
L 406.219062 412.552187 
" clip-path="url(#p5a656063c7)" style="fill: none; stroke-dasharray: 0.7,1.155; stroke-dashoffset: 0; stroke: #e5e5e5; stroke-width: 0.7"/>
     </g>
     <g id="text_4">
      <!-- Pressures p90 -->
      <g transform="translate(374.028557 425.762932) scale(0.12 -0.12)">
       <defs>
        <path id="DejaVuSans-75" d="M 544 1381 
L 544 3500 
L 1119 3500 
L 1119 1403 
Q 1119 906 1312 657 
Q 1506 409 1894 409 
Q 2359 409 2629 706 
Q 2900 1003 2900 1516 
L 2900 3500 
L 3475 3500 
L 3475 0 
L 2900 0 
L 2900 538 
Q 2691 219 2414 64 
Q 2138 -91 1772 -91 
Q 1169 -91 856 284 
Q 544 659 544 1381 
z
M 1991 3584 
L 1991 3584 
z
" transform="scale(0.015625)"/>
       </defs>
       <use xlink:href="#DejaVuSans-50"/>
       <use xlink:href="#DejaVuSans-72" transform="translate(58.552734 0)"/>
       <use xlink:href="#DejaVuSans-65" transform="translate(97.416016 0)"/>
       <use xlink:href="#DejaVuSans-73" transform="translate(158.939453 0)"/>
       <use xlink:href="#DejaVuSans-73" transform="translate(211.039062 0)"/>
       <use xlink:href="#DejaVuSans-75" transform="translate(263.138672 0)"/>
       <use xlink:href="#DejaVuSans-72" transform="translate(326.517578 0)"/>
       <use xlink:href="#DejaVuSans-65" transform="translate(365.380859 0)"/>
       <use xlink:href="#DejaVuSans-73" transform="translate(426.904297 0)"/>
       <use xlink:href="#DejaVuSans-20" transform="translate(479.003906 0)"/>
       <use xlink:href="#DejaVuSans-70" transform="translate(510.791016 0)"/>
       <use xlink:href="#DejaVuSans-39" transform="translate(574.267578 0)"/>
       <use xlink:href="#DejaVuSans-30" transform="translate(637.890625 0)"/>
      </g>
     </g>
    </g>
    <g id="xtick_5">
     <g id="line2d_5">
      <path d="M 259.211562 265.544688 
L 259.211562 473.444688 
" clip-path="url(#p5a656063c7)" style="fill: none; stroke-dasharray: 0.7,1.155; stroke-dashoffset: 0; stroke: #e5e5e5; stroke-width: 0.7"/>
     </g>
     <g id="text_5">
      <!-- Tackles p90 -->
      <g transform="translate(224.25125 490.755938) scale(0.12 -0.12)">
       <defs>
        <path id="DejaVuSans-54" d="M -19 4666 
L 3928 4666 
L 3928 4134 
L 2272 4134 
L 2272 0 
L 1638 0 
L 1638 4134 
L -19 4134 
L -19 4666 
z
" transform="scale(0.015625)"/>
        <path id="DejaVuSans-61" d="M 2194 1759 
Q 1497 1759 1228 1600 
Q 959 1441 959 1056 
Q 959 750 1161 570 
Q 1363 391 1709 391 
Q 2188 391 2477 730 
Q 2766 1069 2766 1631 
L 2766 1759 
L 2194 1759 
z
M 3341 1997 
L 3341 0 
L 2766 0 
L 2766 531 
Q 2569 213 2275 61 
Q 1981 -91 1556 -91 
Q 1019 -91 701 211 
Q 384 513 384 1019 
Q 384 1609 779 1909 
Q 1175 2209 1959 2209 
L 2766 2209 
L 2766 2266 
Q 2766 2663 2505 2880 
Q 2244 3097 1772 3097 
Q 1472 3097 1187 3025 
Q 903 2953 641 2809 
L 641 3341 
Q 956 3463 1253 3523 
Q 1550 3584 1831 3584 
Q 2591 3584 2966 3190 
Q 3341 2797 3341 1997 
z
" transform="scale(0.015625)"/>
        <path id="DejaVuSans-63" d="M 3122 3366 
L 3122 2828 
Q 2878 2963 2633 3030 
Q 2388 3097 2138 3097 
Q 1578 3097 1268 2742 
Q 959 2388 959 1747 
Q 959 1106 1268 751 
Q 1578 397 2138 397 
Q 2388 397 2633 464 
Q 2878 531 3122 666 
L 3122 134 
Q 2881 22 2623 -34 
Q 2366 -91 2075 -91 
Q 1284 -91 818 406 
Q 353 903 353 1747 
Q 353 2603 823 3093 
Q 1294 3584 2113 3584 
Q 2378 3584 2631 3529 
Q 2884 3475 3122 3366 
z
" transform="scale(0.015625)"/>
        <path id="DejaVuSans-6b" d="M 581 4863 
L 1159 4863 
L 1159 1991 
L 2875 3500 
L 3609 3500 
L 1753 1863 
L 3688 0 
L 2938 0 
L 1159 1709 
L 1159 0 
L 581 0 
L 581 4863 
z
" transform="scale(0.015625)"/>
       </defs>
       <use xlink:href="#DejaVuSans-54"/>
       <use xlink:href="#DejaVuSans-61" transform="translate(44.583984 0)"/>
       <use xlink:href="#DejaVuSans-63" transform="translate(105.863281 0)"/>
       <use xlink:href="#DejaVuSans-6b" transform="translate(160.84375 0)"/>
       <use xlink:href="#DejaVuSans-6c" transform="translate(218.753906 0)"/>
       <use xlink:href="#DejaVuSans-65" transform="translate(246.537109 0)"/>
       <use xlink:href="#DejaVuSans-73" transform="translate(308.060547 0)"/>
       <use xlink:href="#DejaVuSans-20" transform="translate(360.160156 0)"/>
       <use xlink:href="#DejaVuSans-70" transform="translate(391.947266 0)"/>
       <use xlink:href="#DejaVuSans-39" transform="translate(455.423828 0)"/>
       <use xlink:href="#DejaVuSans-30" transform="translate(519.046875 0)"/>
      </g>
     </g>
    </g>
    <g id="xtick_6">
     <g id="line2d_6">
      <path d="M 259.211562 265.544688 
L 112.204063 412.552187 
" clip-path="url(#p5a656063c7)" style="fill: none; stroke-dasharray: 0.7,1.155; stroke-dashoffset: 0; stroke: #e5e5e5; stroke-width: 0.7"/>
     </g>
     <g id="text_6">
      <!-- Interceptions p90 -->
      <g transform="translate(49.587068 425.762932) scale(0.12 -0.12)">
       <defs>
        <path id="DejaVuSans-49" d="M 628 4666 
L 1259 4666 
L 1259 0 
L 628 0 
L 628 4666 
z
" transform="scale(0.015625)"/>
        <path id="DejaVuSans-6e" d="M 3513 2113 
L 3513 0 
L 2938 0 
L 2938 2094 
Q 2938 2591 2744 2837 
Q 2550 3084 2163 3084 
Q 1697 3084 1428 2787 
Q 1159 2491 1159 1978 
L 1159 0 
L 581 0 
L 581 3500 
L 1159 3500 
L 1159 2956 
Q 1366 3272 1645 3428 
Q 1925 3584 2291 3584 
Q 2894 3584 3203 3211 
Q 3513 2838 3513 2113 
z
" transform="scale(0.015625)"/>
        <path id="DejaVuSans-74" d="M 1172 4494 
L 1172 3500 
L 2356 3500 
L 2356 3053 
L 1172 3053 
L 1172 1153 
Q 1172 725 1289 603 
Q 1406 481 1766 481 
L 2356 481 
L 2356 0 
L 1766 0 
Q 1100 0 847 248 
Q 594 497 594 1153 
L 594 3053 
L 172 3053 
L 172 3500 
L 594 3500 
L 594 4494 
L 1172 4494 
z
" transform="scale(0.015625)"/>
       </defs>
       <use xlink:href="#DejaVuSans-49"/>
       <use xlink:href="#DejaVuSans-6e" transform="translate(29.492188 0)"/>
       <use xlink:href="#DejaVuSans-74" transform="translate(92.871094 0)"/>
       <use xlink:href="#DejaVuSans-65" transform="translate(132.080078 0)"/>
       <use xlink:href="#DejaVuSans-72" transform="translate(193.603516 0)"/>
       <use xlink:href="#DejaVuSans-63" transform="translate(232.466797 0)"/>
       <use xlink:href="#DejaVuSans-65" transform="translate(287.447266 0)"/>
       <use xlink:href="#DejaVuSans-70" transform="translate(348.970703 0)"/>
       <use xlink:href="#DejaVuSans-74" transform="translate(412.447266 0)"/>
       <use xlink:href="#DejaVuSans-69" transform="translate(451.65625 0)"/>
       <use xlink:href="#DejaVuSans-6f" transform="translate(479.439453 0)"/>
       <use xlink:href="#DejaVuSans-6e" transform="translate(540.621094 0)"/>
       <use xlink:href="#DejaVuSans-73" transform="translate(604 0)"/>
       <use xlink:href="#DejaVuSans-20" transform="translate(656.099609 0)"/>
       <use xlink:href="#DejaVuSans-70" transform="translate(687.886719 0)"/>
       <use xlink:href="#DejaVuSans-39" transform="translate(751.363281 0)"/>
       <use xlink:href="#DejaVuSans-30" transform="translate(814.986328 0)"/>
      </g>
     </g>
    </g>
    <g id="xtick_7">
     <g id="line2d_7">
      <path d="M 259.211562 265.544688 
L 51.311562 265.544688 
" clip-path="url(#p5a656063c7)" style="fill: none; stroke-dasharray: 0.7,1.155; stroke-dashoffset: 0; stroke: #e5e5e5; stroke-width: 0.7"/>
     </g>
     <g id="text_7">
      <!-- Shots p90 -->
      <g transform="translate(7.2 268.855938) scale(0.12 -0.12)">
       <defs>
        <path id="DejaVuSans-53" d="M 3425 4513 
L 3425 3897 
Q 3066 4069 2747 4153 
Q 2428 4238 2131 4238 
Q 1616 4238 1336 4038 
Q 1056 3838 1056 3469 
Q 1056 3159 1242 3001 
Q 1428 2844 1947 2747 
L 2328 2669 
Q 3034 2534 3370 2195 
Q 3706 1856 3706 1288 
Q 3706 609 3251 259 
Q 2797 -91 1919 -91 
Q 1588 -91 1214 -16 
Q 841 59 441 206 
L 441 856 
Q 825 641 1194 531 
Q 1563 422 1919 422 
Q 2459 422 2753 634 
Q 3047 847 3047 1241 
Q 3047 1584 2836 1778 
Q 2625 1972 2144 2069 
L 1759 2144 
Q 1053 2284 737 2584 
Q 422 2884 422 3419 
Q 422 4038 858 4394 
Q 1294 4750 2059 4750 
Q 2388 4750 2728 4690 
Q 3069 4631 3425 4513 
z
" transform="scale(0.015625)"/>
        <path id="DejaVuSans-68" d="M 3513 2113 
L 3513 0 
L 2938 0 
L 2938 2094 
Q 2938 2591 2744 2837 
Q 2550 3084 2163 3084 
Q 1697 3084 1428 2787 
Q 1159 2491 1159 1978 
L 1159 0 
L 581 0 
L 581 4863 
L 1159 4863 
L 1159 2956 
Q 1366 3272 1645 3428 
Q 1925 3584 2291 3584 
Q 2894 3584 3203 3211 
Q 3513 2838 3513 2113 
z
" transform="scale(0.015625)"/>
       </defs>
       <use xlink:href="#DejaVuSans-53"/>
       <use xlink:href="#DejaVuSans-68" transform="translate(63.476562 0)"/>
       <use xlink:href="#DejaVuSans-6f" transform="translate(126.855469 0)"/>
       <use xlink:href="#DejaVuSans-74" transform="translate(188.037109 0)"/>
       <use xlink:href="#DejaVuSans-73" transform="translate(227.246094 0)"/>
       <use xlink:href="#DejaVuSans-20" transform="translate(279.345703 0)"/>
       <use xlink:href="#DejaVuSans-70" transform="translate(311.132812 0)"/>
       <use xlink:href="#DejaVuSans-39" transform="translate(374.609375 0)"/>
       <use xlink:href="#DejaVuSans-30" transform="translate(438.232422 0)"/>
      </g>
     </g>
    </g>
    <g id="xtick_8">
     <g id="line2d_8">
      <path d="M 259.211562 265.544688 
L 112.204063 118.537188 
" clip-path="url(#p5a656063c7)" style="fill: none; stroke-dasharray: 0.7,1.155; stroke-dashoffset: 0; stroke: #e5e5e5; stroke-width: 0.7"/>
     </g>
     <g id="text_8">
      <!-- xG p90 -->
      <g transform="translate(80.753318 111.948943) scale(0.12 -0.12)">
       <defs>
        <path id="DejaVuSans-78" d="M 3513 3500 
L 2247 1797 
L 3578 0 
L 2900 0 
L 1881 1375 
L 863 0 
L 184 0 
L 1544 1831 
L 300 3500 
L 978 3500 
L 1906 2253 
L 2834 3500 
L 3513 3500 
z
" transform="scale(0.015625)"/>
        <path id="DejaVuSans-47" d="M 3809 666 
L 3809 1919 
L 2778 1919 
L 2778 2438 
L 4434 2438 
L 4434 434 
Q 4069 175 3628 42 
Q 3188 -91 2688 -91 
Q 1594 -91 976 548 
Q 359 1188 359 2328 
Q 359 3472 976 4111 
Q 1594 4750 2688 4750 
Q 3144 4750 3555 4637 
Q 3966 4525 4313 4306 
L 4313 3634 
Q 3963 3931 3569 4081 
Q 3175 4231 2741 4231 
Q 1884 4231 1454 3753 
Q 1025 3275 1025 2328 
Q 1025 1384 1454 906 
Q 1884 428 2741 428 
Q 3075 428 3337 486 
Q 3600 544 3809 666 
z
" transform="scale(0.015625)"/>
       </defs>
       <use xlink:href="#DejaVuSans-78"/>
       <use xlink:href="#DejaVuSans-47" transform="translate(59.179688 0)"/>
       <use xlink:href="#DejaVuSans-20" transform="translate(136.669922 0)"/>
       <use xlink:href="#DejaVuSans-70" transform="translate(168.457031 0)"/>
       <use xlink:href="#DejaVuSans-39" transform="translate(231.933594 0)"/>
       <use xlink:href="#DejaVuSans-30" transform="translate(295.556641 0)"/>
      </g>
     </g>
    </g>
   </g>
   <g id="matplotlib.axis_2">
    <g id="ytick_1">
     <g id="line2d_9">
      <path d="M 259.211562 225.637249 
C 264.452159 225.637249 269.641798 226.669532 274.483478 228.675022 
C 279.325158 230.680511 283.724721 233.620206 287.430383 237.325867 
C 291.136044 241.031529 294.075739 245.431092 296.081228 250.272772 
C 298.086718 255.114452 299.119001 260.304091 299.119001 265.544688 
C 299.119001 270.785284 298.086718 275.974923 296.081228 280.816603 
C 294.075739 285.658283 291.136044 290.057846 287.430383 293.763508 
C 283.724721 297.469169 279.325158 300.408864 274.483478 302.414353 
C 269.641798 304.419843 264.452159 305.452126 259.211562 305.452126 
C 253.970966 305.452126 248.781327 304.419843 243.939647 302.414353 
C 239.097967 300.408864 234.698404 297.469169 230.992742 293.763508 
C 227.287081 290.057846 224.347386 285.658283 222.341897 280.816603 
C 220.336407 275.974923 219.304124 270.785284 219.304124 265.544688 
C 219.304124 260.304091 220.336407 255.114452 222.341897 250.272772 
C 224.347386 245.431092 227.287081 241.031529 230.992742 237.325867 
C 234.698404 233.620206 239.097967 230.680511 243.939647 228.675022 
C 248.781327 226.669532 253.970966 225.637249 259.211562 225.637249 
" clip-path="url(#p5a656063c7)" style="fill: none; stroke-dasharray: 0.7,1.155; stroke-dashoffset: 0; stroke: #e5e5e5; stroke-width: 0.7"/>
     </g>
     <g id="text_9">
      <!-- 5 -->
      <g transform="translate(259.211562 223.141624) scale(0.12 -0.12)">
       <defs>
        <path id="DejaVuSans-35" d="M 691 4666 
L 3169 4666 
L 3169 4134 
L 1269 4134 
L 1269 2991 
Q 1406 3038 1543 3061 
Q 1681 3084 1819 3084 
Q 2600 3084 3056 2656 
Q 3513 2228 3513 1497 
Q 3513 744 3044 326 
Q 2575 -91 1722 -91 
Q 1428 -91 1123 -41 
Q 819 9 494 109 
L 494 744 
Q 775 591 1075 516 
Q 1375 441 1709 441 
Q 2250 441 2565 725 
Q 2881 1009 2881 1497 
Q 2881 1984 2565 2268 
Q 2250 2553 1709 2553 
Q 1456 2553 1204 2497 
Q 953 2441 691 2322 
L 691 4666 
z
" transform="scale(0.015625)"/>
       </defs>
       <use xlink:href="#DejaVuSans-35"/>
      </g>
     </g>
    </g>
    <g id="ytick_2">
     <g id="line2d_10">
      <path d="M 259.211562 185.72981 
C 269.692756 185.72981 280.072033 187.794377 289.755394 191.805356 
C 299.438754 195.816335 308.23788 201.695724 315.649203 209.107047 
C 323.060526 216.51837 328.939915 225.317496 332.950894 235.000856 
C 336.961873 244.684217 339.02644 255.063494 339.02644 265.544688 
C 339.02644 276.025881 336.961873 286.405158 332.950894 296.088519 
C 328.939915 305.771879 323.060526 314.571005 315.649203 321.982328 
C 308.23788 329.393651 299.438754 335.27304 289.755394 339.284019 
C 280.072033 343.294998 269.692756 345.359565 259.211562 345.359565 
C 248.730369 345.359565 238.351092 343.294998 228.667731 339.284019 
C 218.984371 335.27304 210.185245 329.393651 202.773922 321.982328 
C 195.362599 314.571005 189.48321 305.771879 185.472231 296.088519 
C 181.461252 286.405158 179.396685 276.025881 179.396685 265.544688 
C 179.396685 255.063494 181.461252 244.684217 185.472231 235.000856 
C 189.48321 225.317496 195.362599 216.51837 202.773922 209.107047 
C 210.185245 201.695724 218.984371 195.816335 228.667731 191.805356 
C 238.351092 187.794377 248.730369 185.72981 259.211562 185.72981 
" clip-path="url(#p5a656063c7)" style="fill: none; stroke-dasharray: 0.7,1.155; stroke-dashoffset: 0; stroke: #e5e5e5; stroke-width: 0.7"/>
     </g>
     <g id="text_10">
      <!-- 10 -->
      <g transform="translate(259.211562 183.234185) scale(0.12 -0.12)">
       <defs>
        <path id="DejaVuSans-31" d="M 794 531 
L 1825 531 
L 1825 4091 
L 703 3866 
L 703 4441 
L 1819 4666 
L 2450 4666 
L 2450 531 
L 3481 531 
L 3481 0 
L 794 0 
L 794 531 
z
" transform="scale(0.015625)"/>
       </defs>
       <use xlink:href="#DejaVuSans-31"/>
       <use xlink:href="#DejaVuSans-30" transform="translate(63.623047 0)"/>
      </g>
     </g>
    </g>
    <g id="ytick_3">
     <g id="line2d_11">
      <path d="M 259.211562 145.822372 
C 274.933353 145.822372 290.502269 148.919222 305.027309 154.935691 
C 319.55235 160.952159 332.751039 169.771242 343.868024 180.888226 
C 354.985008 192.005211 363.804091 205.2039 369.820559 219.728941 
C 375.837028 234.253981 378.933878 249.822897 378.933878 265.544688 
C 378.933878 281.266478 375.837028 296.835394 369.820559 311.360434 
C 363.804091 325.885475 354.985008 339.084164 343.868024 350.201149 
C 332.751039 361.318133 319.55235 370.137216 305.027309 376.153684 
C 290.502269 382.170153 274.933353 385.267003 259.211562 385.267003 
C 243.489772 385.267003 227.920856 382.170153 213.395816 376.153684 
C 198.870775 370.137216 185.672086 361.318133 174.555101 350.201149 
C 163.438117 339.084164 154.619034 325.885475 148.602566 311.360434 
C 142.586097 296.835394 139.489247 281.266478 139.489247 265.544688 
C 139.489247 249.822897 142.586097 234.253981 148.602566 219.728941 
C 154.619034 205.2039 163.438117 192.005211 174.555101 180.888226 
C 185.672086 169.771242 198.870775 160.952159 213.395816 154.935691 
C 227.920856 148.919222 243.489772 145.822372 259.211562 145.822372 
" clip-path="url(#p5a656063c7)" style="fill: none; stroke-dasharray: 0.7,1.155; stroke-dashoffset: 0; stroke: #e5e5e5; stroke-width: 0.7"/>
     </g>
     <g id="text_11">
      <!-- 15 -->
      <g transform="translate(259.211562 143.326747) scale(0.12 -0.12)">
       <use xlink:href="#DejaVuSans-31"/>
       <use xlink:href="#DejaVuSans-35" transform="translate(63.623047 0)"/>
      </g>
     </g>
    </g>
    <g id="ytick_4">
     <g id="line2d_12">
      <path d="M 259.211562 105.914933 
C 280.17395 105.914933 300.932504 110.044067 320.299225 118.066025 
C 339.665945 126.087983 357.264198 137.84676 372.086844 152.669406 
C 386.90949 167.492052 398.668267 185.090305 406.690225 204.457025 
C 414.712183 223.823746 418.841317 244.5823 418.841317 265.544688 
C 418.841317 286.507075 414.712183 307.265629 406.690225 326.63235 
C 398.668267 345.99907 386.90949 363.597323 372.086844 378.419969 
C 357.264198 393.242615 339.665945 405.001392 320.299225 413.02335 
C 300.932504 421.045308 280.17395 425.174442 259.211562 425.174442 
C 238.249175 425.174442 217.490621 421.045308 198.1239 413.02335 
C 178.75718 405.001392 161.158927 393.242615 146.336281 378.419969 
C 131.513635 363.597323 119.754858 345.99907 111.7329 326.63235 
C 103.710942 307.265629 99.581808 286.507075 99.581808 265.544688 
C 99.581808 244.5823 103.710942 223.823746 111.7329 204.457025 
C 119.754858 185.090305 131.513635 167.492052 146.336281 152.669406 
C 161.158927 137.84676 178.75718 126.087983 198.1239 118.066025 
C 217.490621 110.044067 238.249175 105.914933 259.211562 105.914933 
" clip-path="url(#p5a656063c7)" style="fill: none; stroke-dasharray: 0.7,1.155; stroke-dashoffset: 0; stroke: #e5e5e5; stroke-width: 0.7"/>
     </g>
     <g id="text_12">
      <!-- 20 -->
      <g transform="translate(259.211562 103.419308) scale(0.12 -0.12)">
       <defs>
        <path id="DejaVuSans-32" d="M 1228 531 
L 3431 531 
L 3431 0 
L 469 0 
L 469 531 
Q 828 903 1448 1529 
Q 2069 2156 2228 2338 
Q 2531 2678 2651 2914 
Q 2772 3150 2772 3378 
Q 2772 3750 2511 3984 
Q 2250 4219 1831 4219 
Q 1534 4219 1204 4116 
Q 875 4013 500 3803 
L 500 4441 
Q 881 4594 1212 4672 
Q 1544 4750 1819 4750 
Q 2544 4750 2975 4387 
Q 3406 4025 3406 3419 
Q 3406 3131 3298 2873 
Q 3191 2616 2906 2266 
Q 2828 2175 2409 1742 
Q 1991 1309 1228 531 
z
" transform="scale(0.015625)"/>
       </defs>
       <use xlink:href="#DejaVuSans-32"/>
       <use xlink:href="#DejaVuSans-30" transform="translate(63.623047 0)"/>
      </g>
     </g>
    </g>
    <g id="ytick_5">
     <g id="line2d_13">
      <path d="M 259.211562 66.007495 
C 285.414547 66.007495 311.36274 71.168911 335.57114 81.196359 
C 359.779541 91.223807 381.777357 105.922278 400.305665 124.450585 
C 418.833972 142.978893 433.532443 164.976709 443.559891 189.18511 
C 453.587339 213.39351 458.748755 239.341703 458.748755 265.544688 
C 458.748755 291.747672 453.587339 317.695865 443.559891 341.904265 
C 433.532443 366.112666 418.833972 388.110482 400.305665 406.63879 
C 381.777357 425.167097 359.779541 439.865568 335.57114 449.893016 
C 311.36274 459.920464 285.414547 465.08188 259.211562 465.08188 
C 233.008578 465.08188 207.060385 459.920464 182.851985 449.893016 
C 158.643584 439.865568 136.645768 425.167097 118.11746 406.63879 
C 99.589153 388.110482 84.890682 366.112666 74.863234 341.904265 
C 64.835786 317.695865 59.67437 291.747672 59.67437 265.544688 
C 59.67437 239.341703 64.835786 213.39351 74.863234 189.18511 
C 84.890682 164.976709 99.589153 142.978893 118.11746 124.450585 
C 136.645768 105.922278 158.643584 91.223807 182.851985 81.196359 
C 207.060385 71.168911 233.008578 66.007495 259.211562 66.007495 
" clip-path="url(#p5a656063c7)" style="fill: none; stroke-dasharray: 0.7,1.155; stroke-dashoffset: 0; stroke: #e5e5e5; stroke-width: 0.7"/>
     </g>
     <g id="text_13">
      <!-- 25 -->
      <g transform="translate(259.211562 63.51187) scale(0.12 -0.12)">
       <use xlink:href="#DejaVuSans-32"/>
       <use xlink:href="#DejaVuSans-35" transform="translate(63.623047 0)"/>
      </g>
     </g>
    </g>
    <g id="text_14">
     <!-- p90 -->
     <g transform="translate(44.815937 276.98875) rotate(-90) scale(0.12 -0.12)">
      <use xlink:href="#DejaVuSans-70"/>
      <use xlink:href="#DejaVuSans-39" transform="translate(63.476562 0)"/>
      <use xlink:href="#DejaVuSans-30" transform="translate(127.099609 0)"/>
     </g>
    </g>
   </g>
   <g id="line2d_14">
    <path d="M 259.211562 252.850864 
L 311.673229 213.083021 
L 265.60001 265.544688 
L 392.854744 399.187869 
L 259.211562 280.305553 
L 252.050893 272.705357 
L 251.653582 265.544688 
L 258.454031 264.787156 
L 259.211562 252.850864 
" clip-path="url(#p5a656063c7)" style="fill: none; stroke: #1f77b4; stroke-width: 2; stroke-linecap: square"/>
   </g>
   <g id="patch_4">
    <path d="M 259.211562 57.644688 
C 231.910385 57.644688 204.874676 63.022424 179.651677 73.470133 
C 154.428677 83.917841 131.508911 99.23234 112.204063 118.537188 
C 92.899215 137.842036 77.584716 160.761802 67.137008 185.984802 
C 56.689299 211.207801 51.311562 238.24351 51.311562 265.544688 
C 51.311562 292.845865 56.689299 319.881574 67.137008 345.104573 
C 77.584716 370.327573 92.899215 393.247339 112.204063 412.552187 
C 131.508911 431.857035 154.428677 447.171534 179.651677 457.619242 
C 204.874676 468.066951 231.910385 473.444688 259.211562 473.444688 
C 286.51274 473.444688 313.548449 468.066951 338.771448 457.619242 
C 363.994448 447.171534 386.914214 431.857035 406.219062 412.552187 
C 425.52391 393.247339 440.838409 370.327573 451.286117 345.104573 
C 461.733826 319.881574 467.111562 292.845865 467.111562 265.544688 
C 467.111562 238.24351 461.733826 211.207801 451.286117 185.984802 
C 440.838409 160.761802 425.52391 137.842036 406.219062 118.537188 
C 386.914214 99.23234 363.994448 83.917841 338.771448 73.470133 
C 313.548449 63.022424 286.51274 57.644688 259.211562 57.644688 
" style="fill: none; stroke: #000000; stroke-width: 0.8; stroke-linejoin: miter; stroke-linecap: square"/>
   </g>
   <g id="text_15">
    <!-- Pedri – RAW per 90 (mean) -->
    <g transform="translate(165.289062 17.837813) scale(0.14 -0.14)">
     <defs>
      <path id="DejaVuSans-64" d="M 2906 2969 
L 2906 4863 
L 3481 4863 
L 3481 0 
L 2906 0 
L 2906 525 
Q 2725 213 2448 61 
Q 2172 -91 1784 -91 
Q 1150 -91 751 415 
Q 353 922 353 1747 
Q 353 2572 751 3078 
Q 1150 3584 1784 3584 
Q 2172 3584 2448 3432 
Q 2725 3281 2906 2969 
z
M 947 1747 
Q 947 1113 1208 752 
Q 1469 391 1925 391 
Q 2381 391 2643 752 
Q 2906 1113 2906 1747 
Q 2906 2381 2643 2742 
Q 2381 3103 1925 3103 
Q 1469 3103 1208 2742 
Q 947 2381 947 1747 
z
" transform="scale(0.015625)"/>
      <path id="DejaVuSans-2013" d="M 313 1978 
L 2888 1978 
L 2888 1528 
L 313 1528 
L 313 1978 
z
" transform="scale(0.015625)"/>
      <path id="DejaVuSans-52" d="M 2841 2188 
Q 3044 2119 3236 1894 
Q 3428 1669 3622 1275 
L 4263 0 
L 3584 0 
L 2988 1197 
Q 2756 1666 2539 1819 
Q 2322 1972 1947 1972 
L 1259 1972 
L 1259 0 
L 628 0 
L 628 4666 
L 2053 4666 
Q 2853 4666 3247 4331 
Q 3641 3997 3641 3322 
Q 3641 2881 3436 2590 
Q 3231 2300 2841 2188 
z
M 1259 4147 
L 1259 2491 
L 2053 2491 
Q 2509 2491 2742 2702 
Q 2975 2913 2975 3322 
Q 2975 3731 2742 3939 
Q 2509 4147 2053 4147 
L 1259 4147 
z
" transform="scale(0.015625)"/>
      <path id="DejaVuSans-41" d="M 2188 4044 
L 1331 1722 
L 3047 1722 
L 2188 4044 
z
M 1831 4666 
L 2547 4666 
L 4325 0 
L 3669 0 
L 3244 1197 
L 1141 1197 
L 716 0 
L 50 0 
L 1831 4666 
z
" transform="scale(0.015625)"/>
      <path id="DejaVuSans-57" d="M 213 4666 
L 850 4666 
L 1831 722 
L 2809 4666 
L 3519 4666 
L 4500 722 
L 5478 4666 
L 6119 4666 
L 4947 0 
L 4153 0 
L 3169 4050 
L 2175 0 
L 1381 0 
L 213 4666 
z
" transform="scale(0.015625)"/>
      <path id="DejaVuSans-28" d="M 1984 4856 
Q 1566 4138 1362 3434 
Q 1159 2731 1159 2009 
Q 1159 1288 1364 580 
Q 1569 -128 1984 -844 
L 1484 -844 
Q 1016 -109 783 600 
Q 550 1309 550 2009 
Q 550 2706 781 3412 
Q 1013 4119 1484 4856 
L 1984 4856 
z
" transform="scale(0.015625)"/>
      <path id="DejaVuSans-6d" d="M 3328 2828 
Q 3544 3216 3844 3400 
Q 4144 3584 4550 3584 
Q 5097 3584 5394 3201 
Q 5691 2819 5691 2113 
L 5691 0 
L 5113 0 
L 5113 2094 
Q 5113 2597 4934 2840 
Q 4756 3084 4391 3084 
Q 3944 3084 3684 2787 
Q 3425 2491 3425 1978 
L 3425 0 
L 2847 0 
L 2847 2094 
Q 2847 2600 2669 2842 
Q 2491 3084 2119 3084 
Q 1678 3084 1418 2786 
Q 1159 2488 1159 1978 
L 1159 0 
L 581 0 
L 581 3500 
L 1159 3500 
L 1159 2956 
Q 1356 3278 1631 3431 
Q 1906 3584 2284 3584 
Q 2666 3584 2933 3390 
Q 3200 3197 3328 2828 
z
" transform="scale(0.015625)"/>
      <path id="DejaVuSans-29" d="M 513 4856 
L 1013 4856 
Q 1481 4119 1714 3412 
Q 1947 2706 1947 2009 
Q 1947 1309 1714 600 
Q 1481 -109 1013 -844 
L 513 -844 
Q 928 -128 1133 580 
Q 1338 1288 1338 2009 
Q 1338 2731 1133 3434 
Q 928 4138 513 4856 
z
" transform="scale(0.015625)"/>
     </defs>
     <use xlink:href="#DejaVuSans-50"/>
     <use xlink:href="#DejaVuSans-65" transform="translate(56.677734 0)"/>
     <use xlink:href="#DejaVuSans-64" transform="translate(118.201172 0)"/>
     <use xlink:href="#DejaVuSans-72" transform="translate(181.677734 0)"/>
     <use xlink:href="#DejaVuSans-69" transform="translate(222.791016 0)"/>
     <use xlink:href="#DejaVuSans-20" transform="translate(250.574219 0)"/>
     <use xlink:href="#DejaVuSans-2013" transform="translate(282.361328 0)"/>
     <use xlink:href="#DejaVuSans-20" transform="translate(332.361328 0)"/>
     <use xlink:href="#DejaVuSans-52" transform="translate(364.148438 0)"/>
     <use xlink:href="#DejaVuSans-41" transform="translate(429.630859 0)"/>
     <use xlink:href="#DejaVuSans-57" transform="translate(492.539062 0)"/>
     <use xlink:href="#DejaVuSans-20" transform="translate(591.416016 0)"/>
     <use xlink:href="#DejaVuSans-70" transform="translate(623.203125 0)"/>
     <use xlink:href="#DejaVuSans-65" transform="translate(686.679688 0)"/>
     <use xlink:href="#DejaVuSans-72" transform="translate(748.203125 0)"/>
     <use xlink:href="#DejaVuSans-20" transform="translate(789.316406 0)"/>
     <use xlink:href="#DejaVuSans-39" transform="translate(821.103516 0)"/>
     <use xlink:href="#DejaVuSans-30" transform="translate(884.726562 0)"/>
     <use xlink:href="#DejaVuSans-20" transform="translate(948.349609 0)"/>
     <use xlink:href="#DejaVuSans-28" transform="translate(980.136719 0)"/>
     <use xlink:href="#DejaVuSans-6d" transform="translate(1019.150391 0)"/>
     <use xlink:href="#DejaVuSans-65" transform="translate(1116.5625 0)"/>
     <use xlink:href="#DejaVuSans-61" transform="translate(1178.085938 0)"/>
     <use xlink:href="#DejaVuSans-6e" transform="translate(1239.365234 0)"/>
     <use xlink:href="#DejaVuSans-29" transform="translate(1302.744141 0)"/>
    </g>
   </g>
  </g>
 </g>
 <defs>
  <clipPath id="p5a656063c7">
   <path d="M 467.111562 265.544688 
C 467.111562 238.24351 461.733826 211.207801 451.286117 185.984802 
C 440.838409 160.761802 425.52391 137.842036 406.219062 118.537188 
C 386.914214 99.23234 363.994448 83.917841 338.771448 73.470133 
C 313.548449 63.022424 286.51274 57.644688 259.211562 57.644688 
C 231.910385 57.644688 204.874676 63.022424 179.651677 73.470133 
C 154.428677 83.917841 131.508911 99.23234 112.204063 118.537188 
C 92.899215 137.842036 77.584716 160.761802 67.137008 185.984802 
C 56.689299 211.207801 51.311562 238.24351 51.311562 265.544688 
C 51.311562 292.845865 56.689299 319.881574 67.137008 345.104573 
C 77.584716 370.327573 92.899215 393.247339 112.204063 412.552187 
C 131.508911 431.857035 154.428677 447.171534 179.651677 457.619242 
C 204.874676 468.066951 231.910385 473.444688 259.211562 473.444688 
C 286.51274 473.444688 313.548449 468.066951 338.771448 457.619242 
C 363.994448 447.171534 386.914214 431.857035 406.219062 412.552187 
C 425.52391 393.247339 440.838409 370.327573 451.286117 345.104573 
C 461.733826 319.881574 467.111562 292.845865 467.111562 265.544688 
M 259.211562 265.544688 
C 259.211562 265.544688 259.211562 265.544688 259.211562 265.544688 
C 259.211562 265.544688 259.211562 265.544688 259.211562 265.544688 
C 259.211562 265.544688 259.211562 265.544688 259.211562 265.544688 
C 259.211562 265.544688 259.211562 265.544688 259.211562 265.544688 
C 259.211562 265.544688 259.211562 265.544688 259.211562 265.544688 
C 259.211562 265.544688 259.211562 265.544688 259.211562 265.544688 
C 259.211562 265.544688 259.211562 265.544688 259.211562 265.544688 
C 259.211562 265.544688 259.211562 265.544688 259.211562 265.544688 
C 259.211562 265.544688 259.211562 265.544688 259.211562 265.544688 
C 259.211562 265.544688 259.211562 265.544688 259.211562 265.544688 
C 259.211562 265.544688 259.211562 265.544688 259.211562 265.544688 
C 259.211562 265.544688 259.211562 265.544688 259.211562 265.544688 
C 259.211562 265.544688 259.211562 265.544688 259.211562 265.544688 
C 259.211562 265.544688 259.211562 265.544688 259.211562 265.544688 
C 259.211562 265.544688 259.211562 265.544688 259.211562 265.544688 
C 259.211562 265.544688 259.211562 265.544688 259.211562 265.544688 
z
"/>
  </clipPath>
 </defs>
</svg>
