<?xml version="1.0" encoding="utf-8" standalone="no"?>
<!DOCTYPE svg PUBLIC "-//W3C//DTD SVG 1.1//EN"
  "http://www.w3.org/Graphics/SVG/1.1/DTD/svg11.dtd">
<svg xmlns:xlink="http://www.w3.org/1999/xlink" width="526.518437pt" height="500.451563pt" viewBox="0 0 526.518437 500.451563" xmlns="http://www.w3.org/2000/svg" version="1.1">
 <metadata>
  <rdf:RDF xmlns:dc="http://purl.org/dc/elements/1.1/" xmlns:cc="http://creativecommons.org/ns#" xmlns:rdf="http://www.w3.org/1999/02/22-rdf-syntax-ns#">
   <cc:Work>
    <dc:type rdf:resource="http://purl.org/dc/dcmitype/StillImage"/>
    <dc:date>2025-08-14T20:10:56.402417</dc:date>
    <dc:format>image/svg+xml</dc:format>
    <dc:creator>
     <cc:Agent>
      <dc:title>Matplotlib v3.10.3, https://matplotlib.org/</dc:title>
     </cc:Agent>
    </dc:creator>
   </cc:Work>
  </rdf:RDF>
 </metadata>
 <defs>
  <style type="text/css">*{stroke-linejoin: round; stroke-linecap: butt}</style>
 </defs>
 <g id="figure_1">
  <g id="patch_1">
   <path d="M 0 500.451563 
L 526.518437 500.451563 
L 526.518437 0 
L 0 0 
z
" style="fill: #ffffff"/>
  </g>
  <g id="axes_1">
   <g id="patch_2">
    <path d="M 467.111562 265.544688 
C 467.111562 238.24351 461.733826 211.207801 451.286117 185.984802 
C 440.838409 160.761802 425.52391 137.842036 406.219062 118.537188 
C 386.914214 99.23234 363.994448 83.917841 338.771448 73.470133 
C 313.548449 63.022424 286.51274 57.644688 259.211562 57.644688 
C 231.910385 57.644688 204.874676 63.022424 179.651677 73.470133 
C 154.428677 83.917841 131.508911 99.23234 112.204063 118.537188 
C 92.899215 137.842036 77.584716 160.761802 67.137008 185.984802 
C 56.689299 211.207801 51.311562 238.24351 51.311562 265.544688 
C 51.311562 292.845865 56.689299 319.881574 67.137008 345.104573 
C 77.584716 370.327573 92.899215 393.247339 112.204063 412.552187 
C 131.508911 431.857035 154.428677 447.171534 179.651677 457.619242 
C 204.874676 468.066951 231.910385 473.444688 259.211562 473.444688 
C 286.51274 473.444688 313.548449 468.066951 338.771448 457.619242 
C 363.994448 447.171534 386.914214 431.857035 406.219062 412.552187 
C 425.52391 393.247339 440.838409 370.327573 451.286117 345.104573 
C 461.733826 319.881574 467.111562 292.845865 467.111562 265.544688 
M 259.211562 265.544688 
C 259.211562 265.544688 259.211562 265.544688 259.211562 265.544688 
C 259.211562 265.544688 259.211562 265.544688 259.211562 265.544688 
C 259.211562 265.544688 259.211562 265.544688 259.211562 265.544688 
C 259.211562 265.544688 259.211562 265.544688 259.211562 265.544688 
C 259.211562 265.544688 259.211562 265.544688 259.211562 265.544688 
C 259.211562 265.544688 259.211562 265.544688 259.211562 265.544688 
C 259.211562 265.544688 259.211562 265.544688 259.211562 265.544688 
C 259.211562 265.544688 259.211562 265.544688 259.211562 265.544688 
C 259.211562 265.544688 259.211562 265.544688 259.211562 265.544688 
C 259.211562 265.544688 259.211562 265.544688 259.211562 265.544688 
C 259.211562 265.544688 259.211562 265.544688 259.211562 265.544688 
C 259.211562 265.544688 259.211562 265.544688 259.211562 265.544688 
C 259.211562 265.544688 259.211562 265.544688 259.211562 265.544688 
C 259.211562 265.544688 259.211562 265.544688 259.211562 265.544688 
C 259.211562 265.544688 259.211562 265.544688 259.211562 265.544688 
C 259.211562 265.544688 259.211562 265.544688 259.211562 265.544688 
z
" style="fill: #ffffff"/>
   </g>
   <g id="patch_3">
    <path d="M 259.211562 134.016116 
L 361.216766 163.539484 
L 373.768705 265.544688 
L 340.215695 346.54882 
L 259.211562 375.858973 
L 172.207124 352.549126 
L 123.440134 265.544688 
L 139.20544 145.538565 
z
" clip-path="url(#p61977cfae4)" style="fill: #1f77b4; opacity: 0.15"/>
   </g>
   <g id="matplotlib.axis_1">
    <g id="xtick_1">
     <g id="line2d_1">
      <path d="M 259.211562 265.544688 
L 259.211562 57.644688 
" clip-path="url(#p61977cfae4)" style="fill: none; stroke-dasharray: 0.7,1.155; stroke-dashoffset: 0; stroke: #e5e5e5; stroke-width: 0.7"/>
     </g>
     <g id="text_1">
      <!-- KeyP p90 -->
      <g transform="translate(231.365 46.955938) scale(0.12 -0.12)">
       <defs>
        <path id="DejaVuSans-4b" d="M 628 4666 
L 1259 4666 
L 1259 2694 
L 3353 4666 
L 4166 4666 
L 1850 2491 
L 4331 0 
L 3500 0 
L 1259 2247 
L 1259 0 
L 628 0 
L 628 4666 
z
" transform="scale(0.015625)"/>
        <path id="DejaVuSans-65" d="M 3597 1894 
L 3597 1613 
L 953 1613 
Q 991 1019 1311 708 
Q 1631 397 2203 397 
Q 2534 397 2845 478 
Q 3156 559 3463 722 
L 3463 178 
Q 3153 47 2828 -22 
Q 2503 -91 2169 -91 
Q 1331 -91 842 396 
Q 353 884 353 1716 
Q 353 2575 817 3079 
Q 1281 3584 2069 3584 
Q 2775 3584 3186 3129 
Q 3597 2675 3597 1894 
z
M 3022 2063 
Q 3016 2534 2758 2815 
Q 2500 3097 2075 3097 
Q 1594 3097 1305 2825 
Q 1016 2553 972 2059 
L 3022 2063 
z
" transform="scale(0.015625)"/>
        <path id="DejaVuSans-79" d="M 2059 -325 
Q 1816 -950 1584 -1140 
Q 1353 -1331 966 -1331 
L 506 -1331 
L 506 -850 
L 844 -850 
Q 1081 -850 1212 -737 
Q 1344 -625 1503 -206 
L 1606 56 
L 191 3500 
L 800 3500 
L 1894 763 
L 2988 3500 
L 3597 3500 
L 2059 -325 
z
" transform="scale(0.015625)"/>
        <path id="DejaVuSans-50" d="M 1259 4147 
L 1259 2394 
L 2053 2394 
Q 2494 2394 2734 2622 
Q 2975 2850 2975 3272 
Q 2975 3691 2734 3919 
Q 2494 4147 2053 4147 
L 1259 4147 
z
M 628 4666 
L 2053 4666 
Q 2838 4666 3239 4311 
Q 3641 3956 3641 3272 
Q 3641 2581 3239 2228 
Q 2838 1875 2053 1875 
L 1259 1875 
L 1259 0 
L 628 0 
L 628 4666 
z
" transform="scale(0.015625)"/>
        <path id="DejaVuSans-20" transform="scale(0.015625)"/>
        <path id="DejaVuSans-70" d="M 1159 525 
L 1159 -1331 
L 581 -1331 
L 581 3500 
L 1159 3500 
L 1159 2969 
Q 1341 3281 1617 3432 
Q 1894 3584 2278 3584 
Q 2916 3584 3314 3078 
Q 3713 2572 3713 1747 
Q 3713 922 3314 415 
Q 2916 -91 2278 -91 
Q 1894 -91 1617 61 
Q 1341 213 1159 525 
z
M 3116 1747 
Q 3116 2381 2855 2742 
Q 2594 3103 2138 3103 
Q 1681 3103 1420 2742 
Q 1159 2381 1159 1747 
Q 1159 1113 1420 752 
Q 1681 391 2138 391 
Q 2594 391 2855 752 
Q 3116 1113 3116 1747 
z
" transform="scale(0.015625)"/>
        <path id="DejaVuSans-39" d="M 703 97 
L 703 672 
Q 941 559 1184 500 
Q 1428 441 1663 441 
Q 2288 441 2617 861 
Q 2947 1281 2994 2138 
Q 2813 1869 2534 1725 
Q 2256 1581 1919 1581 
Q 1219 1581 811 2004 
Q 403 2428 403 3163 
Q 403 3881 828 4315 
Q 1253 4750 1959 4750 
Q 2769 4750 3195 4129 
Q 3622 3509 3622 2328 
Q 3622 1225 3098 567 
Q 2575 -91 1691 -91 
Q 1453 -91 1209 -44 
Q 966 3 703 97 
z
M 1959 2075 
Q 2384 2075 2632 2365 
Q 2881 2656 2881 3163 
Q 2881 3666 2632 3958 
Q 2384 4250 1959 4250 
Q 1534 4250 1286 3958 
Q 1038 3666 1038 3163 
Q 1038 2656 1286 2365 
Q 1534 2075 1959 2075 
z
" transform="scale(0.015625)"/>
        <path id="DejaVuSans-30" d="M 2034 4250 
Q 1547 4250 1301 3770 
Q 1056 3291 1056 2328 
Q 1056 1369 1301 889 
Q 1547 409 2034 409 
Q 2525 409 2770 889 
Q 3016 1369 3016 2328 
Q 3016 3291 2770 3770 
Q 2525 4250 2034 4250 
z
M 2034 4750 
Q 2819 4750 3233 4129 
Q 3647 3509 3647 2328 
Q 3647 1150 3233 529 
Q 2819 -91 2034 -91 
Q 1250 -91 836 529 
Q 422 1150 422 2328 
Q 422 3509 836 4129 
Q 1250 4750 2034 4750 
z
" transform="scale(0.015625)"/>
       </defs>
       <use xlink:href="#DejaVuSans-4b"/>
       <use xlink:href="#DejaVuSans-65" transform="translate(60.576172 0)"/>
       <use xlink:href="#DejaVuSans-79" transform="translate(122.099609 0)"/>
       <use xlink:href="#DejaVuSans-50" transform="translate(181.279297 0)"/>
       <use xlink:href="#DejaVuSans-20" transform="translate(241.582031 0)"/>
       <use xlink:href="#DejaVuSans-70" transform="translate(273.369141 0)"/>
       <use xlink:href="#DejaVuSans-39" transform="translate(336.845703 0)"/>
       <use xlink:href="#DejaVuSans-30" transform="translate(400.46875 0)"/>
      </g>
     </g>
    </g>
    <g id="xtick_2">
     <g id="line2d_2">
      <path d="M 259.211562 265.544688 
L 406.219062 118.537188 
" clip-path="url(#p61977cfae4)" style="fill: none; stroke-dasharray: 0.7,1.155; stroke-dashoffset: 0; stroke: #e5e5e5; stroke-width: 0.7"/>
     </g>
     <g id="text_2">
      <!-- ProgP p90 -->
      <g transform="translate(385.82512 111.948943) scale(0.12 -0.12)">
       <defs>
        <path id="DejaVuSans-72" d="M 2631 2963 
Q 2534 3019 2420 3045 
Q 2306 3072 2169 3072 
Q 1681 3072 1420 2755 
Q 1159 2438 1159 1844 
L 1159 0 
L 581 0 
L 581 3500 
L 1159 3500 
L 1159 2956 
Q 1341 3275 1631 3429 
Q 1922 3584 2338 3584 
Q 2397 3584 2469 3576 
Q 2541 3569 2628 3553 
L 2631 2963 
z
" transform="scale(0.015625)"/>
        <path id="DejaVuSans-6f" d="M 1959 3097 
Q 1497 3097 1228 2736 
Q 959 2375 959 1747 
Q 959 1119 1226 758 
Q 1494 397 1959 397 
Q 2419 397 2687 759 
Q 2956 1122 2956 1747 
Q 2956 2369 2687 2733 
Q 2419 3097 1959 3097 
z
M 1959 3584 
Q 2709 3584 3137 3096 
Q 3566 2609 3566 1747 
Q 3566 888 3137 398 
Q 2709 -91 1959 -91 
Q 1206 -91 779 398 
Q 353 888 353 1747 
Q 353 2609 779 3096 
Q 1206 3584 1959 3584 
z
" transform="scale(0.015625)"/>
        <path id="DejaVuSans-67" d="M 2906 1791 
Q 2906 2416 2648 2759 
Q 2391 3103 1925 3103 
Q 1463 3103 1205 2759 
Q 947 2416 947 1791 
Q 947 1169 1205 825 
Q 1463 481 1925 481 
Q 2391 481 2648 825 
Q 2906 1169 2906 1791 
z
M 3481 434 
Q 3481 -459 3084 -895 
Q 2688 -1331 1869 -1331 
Q 1566 -1331 1297 -1286 
Q 1028 -1241 775 -1147 
L 775 -588 
Q 1028 -725 1275 -790 
Q 1522 -856 1778 -856 
Q 2344 -856 2625 -561 
Q 2906 -266 2906 331 
L 2906 616 
Q 2728 306 2450 153 
Q 2172 0 1784 0 
Q 1141 0 747 490 
Q 353 981 353 1791 
Q 353 2603 747 3093 
Q 1141 3584 1784 3584 
Q 2172 3584 2450 3431 
Q 2728 3278 2906 2969 
L 2906 3500 
L 3481 3500 
L 3481 434 
z
" transform="scale(0.015625)"/>
       </defs>
       <use xlink:href="#DejaVuSans-50"/>
       <use xlink:href="#DejaVuSans-72" transform="translate(58.552734 0)"/>
       <use xlink:href="#DejaVuSans-6f" transform="translate(97.416016 0)"/>
       <use xlink:href="#DejaVuSans-67" transform="translate(158.597656 0)"/>
       <use xlink:href="#DejaVuSans-50" transform="translate(222.074219 0)"/>
       <use xlink:href="#DejaVuSans-20" transform="translate(282.376953 0)"/>
       <use xlink:href="#DejaVuSans-70" transform="translate(314.164062 0)"/>
       <use xlink:href="#DejaVuSans-39" transform="translate(377.640625 0)"/>
       <use xlink:href="#DejaVuSans-30" transform="translate(441.263672 0)"/>
      </g>
     </g>
    </g>
    <g id="xtick_3">
     <g id="line2d_3">
      <path d="M 259.211562 265.544688 
L 467.111562 265.544688 
" clip-path="url(#p61977cfae4)" style="fill: none; stroke-dasharray: 0.7,1.155; stroke-dashoffset: 0; stroke: #e5e5e5; stroke-width: 0.7"/>
     </g>
     <g id="text_3">
      <!-- Dribbles p90 -->
      <g transform="translate(442.904687 268.855938) scale(0.12 -0.12)">
       <defs>
        <path id="DejaVuSans-44" d="M 1259 4147 
L 1259 519 
L 2022 519 
Q 2988 519 3436 956 
Q 3884 1394 3884 2338 
Q 3884 3275 3436 3711 
Q 2988 4147 2022 4147 
L 1259 4147 
z
M 628 4666 
L 1925 4666 
Q 3281 4666 3915 4102 
Q 4550 3538 4550 2338 
Q 4550 1131 3912 565 
Q 3275 0 1925 0 
L 628 0 
L 628 4666 
z
" transform="scale(0.015625)"/>
        <path id="DejaVuSans-69" d="M 603 3500 
L 1178 3500 
L 1178 0 
L 603 0 
L 603 3500 
z
M 603 4863 
L 1178 4863 
L 1178 4134 
L 603 4134 
L 603 4863 
z
" transform="scale(0.015625)"/>
        <path id="DejaVuSans-62" d="M 3116 1747 
Q 3116 2381 2855 2742 
Q 2594 3103 2138 3103 
Q 1681 3103 1420 2742 
Q 1159 2381 1159 1747 
Q 1159 1113 1420 752 
Q 1681 391 2138 391 
Q 2594 391 2855 752 
Q 3116 1113 3116 1747 
z
M 1159 2969 
Q 1341 3281 1617 3432 
Q 1894 3584 2278 3584 
Q 2916 3584 3314 3078 
Q 3713 2572 3713 1747 
Q 3713 922 3314 415 
Q 2916 -91 2278 -91 
Q 1894 -91 1617 61 
Q 1341 213 1159 525 
L 1159 0 
L 581 0 
L 581 4863 
L 1159 4863 
L 1159 2969 
z
" transform="scale(0.015625)"/>
        <path id="DejaVuSans-6c" d="M 603 4863 
L 1178 4863 
L 1178 0 
L 603 0 
L 603 4863 
z
" transform="scale(0.015625)"/>
        <path id="DejaVuSans-73" d="M 2834 3397 
L 2834 2853 
Q 2591 2978 2328 3040 
Q 2066 3103 1784 3103 
Q 1356 3103 1142 2972 
Q 928 2841 928 2578 
Q 928 2378 1081 2264 
Q 1234 2150 1697 2047 
L 1894 2003 
Q 2506 1872 2764 1633 
Q 3022 1394 3022 966 
Q 3022 478 2636 193 
Q 2250 -91 1575 -91 
Q 1294 -91 989 -36 
Q 684 19 347 128 
L 347 722 
Q 666 556 975 473 
Q 1284 391 1588 391 
Q 1994 391 2212 530 
Q 2431 669 2431 922 
Q 2431 1156 2273 1281 
Q 2116 1406 1581 1522 
L 1381 1569 
Q 847 1681 609 1914 
Q 372 2147 372 2553 
Q 372 3047 722 3315 
Q 1072 3584 1716 3584 
Q 2034 3584 2315 3537 
Q 2597 3491 2834 3397 
z
" transform="scale(0.015625)"/>
       </defs>
       <use xlink:href="#DejaVuSans-44"/>
       <use xlink:href="#DejaVuSans-72" transform="translate(77.001953 0)"/>
       <use xlink:href="#DejaVuSans-69" transform="translate(118.115234 0)"/>
       <use xlink:href="#DejaVuSans-62" transform="translate(145.898438 0)"/>
       <use xlink:href="#DejaVuSans-62" transform="translate(209.375 0)"/>
       <use xlink:href="#DejaVuSans-6c" transform="translate(272.851562 0)"/>
       <use xlink:href="#DejaVuSans-65" transform="translate(300.634766 0)"/>
       <use xlink:href="#DejaVuSans-73" transform="translate(362.158203 0)"/>
       <use xlink:href="#DejaVuSans-20" transform="translate(414.257812 0)"/>
       <use xlink:href="#DejaVuSans-70" transform="translate(446.044922 0)"/>
       <use xlink:href="#DejaVuSans-39" transform="translate(509.521484 0)"/>
       <use xlink:href="#DejaVuSans-30" transform="translate(573.144531 0)"/>
      </g>
     </g>
    </g>
    <g id="xtick_4">
     <g id="line2d_4">
      <path d="M 259.211562 265.544688 
L 406.219062 412.552187 
" clip-path="url(#p61977cfae4)" style="fill: none; stroke-dasharray: 0.7,1.155; stroke-dashoffset: 0; stroke: #e5e5e5; stroke-width: 0.7"/>
     </g>
     <g id="text_4">
      <!-- Pressures p90 -->
      <g transform="translate(374.028557 425.762932) scale(0.12 -0.12)">
       <defs>
        <path id="DejaVuSans-75" d="M 544 1381 
L 544 3500 
L 1119 3500 
L 1119 1403 
Q 1119 906 1312 657 
Q 1506 409 1894 409 
Q 2359 409 2629 706 
Q 2900 1003 2900 1516 
L 2900 3500 
L 3475 3500 
L 3475 0 
L 2900 0 
L 2900 538 
Q 2691 219 2414 64 
Q 2138 -91 1772 -91 
Q 1169 -91 856 284 
Q 544 659 544 1381 
z
M 1991 3584 
L 1991 3584 
z
" transform="scale(0.015625)"/>
       </defs>
       <use xlink:href="#DejaVuSans-50"/>
       <use xlink:href="#DejaVuSans-72" transform="translate(58.552734 0)"/>
       <use xlink:href="#DejaVuSans-65" transform="translate(97.416016 0)"/>
       <use xlink:href="#DejaVuSans-73" transform="translate(158.939453 0)"/>
       <use xlink:href="#DejaVuSans-73" transform="translate(211.039062 0)"/>
       <use xlink:href="#DejaVuSans-75" transform="translate(263.138672 0)"/>
       <use xlink:href="#DejaVuSans-72" transform="translate(326.517578 0)"/>
       <use xlink:href="#DejaVuSans-65" transform="translate(365.380859 0)"/>
       <use xlink:href="#DejaVuSans-73" transform="translate(426.904297 0)"/>
       <use xlink:href="#DejaVuSans-20" transform="translate(479.003906 0)"/>
       <use xlink:href="#DejaVuSans-70" transform="translate(510.791016 0)"/>
       <use xlink:href="#DejaVuSans-39" transform="translate(574.267578 0)"/>
       <use xlink:href="#DejaVuSans-30" transform="translate(637.890625 0)"/>
      </g>
     </g>
    </g>
    <g id="xtick_5">
     <g id="line2d_5">
      <path d="M 259.211562 265.544688 
L 259.211562 473.444688 
" clip-path="url(#p61977cfae4)" style="fill: none; stroke-dasharray: 0.7,1.155; stroke-dashoffset: 0; stroke: #e5e5e5; stroke-width: 0.7"/>
     </g>
     <g id="text_5">
      <!-- Tackles p90 -->
      <g transform="translate(224.25125 490.755938) scale(0.12 -0.12)">
       <defs>
        <path id="DejaVuSans-54" d="M -19 4666 
L 3928 4666 
L 3928 4134 
L 2272 4134 
L 2272 0 
L 1638 0 
L 1638 4134 
L -19 4134 
L -19 4666 
z
" transform="scale(0.015625)"/>
        <path id="DejaVuSans-61" d="M 2194 1759 
Q 1497 1759 1228 1600 
Q 959 1441 959 1056 
Q 959 750 1161 570 
Q 1363 391 1709 391 
Q 2188 391 2477 730 
Q 2766 1069 2766 1631 
L 2766 1759 
L 2194 1759 
z
M 3341 1997 
L 3341 0 
L 2766 0 
L 2766 531 
Q 2569 213 2275 61 
Q 1981 -91 1556 -91 
Q 1019 -91 701 211 
Q 384 513 384 1019 
Q 384 1609 779 1909 
Q 1175 2209 1959 2209 
L 2766 2209 
L 2766 2266 
Q 2766 2663 2505 2880 
Q 2244 3097 1772 3097 
Q 1472 3097 1187 3025 
Q 903 2953 641 2809 
L 641 3341 
Q 956 3463 1253 3523 
Q 1550 3584 1831 3584 
Q 2591 3584 2966 3190 
Q 3341 2797 3341 1997 
z
" transform="scale(0.015625)"/>
        <path id="DejaVuSans-63" d="M 3122 3366 
L 3122 2828 
Q 2878 2963 2633 3030 
Q 2388 3097 2138 3097 
Q 1578 3097 1268 2742 
Q 959 2388 959 1747 
Q 959 1106 1268 751 
Q 1578 397 2138 397 
Q 2388 397 2633 464 
Q 2878 531 3122 666 
L 3122 134 
Q 2881 22 2623 -34 
Q 2366 -91 2075 -91 
Q 1284 -91 818 406 
Q 353 903 353 1747 
Q 353 2603 823 3093 
Q 1294 3584 2113 3584 
Q 2378 3584 2631 3529 
Q 2884 3475 3122 3366 
z
" transform="scale(0.015625)"/>
        <path id="DejaVuSans-6b" d="M 581 4863 
L 1159 4863 
L 1159 1991 
L 2875 3500 
L 3609 3500 
L 1753 1863 
L 3688 0 
L 2938 0 
L 1159 1709 
L 1159 0 
L 581 0 
L 581 4863 
z
" transform="scale(0.015625)"/>
       </defs>
       <use xlink:href="#DejaVuSans-54"/>
       <use xlink:href="#DejaVuSans-61" transform="translate(44.583984 0)"/>
       <use xlink:href="#DejaVuSans-63" transform="translate(105.863281 0)"/>
       <use xlink:href="#DejaVuSans-6b" transform="translate(160.84375 0)"/>
       <use xlink:href="#DejaVuSans-6c" transform="translate(218.753906 0)"/>
       <use xlink:href="#DejaVuSans-65" transform="translate(246.537109 0)"/>
       <use xlink:href="#DejaVuSans-73" transform="translate(308.060547 0)"/>
       <use xlink:href="#DejaVuSans-20" transform="translate(360.160156 0)"/>
       <use xlink:href="#DejaVuSans-70" transform="translate(391.947266 0)"/>
       <use xlink:href="#DejaVuSans-39" transform="translate(455.423828 0)"/>
       <use xlink:href="#DejaVuSans-30" transform="translate(519.046875 0)"/>
      </g>
     </g>
    </g>
    <g id="xtick_6">
     <g id="line2d_6">
      <path d="M 259.211562 265.544688 
L 112.204063 412.552187 
" clip-path="url(#p61977cfae4)" style="fill: none; stroke-dasharray: 0.7,1.155; stroke-dashoffset: 0; stroke: #e5e5e5; stroke-width: 0.7"/>
     </g>
     <g id="text_6">
      <!-- Interceptions p90 -->
      <g transform="translate(49.587068 425.762932) scale(0.12 -0.12)">
       <defs>
        <path id="DejaVuSans-49" d="M 628 4666 
L 1259 4666 
L 1259 0 
L 628 0 
L 628 4666 
z
" transform="scale(0.015625)"/>
        <path id="DejaVuSans-6e" d="M 3513 2113 
L 3513 0 
L 2938 0 
L 2938 2094 
Q 2938 2591 2744 2837 
Q 2550 3084 2163 3084 
Q 1697 3084 1428 2787 
Q 1159 2491 1159 1978 
L 1159 0 
L 581 0 
L 581 3500 
L 1159 3500 
L 1159 2956 
Q 1366 3272 1645 3428 
Q 1925 3584 2291 3584 
Q 2894 3584 3203 3211 
Q 3513 2838 3513 2113 
z
" transform="scale(0.015625)"/>
        <path id="DejaVuSans-74" d="M 1172 4494 
L 1172 3500 
L 2356 3500 
L 2356 3053 
L 1172 3053 
L 1172 1153 
Q 1172 725 1289 603 
Q 1406 481 1766 481 
L 2356 481 
L 2356 0 
L 1766 0 
Q 1100 0 847 248 
Q 594 497 594 1153 
L 594 3053 
L 172 3053 
L 172 3500 
L 594 3500 
L 594 4494 
L 1172 4494 
z
" transform="scale(0.015625)"/>
       </defs>
       <use xlink:href="#DejaVuSans-49"/>
       <use xlink:href="#DejaVuSans-6e" transform="translate(29.492188 0)"/>
       <use xlink:href="#DejaVuSans-74" transform="translate(92.871094 0)"/>
       <use xlink:href="#DejaVuSans-65" transform="translate(132.080078 0)"/>
       <use xlink:href="#DejaVuSans-72" transform="translate(193.603516 0)"/>
       <use xlink:href="#DejaVuSans-63" transform="translate(232.466797 0)"/>
       <use xlink:href="#DejaVuSans-65" transform="translate(287.447266 0)"/>
       <use xlink:href="#DejaVuSans-70" transform="translate(348.970703 0)"/>
       <use xlink:href="#DejaVuSans-74" transform="translate(412.447266 0)"/>
       <use xlink:href="#DejaVuSans-69" transform="translate(451.65625 0)"/>
       <use xlink:href="#DejaVuSans-6f" transform="translate(479.439453 0)"/>
       <use xlink:href="#DejaVuSans-6e" transform="translate(540.621094 0)"/>
       <use xlink:href="#DejaVuSans-73" transform="translate(604 0)"/>
       <use xlink:href="#DejaVuSans-20" transform="translate(656.099609 0)"/>
       <use xlink:href="#DejaVuSans-70" transform="translate(687.886719 0)"/>
       <use xlink:href="#DejaVuSans-39" transform="translate(751.363281 0)"/>
       <use xlink:href="#DejaVuSans-30" transform="translate(814.986328 0)"/>
      </g>
     </g>
    </g>
    <g id="xtick_7">
     <g id="line2d_7">
      <path d="M 259.211562 265.544688 
L 51.311562 265.544688 
" clip-path="url(#p61977cfae4)" style="fill: none; stroke-dasharray: 0.7,1.155; stroke-dashoffset: 0; stroke: #e5e5e5; stroke-width: 0.7"/>
     </g>
     <g id="text_7">
      <!-- Shots p90 -->
      <g transform="translate(7.2 268.855938) scale(0.12 -0.12)">
       <defs>
        <path id="DejaVuSans-53" d="M 3425 4513 
L 3425 3897 
Q 3066 4069 2747 4153 
Q 2428 4238 2131 4238 
Q 1616 4238 1336 4038 
Q 1056 3838 1056 3469 
Q 1056 3159 1242 3001 
Q 1428 2844 1947 2747 
L 2328 2669 
Q 3034 2534 3370 2195 
Q 3706 1856 3706 1288 
Q 3706 609 3251 259 
Q 2797 -91 1919 -91 
Q 1588 -91 1214 -16 
Q 841 59 441 206 
L 441 856 
Q 825 641 1194 531 
Q 1563 422 1919 422 
Q 2459 422 2753 634 
Q 3047 847 3047 1241 
Q 3047 1584 2836 1778 
Q 2625 1972 2144 2069 
L 1759 2144 
Q 1053 2284 737 2584 
Q 422 2884 422 3419 
Q 422 4038 858 4394 
Q 1294 4750 2059 4750 
Q 2388 4750 2728 4690 
Q 3069 4631 3425 4513 
z
" transform="scale(0.015625)"/>
        <path id="DejaVuSans-68" d="M 3513 2113 
L 3513 0 
L 2938 0 
L 2938 2094 
Q 2938 2591 2744 2837 
Q 2550 3084 2163 3084 
Q 1697 3084 1428 2787 
Q 1159 2491 1159 1978 
L 1159 0 
L 581 0 
L 581 4863 
L 1159 4863 
L 1159 2956 
Q 1366 3272 1645 3428 
Q 1925 3584 2291 3584 
Q 2894 3584 3203 3211 
Q 3513 2838 3513 2113 
z
" transform="scale(0.015625)"/>
       </defs>
       <use xlink:href="#DejaVuSans-53"/>
       <use xlink:href="#DejaVuSans-68" transform="translate(63.476562 0)"/>
       <use xlink:href="#DejaVuSans-6f" transform="translate(126.855469 0)"/>
       <use xlink:href="#DejaVuSans-74" transform="translate(188.037109 0)"/>
       <use xlink:href="#DejaVuSans-73" transform="translate(227.246094 0)"/>
       <use xlink:href="#DejaVuSans-20" transform="translate(279.345703 0)"/>
       <use xlink:href="#DejaVuSans-70" transform="translate(311.132812 0)"/>
       <use xlink:href="#DejaVuSans-39" transform="translate(374.609375 0)"/>
       <use xlink:href="#DejaVuSans-30" transform="translate(438.232422 0)"/>
      </g>
     </g>
    </g>
    <g id="xtick_8">
     <g id="line2d_8">
      <path d="M 259.211562 265.544688 
L 112.204063 118.537188 
" clip-path="url(#p61977cfae4)" style="fill: none; stroke-dasharray: 0.7,1.155; stroke-dashoffset: 0; stroke: #e5e5e5; stroke-width: 0.7"/>
     </g>
     <g id="text_8">
      <!-- xG p90 -->
      <g transform="translate(80.753318 111.948943) scale(0.12 -0.12)">
       <defs>
        <path id="DejaVuSans-78" d="M 3513 3500 
L 2247 1797 
L 3578 0 
L 2900 0 
L 1881 1375 
L 863 0 
L 184 0 
L 1544 1831 
L 300 3500 
L 978 3500 
L 1906 2253 
L 2834 3500 
L 3513 3500 
z
" transform="scale(0.015625)"/>
        <path id="DejaVuSans-47" d="M 3809 666 
L 3809 1919 
L 2778 1919 
L 2778 2438 
L 4434 2438 
L 4434 434 
Q 4069 175 3628 42 
Q 3188 -91 2688 -91 
Q 1594 -91 976 548 
Q 359 1188 359 2328 
Q 359 3472 976 4111 
Q 1594 4750 2688 4750 
Q 3144 4750 3555 4637 
Q 3966 4525 4313 4306 
L 4313 3634 
Q 3963 3931 3569 4081 
Q 3175 4231 2741 4231 
Q 1884 4231 1454 3753 
Q 1025 3275 1025 2328 
Q 1025 1384 1454 906 
Q 1884 428 2741 428 
Q 3075 428 3337 486 
Q 3600 544 3809 666 
z
" transform="scale(0.015625)"/>
       </defs>
       <use xlink:href="#DejaVuSans-78"/>
       <use xlink:href="#DejaVuSans-47" transform="translate(59.179688 0)"/>
       <use xlink:href="#DejaVuSans-20" transform="translate(136.669922 0)"/>
       <use xlink:href="#DejaVuSans-70" transform="translate(168.457031 0)"/>
       <use xlink:href="#DejaVuSans-39" transform="translate(231.933594 0)"/>
       <use xlink:href="#DejaVuSans-30" transform="translate(295.556641 0)"/>
      </g>
     </g>
    </g>
   </g>
   <g id="matplotlib.axis_2">
    <g id="ytick_1">
     <g id="line2d_9">
      <path d="M 259.211562 223.964688 
C 264.671798 223.964688 270.07894 225.040235 275.12354 227.129777 
C 280.16814 229.219318 284.752093 232.282218 288.613062 236.143188 
C 292.474032 240.004157 295.536932 244.58811 297.626473 249.63271 
C 299.716015 254.67731 300.791562 260.084452 300.791562 265.544688 
C 300.791562 271.004923 299.716015 276.412065 297.626473 281.456665 
C 295.536932 286.501265 292.474032 291.085218 288.613062 294.946187 
C 284.752093 298.807157 280.16814 301.870057 275.12354 303.959598 
C 270.07894 306.04914 264.671798 307.124688 259.211562 307.124688 
C 253.751327 307.124688 248.344185 306.04914 243.299585 303.959598 
C 238.254985 301.870057 233.671032 298.807157 229.810063 294.946187 
C 225.949093 291.085218 222.886193 286.501265 220.796652 281.456665 
C 218.70711 276.412065 217.631562 271.004923 217.631562 265.544688 
C 217.631562 260.084452 218.70711 254.67731 220.796652 249.63271 
C 222.886193 244.58811 225.949093 240.004157 229.810063 236.143188 
C 233.671032 232.282218 238.254985 229.219318 243.299585 227.129777 
C 248.344185 225.040235 253.751327 223.964688 259.211562 223.964688 
" clip-path="url(#p61977cfae4)" style="fill: none; stroke-dasharray: 0.7,1.155; stroke-dashoffset: 0; stroke: #e5e5e5; stroke-width: 0.7"/>
     </g>
     <g id="text_9">
      <!-- 20 -->
      <g transform="translate(259.211562 221.469063) scale(0.12 -0.12)">
       <defs>
        <path id="DejaVuSans-32" d="M 1228 531 
L 3431 531 
L 3431 0 
L 469 0 
L 469 531 
Q 828 903 1448 1529 
Q 2069 2156 2228 2338 
Q 2531 2678 2651 2914 
Q 2772 3150 2772 3378 
Q 2772 3750 2511 3984 
Q 2250 4219 1831 4219 
Q 1534 4219 1204 4116 
Q 875 4013 500 3803 
L 500 4441 
Q 881 4594 1212 4672 
Q 1544 4750 1819 4750 
Q 2544 4750 2975 4387 
Q 3406 4025 3406 3419 
Q 3406 3131 3298 2873 
Q 3191 2616 2906 2266 
Q 2828 2175 2409 1742 
Q 1991 1309 1228 531 
z
" transform="scale(0.015625)"/>
       </defs>
       <use xlink:href="#DejaVuSans-32"/>
       <use xlink:href="#DejaVuSans-30" transform="translate(63.623047 0)"/>
      </g>
     </g>
    </g>
    <g id="ytick_2">
     <g id="line2d_10">
      <path d="M 259.211562 182.384688 
C 270.132034 182.384688 280.946317 184.535782 291.035517 188.714866 
C 301.124717 192.893949 310.292623 199.019748 318.014562 206.741688 
C 325.736502 214.463627 331.862301 223.631533 336.041384 233.720733 
C 340.220468 243.809933 342.371562 254.624216 342.371562 265.544688 
C 342.371562 276.465159 340.220468 287.279442 336.041384 297.368642 
C 331.862301 307.457842 325.736502 316.625748 318.014562 324.347687 
C 310.292623 332.069627 301.124717 338.195426 291.035517 342.374509 
C 280.946317 346.553593 270.132034 348.704688 259.211562 348.704688 
C 248.291091 348.704688 237.476808 346.553593 227.387608 342.374509 
C 217.298408 338.195426 208.130502 332.069627 200.408563 324.347687 
C 192.686623 316.625748 186.560824 307.457842 182.381741 297.368642 
C 178.202657 287.279442 176.051562 276.465159 176.051562 265.544688 
C 176.051562 254.624216 178.202657 243.809933 182.381741 233.720733 
C 186.560824 223.631533 192.686623 214.463627 200.408563 206.741688 
C 208.130502 199.019748 217.298408 192.893949 227.387608 188.714866 
C 237.476808 184.535782 248.291091 182.384688 259.211562 182.384688 
" clip-path="url(#p61977cfae4)" style="fill: none; stroke-dasharray: 0.7,1.155; stroke-dashoffset: 0; stroke: #e5e5e5; stroke-width: 0.7"/>
     </g>
     <g id="text_10">
      <!-- 40 -->
      <g transform="translate(259.211562 179.889063) scale(0.12 -0.12)">
       <defs>
        <path id="DejaVuSans-34" d="M 2419 4116 
L 825 1625 
L 2419 1625 
L 2419 4116 
z
M 2253 4666 
L 3047 4666 
L 3047 1625 
L 3713 1625 
L 3713 1100 
L 3047 1100 
L 3047 0 
L 2419 0 
L 2419 1100 
L 313 1100 
L 313 1709 
L 2253 4666 
z
" transform="scale(0.015625)"/>
       </defs>
       <use xlink:href="#DejaVuSans-34"/>
       <use xlink:href="#DejaVuSans-30" transform="translate(63.623047 0)"/>
      </g>
     </g>
    </g>
    <g id="ytick_3">
     <g id="line2d_11">
      <path d="M 259.211562 140.804688 
C 275.592269 140.804688 291.813694 144.03133 306.947494 150.299955 
C 322.081294 156.56858 335.833154 165.757279 347.416062 177.340188 
C 358.998971 188.923096 368.18767 202.674956 374.456295 217.808756 
C 380.72492 232.942556 383.951562 249.163981 383.951562 265.544688 
C 383.951562 281.925394 380.72492 298.146819 374.456295 313.280619 
C 368.18767 328.414419 358.998971 342.166279 347.416062 353.749187 
C 335.833154 365.332096 322.081294 374.520795 306.947494 380.78942 
C 291.813694 387.058045 275.592269 390.284688 259.211562 390.284688 
C 242.830856 390.284688 226.609431 387.058045 211.475631 380.78942 
C 196.341831 374.520795 182.589971 365.332096 171.007063 353.749187 
C 159.424154 342.166279 150.235455 328.414419 143.96683 313.280619 
C 137.698205 298.146819 134.471562 281.925394 134.471562 265.544688 
C 134.471562 249.163981 137.698205 232.942556 143.96683 217.808756 
C 150.235455 202.674956 159.424154 188.923096 171.007063 177.340188 
C 182.589971 165.757279 196.341831 156.56858 211.475631 150.299955 
C 226.609431 144.03133 242.830856 140.804688 259.211562 140.804688 
" clip-path="url(#p61977cfae4)" style="fill: none; stroke-dasharray: 0.7,1.155; stroke-dashoffset: 0; stroke: #e5e5e5; stroke-width: 0.7"/>
     </g>
     <g id="text_11">
      <!-- 60 -->
      <g transform="translate(259.211562 138.309063) scale(0.12 -0.12)">
       <defs>
        <path id="DejaVuSans-36" d="M 2113 2584 
Q 1688 2584 1439 2293 
Q 1191 2003 1191 1497 
Q 1191 994 1439 701 
Q 1688 409 2113 409 
Q 2538 409 2786 701 
Q 3034 994 3034 1497 
Q 3034 2003 2786 2293 
Q 2538 2584 2113 2584 
z
M 3366 4563 
L 3366 3988 
Q 3128 4100 2886 4159 
Q 2644 4219 2406 4219 
Q 1781 4219 1451 3797 
Q 1122 3375 1075 2522 
Q 1259 2794 1537 2939 
Q 1816 3084 2150 3084 
Q 2853 3084 3261 2657 
Q 3669 2231 3669 1497 
Q 3669 778 3244 343 
Q 2819 -91 2113 -91 
Q 1303 -91 875 529 
Q 447 1150 447 2328 
Q 447 3434 972 4092 
Q 1497 4750 2381 4750 
Q 2619 4750 2861 4703 
Q 3103 4656 3366 4563 
z
" transform="scale(0.015625)"/>
       </defs>
       <use xlink:href="#DejaVuSans-36"/>
       <use xlink:href="#DejaVuSans-30" transform="translate(63.623047 0)"/>
      </g>
     </g>
    </g>
    <g id="ytick_4">
     <g id="line2d_12">
      <path d="M 259.211562 99.224688 
C 281.052505 99.224688 302.681071 103.526877 322.859471 111.885044 
C 343.037871 120.24321 361.373684 132.494809 376.817562 147.938688 
C 392.261441 163.382566 404.51304 181.718379 412.871206 201.896779 
C 421.229373 222.075179 425.531562 243.703745 425.531562 265.544688 
C 425.531562 287.38563 421.229373 309.014196 412.871206 329.192596 
C 404.51304 349.370996 392.261441 367.706809 376.817562 383.150687 
C 361.373684 398.594566 343.037871 410.846165 322.859471 419.204331 
C 302.681071 427.562498 281.052505 431.864688 259.211562 431.864688 
C 237.37062 431.864688 215.742054 427.562498 195.563654 419.204331 
C 175.385254 410.846165 157.049441 398.594566 141.605563 383.150687 
C 126.161684 367.706809 113.910085 349.370996 105.551919 329.192596 
C 97.193752 309.014196 92.891562 287.38563 92.891562 265.544688 
C 92.891562 243.703745 97.193752 222.075179 105.551919 201.896779 
C 113.910085 181.718379 126.161684 163.382566 141.605563 147.938688 
C 157.049441 132.494809 175.385254 120.24321 195.563654 111.885044 
C 215.742054 103.526877 237.37062 99.224688 259.211562 99.224688 
" clip-path="url(#p61977cfae4)" style="fill: none; stroke-dasharray: 0.7,1.155; stroke-dashoffset: 0; stroke: #e5e5e5; stroke-width: 0.7"/>
     </g>
     <g id="text_12">
      <!-- 80 -->
      <g transform="translate(259.211562 96.729063) scale(0.12 -0.12)">
       <defs>
        <path id="DejaVuSans-38" d="M 2034 2216 
Q 1584 2216 1326 1975 
Q 1069 1734 1069 1313 
Q 1069 891 1326 650 
Q 1584 409 2034 409 
Q 2484 409 2743 651 
Q 3003 894 3003 1313 
Q 3003 1734 2745 1975 
Q 2488 2216 2034 2216 
z
M 1403 2484 
Q 997 2584 770 2862 
Q 544 3141 544 3541 
Q 544 4100 942 4425 
Q 1341 4750 2034 4750 
Q 2731 4750 3128 4425 
Q 3525 4100 3525 3541 
Q 3525 3141 3298 2862 
Q 3072 2584 2669 2484 
Q 3125 2378 3379 2068 
Q 3634 1759 3634 1313 
Q 3634 634 3220 271 
Q 2806 -91 2034 -91 
Q 1263 -91 848 271 
Q 434 634 434 1313 
Q 434 1759 690 2068 
Q 947 2378 1403 2484 
z
M 1172 3481 
Q 1172 3119 1398 2916 
Q 1625 2713 2034 2713 
Q 2441 2713 2670 2916 
Q 2900 3119 2900 3481 
Q 2900 3844 2670 4047 
Q 2441 4250 2034 4250 
Q 1625 4250 1398 4047 
Q 1172 3844 1172 3481 
z
" transform="scale(0.015625)"/>
       </defs>
       <use xlink:href="#DejaVuSans-38"/>
       <use xlink:href="#DejaVuSans-30" transform="translate(63.623047 0)"/>
      </g>
     </g>
    </g>
    <g id="ytick_5">
     <g id="line2d_13">
      <path d="M 259.211562 57.644688 
C 286.51274 57.644688 313.548449 63.022424 338.771448 73.470133 
C 363.994448 83.917841 386.914214 99.23234 406.219062 118.537188 
C 425.52391 137.842036 440.838409 160.761802 451.286117 185.984802 
C 461.733826 211.207801 467.111562 238.24351 467.111562 265.544688 
C 467.111562 292.845865 461.733826 319.881574 451.286117 345.104573 
C 440.838409 370.327573 425.52391 393.247339 406.219062 412.552187 
C 386.914214 431.857035 363.994448 447.171534 338.771448 457.619242 
C 313.548449 468.066951 286.51274 473.444688 259.211562 473.444688 
C 231.910385 473.444688 204.874676 468.066951 179.651677 457.619242 
C 154.428677 447.171534 131.508911 431.857035 112.204063 412.552187 
C 92.899215 393.247339 77.584716 370.327573 67.137008 345.104573 
C 56.689299 319.881574 51.311562 292.845865 51.311562 265.544688 
C 51.311562 238.24351 56.689299 211.207801 67.137008 185.984802 
C 77.584716 160.761802 92.899215 137.842036 112.204063 118.537188 
C 131.508911 99.23234 154.428677 83.917841 179.651677 73.470133 
C 204.874676 63.022424 231.910385 57.644688 259.211562 57.644688 
" clip-path="url(#p61977cfae4)" style="fill: none; stroke-dasharray: 0.7,1.155; stroke-dashoffset: 0; stroke: #e5e5e5; stroke-width: 0.7"/>
     </g>
     <g id="text_13">
      <!-- 100 -->
      <g transform="translate(259.211562 55.149063) scale(0.12 -0.12)">
       <defs>
        <path id="DejaVuSans-31" d="M 794 531 
L 1825 531 
L 1825 4091 
L 703 3866 
L 703 4441 
L 1819 4666 
L 2450 4666 
L 2450 531 
L 3481 531 
L 3481 0 
L 794 0 
L 794 531 
z
" transform="scale(0.015625)"/>
       </defs>
       <use xlink:href="#DejaVuSans-31"/>
       <use xlink:href="#DejaVuSans-30" transform="translate(63.623047 0)"/>
       <use xlink:href="#DejaVuSans-30" transform="translate(127.246094 0)"/>
      </g>
     </g>
    </g>
    <g id="text_14">
     <!-- percentile -->
     <g transform="translate(44.815937 295.548438) rotate(-90) scale(0.12 -0.12)">
      <use xlink:href="#DejaVuSans-70"/>
      <use xlink:href="#DejaVuSans-65" transform="translate(63.476562 0)"/>
      <use xlink:href="#DejaVuSans-72" transform="translate(125 0)"/>
      <use xlink:href="#DejaVuSans-63" transform="translate(163.863281 0)"/>
      <use xlink:href="#DejaVuSans-65" transform="translate(218.84375 0)"/>
      <use xlink:href="#DejaVuSans-6e" transform="translate(280.367188 0)"/>
      <use xlink:href="#DejaVuSans-74" transform="translate(343.746094 0)"/>
      <use xlink:href="#DejaVuSans-69" transform="translate(382.955078 0)"/>
      <use xlink:href="#DejaVuSans-6c" transform="translate(410.738281 0)"/>
      <use xlink:href="#DejaVuSans-65" transform="translate(438.521484 0)"/>
     </g>
    </g>
   </g>
   <g id="line2d_14">
    <path d="M 259.211562 134.016116 
L 361.216766 163.539484 
L 373.768705 265.544688 
L 340.215695 346.54882 
L 259.211562 375.858973 
L 172.207124 352.549126 
L 123.440134 265.544688 
L 139.20544 145.538565 
L 259.211562 134.016116 
" clip-path="url(#p61977cfae4)" style="fill: none; stroke: #1f77b4; stroke-width: 2; stroke-linecap: square"/>
   </g>
   <g id="patch_4">
    <path d="M 259.211562 57.644688 
C 231.910385 57.644688 204.874676 63.022424 179.651677 73.470133 
C 154.428677 83.917841 131.508911 99.23234 112.204063 118.537188 
C 92.899215 137.842036 77.584716 160.761802 67.137008 185.984802 
C 56.689299 211.207801 51.311562 238.24351 51.311562 265.544688 
C 51.311562 292.845865 56.689299 319.881574 67.137008 345.104573 
C 77.584716 370.327573 92.899215 393.247339 112.204063 412.552187 
C 131.508911 431.857035 154.428677 447.171534 179.651677 457.619242 
C 204.874676 468.066951 231.910385 473.444688 259.211562 473.444688 
C 286.51274 473.444688 313.548449 468.066951 338.771448 457.619242 
C 363.994448 447.171534 386.914214 431.857035 406.219062 412.552187 
C 425.52391 393.247339 440.838409 370.327573 451.286117 345.104573 
C 461.733826 319.881574 467.111562 292.845865 467.111562 265.544688 
C 467.111562 238.24351 461.733826 211.207801 451.286117 185.984802 
C 440.838409 160.761802 425.52391 137.842036 406.219062 118.537188 
C 386.914214 99.23234 363.994448 83.917841 338.771448 73.470133 
C 313.548449 63.022424 286.51274 57.644688 259.211562 57.644688 
" style="fill: none; stroke: #000000; stroke-width: 0.8; stroke-linejoin: miter; stroke-linecap: square"/>
   </g>
   <g id="text_15">
    <!-- Pedri – Percentile per 90 (vs own matches) -->
    <g transform="translate(109.747344 17.837813) scale(0.14 -0.14)">
     <defs>
      <path id="DejaVuSans-64" d="M 2906 2969 
L 2906 4863 
L 3481 4863 
L 3481 0 
L 2906 0 
L 2906 525 
Q 2725 213 2448 61 
Q 2172 -91 1784 -91 
Q 1150 -91 751 415 
Q 353 922 353 1747 
Q 353 2572 751 3078 
Q 1150 3584 1784 3584 
Q 2172 3584 2448 3432 
Q 2725 3281 2906 2969 
z
M 947 1747 
Q 947 1113 1208 752 
Q 1469 391 1925 391 
Q 2381 391 2643 752 
Q 2906 1113 2906 1747 
Q 2906 2381 2643 2742 
Q 2381 3103 1925 3103 
Q 1469 3103 1208 2742 
Q 947 2381 947 1747 
z
" transform="scale(0.015625)"/>
      <path id="DejaVuSans-2013" d="M 313 1978 
L 2888 1978 
L 2888 1528 
L 313 1528 
L 313 1978 
z
" transform="scale(0.015625)"/>
      <path id="DejaVuSans-28" d="M 1984 4856 
Q 1566 4138 1362 3434 
Q 1159 2731 1159 2009 
Q 1159 1288 1364 580 
Q 1569 -128 1984 -844 
L 1484 -844 
Q 1016 -109 783 600 
Q 550 1309 550 2009 
Q 550 2706 781 3412 
Q 1013 4119 1484 4856 
L 1984 4856 
z
" transform="scale(0.015625)"/>
      <path id="DejaVuSans-76" d="M 191 3500 
L 800 3500 
L 1894 563 
L 2988 3500 
L 3597 3500 
L 2284 0 
L 1503 0 
L 191 3500 
z
" transform="scale(0.015625)"/>
      <path id="DejaVuSans-77" d="M 269 3500 
L 844 3500 
L 1563 769 
L 2278 3500 
L 2956 3500 
L 3675 769 
L 4391 3500 
L 4966 3500 
L 4050 0 
L 3372 0 
L 2619 2869 
L 1863 0 
L 1184 0 
L 269 3500 
z
" transform="scale(0.015625)"/>
      <path id="DejaVuSans-6d" d="M 3328 2828 
Q 3544 3216 3844 3400 
Q 4144 3584 4550 3584 
Q 5097 3584 5394 3201 
Q 5691 2819 5691 2113 
L 5691 0 
L 5113 0 
L 5113 2094 
Q 5113 2597 4934 2840 
Q 4756 3084 4391 3084 
Q 3944 3084 3684 2787 
Q 3425 2491 3425 1978 
L 3425 0 
L 2847 0 
L 2847 2094 
Q 2847 2600 2669 2842 
Q 2491 3084 2119 3084 
Q 1678 3084 1418 2786 
Q 1159 2488 1159 1978 
L 1159 0 
L 581 0 
L 581 3500 
L 1159 3500 
L 1159 2956 
Q 1356 3278 1631 3431 
Q 1906 3584 2284 3584 
Q 2666 3584 2933 3390 
Q 3200 3197 3328 2828 
z
" transform="scale(0.015625)"/>
      <path id="DejaVuSans-29" d="M 513 4856 
L 1013 4856 
Q 1481 4119 1714 3412 
Q 1947 2706 1947 2009 
Q 1947 1309 1714 600 
Q 1481 -109 1013 -844 
L 513 -844 
Q 928 -128 1133 580 
Q 1338 1288 1338 2009 
Q 1338 2731 1133 3434 
Q 928 4138 513 4856 
z
" transform="scale(0.015625)"/>
     </defs>
     <use xlink:href="#DejaVuSans-50"/>
     <use xlink:href="#DejaVuSans-65" transform="translate(56.677734 0)"/>
     <use xlink:href="#DejaVuSans-64" transform="translate(118.201172 0)"/>
     <use xlink:href="#DejaVuSans-72" transform="translate(181.677734 0)"/>
     <use xlink:href="#DejaVuSans-69" transform="translate(222.791016 0)"/>
     <use xlink:href="#DejaVuSans-20" transform="translate(250.574219 0)"/>
     <use xlink:href="#DejaVuSans-2013" transform="translate(282.361328 0)"/>
     <use xlink:href="#DejaVuSans-20" transform="translate(332.361328 0)"/>
     <use xlink:href="#DejaVuSans-50" transform="translate(364.148438 0)"/>
     <use xlink:href="#DejaVuSans-65" transform="translate(420.826172 0)"/>
     <use xlink:href="#DejaVuSans-72" transform="translate(482.349609 0)"/>
     <use xlink:href="#DejaVuSans-63" transform="translate(521.212891 0)"/>
     <use xlink:href="#DejaVuSans-65" transform="translate(576.193359 0)"/>
     <use xlink:href="#DejaVuSans-6e" transform="translate(637.716797 0)"/>
     <use xlink:href="#DejaVuSans-74" transform="translate(701.095703 0)"/>
     <use xlink:href="#DejaVuSans-69" transform="translate(740.304688 0)"/>
     <use xlink:href="#DejaVuSans-6c" transform="translate(768.087891 0)"/>
     <use xlink:href="#DejaVuSans-65" transform="translate(795.871094 0)"/>
     <use xlink:href="#DejaVuSans-20" transform="translate(857.394531 0)"/>
     <use xlink:href="#DejaVuSans-70" transform="translate(889.181641 0)"/>
     <use xlink:href="#DejaVuSans-65" transform="translate(952.658203 0)"/>
     <use xlink:href="#DejaVuSans-72" transform="translate(1014.181641 0)"/>
     <use xlink:href="#DejaVuSans-20" transform="translate(1055.294922 0)"/>
     <use xlink:href="#DejaVuSans-39" transform="translate(1087.082031 0)"/>
     <use xlink:href="#DejaVuSans-30" transform="translate(1150.705078 0)"/>
     <use xlink:href="#DejaVuSans-20" transform="translate(1214.328125 0)"/>
     <use xlink:href="#DejaVuSans-28" transform="translate(1246.115234 0)"/>
     <use xlink:href="#DejaVuSans-76" transform="translate(1285.128906 0)"/>
     <use xlink:href="#DejaVuSans-73" transform="translate(1344.308594 0)"/>
     <use xlink:href="#DejaVuSans-20" transform="translate(1396.408203 0)"/>
     <use xlink:href="#DejaVuSans-6f" transform="translate(1428.195312 0)"/>
     <use xlink:href="#DejaVuSans-77" transform="translate(1489.376953 0)"/>
     <use xlink:href="#DejaVuSans-6e" transform="translate(1571.164062 0)"/>
     <use xlink:href="#DejaVuSans-20" transform="translate(1634.542969 0)"/>
     <use xlink:href="#DejaVuSans-6d" transform="translate(1666.330078 0)"/>
     <use xlink:href="#DejaVuSans-61" transform="translate(1763.742188 0)"/>
     <use xlink:href="#DejaVuSans-74" transform="translate(1825.021484 0)"/>
     <use xlink:href="#DejaVuSans-63" transform="translate(1864.230469 0)"/>
     <use xlink:href="#DejaVuSans-68" transform="translate(1919.210938 0)"/>
     <use xlink:href="#DejaVuSans-65" transform="translate(1982.589844 0)"/>
     <use xlink:href="#DejaVuSans-73" transform="translate(2044.113281 0)"/>
     <use xlink:href="#DejaVuSans-29" transform="translate(2096.212891 0)"/>
    </g>
   </g>
  </g>
 </g>
 <defs>
  <clipPath id="p61977cfae4">
   <path d="M 467.111562 265.544688 
C 467.111562 238.24351 461.733826 211.207801 451.286117 185.984802 
C 440.838409 160.761802 425.52391 137.842036 406.219062 118.537188 
C 386.914214 99.23234 363.994448 83.917841 338.771448 73.470133 
C 313.548449 63.022424 286.51274 57.644688 259.211562 57.644688 
C 231.910385 57.644688 204.874676 63.022424 179.651677 73.470133 
C 154.428677 83.917841 131.508911 99.23234 112.204063 118.537188 
C 92.899215 137.842036 77.584716 160.761802 67.137008 185.984802 
C 56.689299 211.207801 51.311562 238.24351 51.311562 265.544688 
C 51.311562 292.845865 56.689299 319.881574 67.137008 345.104573 
C 77.584716 370.327573 92.899215 393.247339 112.204063 412.552187 
C 131.508911 431.857035 154.428677 447.171534 179.651677 457.619242 
C 204.874676 468.066951 231.910385 473.444688 259.211562 473.444688 
C 286.51274 473.444688 313.548449 468.066951 338.771448 457.619242 
C 363.994448 447.171534 386.914214 431.857035 406.219062 412.552187 
C 425.52391 393.247339 440.838409 370.327573 451.286117 345.104573 
C 461.733826 319.881574 467.111562 292.845865 467.111562 265.544688 
M 259.211562 265.544688 
C 259.211562 265.544688 259.211562 265.544688 259.211562 265.544688 
C 259.211562 265.544688 259.211562 265.544688 259.211562 265.544688 
C 259.211562 265.544688 259.211562 265.544688 259.211562 265.544688 
C 259.211562 265.544688 259.211562 265.544688 259.211562 265.544688 
C 259.211562 265.544688 259.211562 265.544688 259.211562 265.544688 
C 259.211562 265.544688 259.211562 265.544688 259.211562 265.544688 
C 259.211562 265.544688 259.211562 265.544688 259.211562 265.544688 
C 259.211562 265.544688 259.211562 265.544688 259.211562 265.544688 
C 259.211562 265.544688 259.211562 265.544688 259.211562 265.544688 
C 259.211562 265.544688 259.211562 265.544688 259.211562 265.544688 
C 259.211562 265.544688 259.211562 265.544688 259.211562 265.544688 
C 259.211562 265.544688 259.211562 265.544688 259.211562 265.544688 
C 259.211562 265.544688 259.211562 265.544688 259.211562 265.544688 
C 259.211562 265.544688 259.211562 265.544688 259.211562 265.544688 
C 259.211562 265.544688 259.211562 265.544688 259.211562 265.544688 
C 259.211562 265.544688 259.211562 265.544688 259.211562 265.544688 
z
"/>
  </clipPath>
 </defs>
</svg>
