<?xml version="1.0" encoding="utf-8" standalone="no"?>
<!DOCTYPE svg PUBLIC "-//W3C//DTD SVG 1.1//EN"
  "http://www.w3.org/Graphics/SVG/1.1/DTD/svg11.dtd">
<svg xmlns:xlink="http://www.w3.org/1999/xlink" width="708.13875pt" height="419.725409pt" viewBox="0 0 708.13875 419.725409" xmlns="http://www.w3.org/2000/svg" version="1.1">
 <metadata>
  <rdf:RDF xmlns:dc="http://purl.org/dc/elements/1.1/" xmlns:cc="http://creativecommons.org/ns#" xmlns:rdf="http://www.w3.org/1999/02/22-rdf-syntax-ns#">
   <cc:Work>
    <dc:type rdf:resource="http://purl.org/dc/dcmitype/StillImage"/>
    <dc:date>2025-08-14T20:10:51.679052</dc:date>
    <dc:format>image/svg+xml</dc:format>
    <dc:creator>
     <cc:Agent>
      <dc:title>Matplotlib v3.10.3, https://matplotlib.org/</dc:title>
     </cc:Agent>
    </dc:creator>
   </cc:Work>
  </rdf:RDF>
 </metadata>
 <defs>
  <style type="text/css">*{stroke-linejoin: round; stroke-linecap: butt}</style>
 </defs>
 <g id="figure_1">
  <g id="patch_1">
   <path d="M 0 419.725409 
L 708.13875 419.725409 
L 708.13875 0 
L 0 0 
z
" style="fill: #ffffff"/>
  </g>
  <g id="axes_1">
   <g id="patch_2">
    <path d="M 45.08375 343.908176 
L 700.93875 343.908176 
L 700.93875 23.837812 
L 45.08375 23.837812 
z
" style="fill: #ffffff"/>
   </g>
   <g id="patch_3">
    <path d="M 53.281937 343.908176 
L 69.678313 343.908176 
L 69.678313 39.079258 
L 53.281937 39.079258 
z
" clip-path="url(#pcaf18f7f70)" style="fill: #1f77b4"/>
   </g>
   <g id="patch_4">
    <path d="M 86.074687 343.908176 
L 102.471062 343.908176 
L 102.471062 39.079258 
L 86.074687 39.079258 
z
" clip-path="url(#pcaf18f7f70)" style="fill: #1f77b4"/>
   </g>
   <g id="patch_5">
    <path d="M 118.867437 343.908176 
L 135.263813 343.908176 
L 135.263813 173.562604 
L 118.867437 173.562604 
z
" clip-path="url(#pcaf18f7f70)" style="fill: #1f77b4"/>
   </g>
   <g id="patch_6">
    <path d="M 151.660188 343.908176 
L 168.056563 343.908176 
L 168.056563 182.528161 
L 151.660188 182.528161 
z
" clip-path="url(#pcaf18f7f70)" style="fill: #1f77b4"/>
   </g>
   <g id="patch_7">
    <path d="M 184.452937 343.908176 
L 200.849312 343.908176 
L 200.849312 191.493717 
L 184.452937 191.493717 
z
" clip-path="url(#pcaf18f7f70)" style="fill: #1f77b4"/>
   </g>
   <g id="patch_8">
    <path d="M 217.245687 343.908176 
L 233.642062 343.908176 
L 233.642062 209.42483 
L 217.245687 209.42483 
z
" clip-path="url(#pcaf18f7f70)" style="fill: #1f77b4"/>
   </g>
   <g id="patch_9">
    <path d="M 250.038437 343.908176 
L 266.434812 343.908176 
L 266.434812 209.42483 
L 250.038437 209.42483 
z
" clip-path="url(#pcaf18f7f70)" style="fill: #1f77b4"/>
   </g>
   <g id="patch_10">
    <path d="M 282.831187 343.908176 
L 299.227562 343.908176 
L 299.227562 236.321499 
L 282.831187 236.321499 
z
" clip-path="url(#pcaf18f7f70)" style="fill: #1f77b4"/>
   </g>
   <g id="patch_11">
    <path d="M 315.623938 343.908176 
L 332.020312 343.908176 
L 332.020312 245.287056 
L 315.623938 245.287056 
z
" clip-path="url(#pcaf18f7f70)" style="fill: #1f77b4"/>
   </g>
   <g id="patch_12">
    <path d="M 348.416687 343.908176 
L 364.813062 343.908176 
L 364.813062 245.287056 
L 348.416687 245.287056 
z
" clip-path="url(#pcaf18f7f70)" style="fill: #1f77b4"/>
   </g>
   <g id="patch_13">
    <path d="M 381.209437 343.908176 
L 397.605812 343.908176 
L 397.605812 254.252612 
L 381.209437 254.252612 
z
" clip-path="url(#pcaf18f7f70)" style="fill: #1f77b4"/>
   </g>
   <g id="patch_14">
    <path d="M 414.002187 343.908176 
L 430.398562 343.908176 
L 430.398562 263.218169 
L 414.002187 263.218169 
z
" clip-path="url(#pcaf18f7f70)" style="fill: #1f77b4"/>
   </g>
   <g id="patch_15">
    <path d="M 446.794937 343.908176 
L 463.191312 343.908176 
L 463.191312 272.183725 
L 446.794937 272.183725 
z
" clip-path="url(#pcaf18f7f70)" style="fill: #1f77b4"/>
   </g>
   <g id="patch_16">
    <path d="M 479.587687 343.908176 
L 495.984062 343.908176 
L 495.984062 272.183725 
L 479.587687 272.183725 
z
" clip-path="url(#pcaf18f7f70)" style="fill: #1f77b4"/>
   </g>
   <g id="patch_17">
    <path d="M 512.380437 343.908176 
L 528.776813 343.908176 
L 528.776813 272.183725 
L 512.380437 272.183725 
z
" clip-path="url(#pcaf18f7f70)" style="fill: #1f77b4"/>
   </g>
   <g id="patch_18">
    <path d="M 545.173188 343.908176 
L 561.569563 343.908176 
L 561.569563 281.149281 
L 545.173188 281.149281 
z
" clip-path="url(#pcaf18f7f70)" style="fill: #1f77b4"/>
   </g>
   <g id="patch_19">
    <path d="M 577.965937 343.908176 
L 594.362313 343.908176 
L 594.362313 281.149281 
L 577.965937 281.149281 
z
" clip-path="url(#pcaf18f7f70)" style="fill: #1f77b4"/>
   </g>
   <g id="patch_20">
    <path d="M 610.758688 343.908176 
L 627.155063 343.908176 
L 627.155063 281.149281 
L 610.758688 281.149281 
z
" clip-path="url(#pcaf18f7f70)" style="fill: #1f77b4"/>
   </g>
   <g id="patch_21">
    <path d="M 643.551438 343.908176 
L 659.947813 343.908176 
L 659.947813 281.149281 
L 643.551438 281.149281 
z
" clip-path="url(#pcaf18f7f70)" style="fill: #1f77b4"/>
   </g>
   <g id="patch_22">
    <path d="M 676.344187 343.908176 
L 692.740563 343.908176 
L 692.740563 290.114838 
L 676.344187 290.114838 
z
" clip-path="url(#pcaf18f7f70)" style="fill: #1f77b4"/>
   </g>
   <g id="matplotlib.axis_1">
    <g id="xtick_1">
     <g id="line2d_1">
      <path d="M 61.480125 343.908176 
L 61.480125 23.837812 
" clip-path="url(#pcaf18f7f70)" style="fill: none; stroke: #e5e5e5; stroke-width: 0.6; stroke-linecap: square"/>
     </g>
     <g id="line2d_2">
      <defs>
       <path id="m860f84eec9" d="M 0 0 
L 0 3.5 
" style="stroke: #000000; stroke-width: 0.8"/>
      </defs>
      <g>
       <use xlink:href="#m860f84eec9" x="61.480125" y="343.908176" style="stroke: #000000; stroke-width: 0.8"/>
      </g>
     </g>
     <g id="text_1">
      <!-- 3869220 -->
      <g transform="translate(21.92413 395.146986) rotate(-45) scale(0.12 -0.12)">
       <defs>
        <path id="DejaVuSans-33" d="M 2597 2516 
Q 3050 2419 3304 2112 
Q 3559 1806 3559 1356 
Q 3559 666 3084 287 
Q 2609 -91 1734 -91 
Q 1441 -91 1130 -33 
Q 819 25 488 141 
L 488 750 
Q 750 597 1062 519 
Q 1375 441 1716 441 
Q 2309 441 2620 675 
Q 2931 909 2931 1356 
Q 2931 1769 2642 2001 
Q 2353 2234 1838 2234 
L 1294 2234 
L 1294 2753 
L 1863 2753 
Q 2328 2753 2575 2939 
Q 2822 3125 2822 3475 
Q 2822 3834 2567 4026 
Q 2313 4219 1838 4219 
Q 1578 4219 1281 4162 
Q 984 4106 628 3988 
L 628 4550 
Q 988 4650 1302 4700 
Q 1616 4750 1894 4750 
Q 2613 4750 3031 4423 
Q 3450 4097 3450 3541 
Q 3450 3153 3228 2886 
Q 3006 2619 2597 2516 
z
" transform="scale(0.015625)"/>
        <path id="DejaVuSans-38" d="M 2034 2216 
Q 1584 2216 1326 1975 
Q 1069 1734 1069 1313 
Q 1069 891 1326 650 
Q 1584 409 2034 409 
Q 2484 409 2743 651 
Q 3003 894 3003 1313 
Q 3003 1734 2745 1975 
Q 2488 2216 2034 2216 
z
M 1403 2484 
Q 997 2584 770 2862 
Q 544 3141 544 3541 
Q 544 4100 942 4425 
Q 1341 4750 2034 4750 
Q 2731 4750 3128 4425 
Q 3525 4100 3525 3541 
Q 3525 3141 3298 2862 
Q 3072 2584 2669 2484 
Q 3125 2378 3379 2068 
Q 3634 1759 3634 1313 
Q 3634 634 3220 271 
Q 2806 -91 2034 -91 
Q 1263 -91 848 271 
Q 434 634 434 1313 
Q 434 1759 690 2068 
Q 947 2378 1403 2484 
z
M 1172 3481 
Q 1172 3119 1398 2916 
Q 1625 2713 2034 2713 
Q 2441 2713 2670 2916 
Q 2900 3119 2900 3481 
Q 2900 3844 2670 4047 
Q 2441 4250 2034 4250 
Q 1625 4250 1398 4047 
Q 1172 3844 1172 3481 
z
" transform="scale(0.015625)"/>
        <path id="DejaVuSans-36" d="M 2113 2584 
Q 1688 2584 1439 2293 
Q 1191 2003 1191 1497 
Q 1191 994 1439 701 
Q 1688 409 2113 409 
Q 2538 409 2786 701 
Q 3034 994 3034 1497 
Q 3034 2003 2786 2293 
Q 2538 2584 2113 2584 
z
M 3366 4563 
L 3366 3988 
Q 3128 4100 2886 4159 
Q 2644 4219 2406 4219 
Q 1781 4219 1451 3797 
Q 1122 3375 1075 2522 
Q 1259 2794 1537 2939 
Q 1816 3084 2150 3084 
Q 2853 3084 3261 2657 
Q 3669 2231 3669 1497 
Q 3669 778 3244 343 
Q 2819 -91 2113 -91 
Q 1303 -91 875 529 
Q 447 1150 447 2328 
Q 447 3434 972 4092 
Q 1497 4750 2381 4750 
Q 2619 4750 2861 4703 
Q 3103 4656 3366 4563 
z
" transform="scale(0.015625)"/>
        <path id="DejaVuSans-39" d="M 703 97 
L 703 672 
Q 941 559 1184 500 
Q 1428 441 1663 441 
Q 2288 441 2617 861 
Q 2947 1281 2994 2138 
Q 2813 1869 2534 1725 
Q 2256 1581 1919 1581 
Q 1219 1581 811 2004 
Q 403 2428 403 3163 
Q 403 3881 828 4315 
Q 1253 4750 1959 4750 
Q 2769 4750 3195 4129 
Q 3622 3509 3622 2328 
Q 3622 1225 3098 567 
Q 2575 -91 1691 -91 
Q 1453 -91 1209 -44 
Q 966 3 703 97 
z
M 1959 2075 
Q 2384 2075 2632 2365 
Q 2881 2656 2881 3163 
Q 2881 3666 2632 3958 
Q 2384 4250 1959 4250 
Q 1534 4250 1286 3958 
Q 1038 3666 1038 3163 
Q 1038 2656 1286 2365 
Q 1534 2075 1959 2075 
z
" transform="scale(0.015625)"/>
        <path id="DejaVuSans-32" d="M 1228 531 
L 3431 531 
L 3431 0 
L 469 0 
L 469 531 
Q 828 903 1448 1529 
Q 2069 2156 2228 2338 
Q 2531 2678 2651 2914 
Q 2772 3150 2772 3378 
Q 2772 3750 2511 3984 
Q 2250 4219 1831 4219 
Q 1534 4219 1204 4116 
Q 875 4013 500 3803 
L 500 4441 
Q 881 4594 1212 4672 
Q 1544 4750 1819 4750 
Q 2544 4750 2975 4387 
Q 3406 4025 3406 3419 
Q 3406 3131 3298 2873 
Q 3191 2616 2906 2266 
Q 2828 2175 2409 1742 
Q 1991 1309 1228 531 
z
" transform="scale(0.015625)"/>
        <path id="DejaVuSans-30" d="M 2034 4250 
Q 1547 4250 1301 3770 
Q 1056 3291 1056 2328 
Q 1056 1369 1301 889 
Q 1547 409 2034 409 
Q 2525 409 2770 889 
Q 3016 1369 3016 2328 
Q 3016 3291 2770 3770 
Q 2525 4250 2034 4250 
z
M 2034 4750 
Q 2819 4750 3233 4129 
Q 3647 3509 3647 2328 
Q 3647 1150 3233 529 
Q 2819 -91 2034 -91 
Q 1250 -91 836 529 
Q 422 1150 422 2328 
Q 422 3509 836 4129 
Q 1250 4750 2034 4750 
z
" transform="scale(0.015625)"/>
       </defs>
       <use xlink:href="#DejaVuSans-33"/>
       <use xlink:href="#DejaVuSans-38" transform="translate(63.623047 0)"/>
       <use xlink:href="#DejaVuSans-36" transform="translate(127.246094 0)"/>
       <use xlink:href="#DejaVuSans-39" transform="translate(190.869141 0)"/>
       <use xlink:href="#DejaVuSans-32" transform="translate(254.492188 0)"/>
       <use xlink:href="#DejaVuSans-32" transform="translate(318.115234 0)"/>
       <use xlink:href="#DejaVuSans-30" transform="translate(381.738281 0)"/>
      </g>
     </g>
    </g>
    <g id="xtick_2">
     <g id="line2d_3">
      <path d="M 94.272875 343.908176 
L 94.272875 23.837812 
" clip-path="url(#pcaf18f7f70)" style="fill: none; stroke: #e5e5e5; stroke-width: 0.6; stroke-linecap: square"/>
     </g>
     <g id="line2d_4">
      <g>
       <use xlink:href="#m860f84eec9" x="94.272875" y="343.908176" style="stroke: #000000; stroke-width: 0.8"/>
      </g>
     </g>
     <g id="text_2">
      <!-- 3788750 -->
      <g transform="translate(54.71688 395.146986) rotate(-45) scale(0.12 -0.12)">
       <defs>
        <path id="DejaVuSans-37" d="M 525 4666 
L 3525 4666 
L 3525 4397 
L 1831 0 
L 1172 0 
L 2766 4134 
L 525 4134 
L 525 4666 
z
" transform="scale(0.015625)"/>
        <path id="DejaVuSans-35" d="M 691 4666 
L 3169 4666 
L 3169 4134 
L 1269 4134 
L 1269 2991 
Q 1406 3038 1543 3061 
Q 1681 3084 1819 3084 
Q 2600 3084 3056 2656 
Q 3513 2228 3513 1497 
Q 3513 744 3044 326 
Q 2575 -91 1722 -91 
Q 1428 -91 1123 -41 
Q 819 9 494 109 
L 494 744 
Q 775 591 1075 516 
Q 1375 441 1709 441 
Q 2250 441 2565 725 
Q 2881 1009 2881 1497 
Q 2881 1984 2565 2268 
Q 2250 2553 1709 2553 
Q 1456 2553 1204 2497 
Q 953 2441 691 2322 
L 691 4666 
z
" transform="scale(0.015625)"/>
       </defs>
       <use xlink:href="#DejaVuSans-33"/>
       <use xlink:href="#DejaVuSans-37" transform="translate(63.623047 0)"/>
       <use xlink:href="#DejaVuSans-38" transform="translate(127.246094 0)"/>
       <use xlink:href="#DejaVuSans-38" transform="translate(190.869141 0)"/>
       <use xlink:href="#DejaVuSans-37" transform="translate(254.492188 0)"/>
       <use xlink:href="#DejaVuSans-35" transform="translate(318.115234 0)"/>
       <use xlink:href="#DejaVuSans-30" transform="translate(381.738281 0)"/>
      </g>
     </g>
    </g>
    <g id="xtick_3">
     <g id="line2d_5">
      <path d="M 127.065625 343.908176 
L 127.065625 23.837812 
" clip-path="url(#pcaf18f7f70)" style="fill: none; stroke: #e5e5e5; stroke-width: 0.6; stroke-linecap: square"/>
     </g>
     <g id="line2d_6">
      <g>
       <use xlink:href="#m860f84eec9" x="127.065625" y="343.908176" style="stroke: #000000; stroke-width: 0.8"/>
      </g>
     </g>
     <g id="text_3">
      <!-- 3857255 -->
      <g transform="translate(87.50963 395.146986) rotate(-45) scale(0.12 -0.12)">
       <use xlink:href="#DejaVuSans-33"/>
       <use xlink:href="#DejaVuSans-38" transform="translate(63.623047 0)"/>
       <use xlink:href="#DejaVuSans-35" transform="translate(127.246094 0)"/>
       <use xlink:href="#DejaVuSans-37" transform="translate(190.869141 0)"/>
       <use xlink:href="#DejaVuSans-32" transform="translate(254.492188 0)"/>
       <use xlink:href="#DejaVuSans-35" transform="translate(318.115234 0)"/>
       <use xlink:href="#DejaVuSans-35" transform="translate(381.738281 0)"/>
      </g>
     </g>
    </g>
    <g id="xtick_4">
     <g id="line2d_7">
      <path d="M 159.858375 343.908176 
L 159.858375 23.837812 
" clip-path="url(#pcaf18f7f70)" style="fill: none; stroke: #e5e5e5; stroke-width: 0.6; stroke-linecap: square"/>
     </g>
     <g id="line2d_8">
      <g>
       <use xlink:href="#m860f84eec9" x="159.858375" y="343.908176" style="stroke: #000000; stroke-width: 0.8"/>
      </g>
     </g>
     <g id="text_4">
      <!-- 3795108 -->
      <g transform="translate(120.30238 395.146986) rotate(-45) scale(0.12 -0.12)">
       <defs>
        <path id="DejaVuSans-31" d="M 794 531 
L 1825 531 
L 1825 4091 
L 703 3866 
L 703 4441 
L 1819 4666 
L 2450 4666 
L 2450 531 
L 3481 531 
L 3481 0 
L 794 0 
L 794 531 
z
" transform="scale(0.015625)"/>
       </defs>
       <use xlink:href="#DejaVuSans-33"/>
       <use xlink:href="#DejaVuSans-37" transform="translate(63.623047 0)"/>
       <use xlink:href="#DejaVuSans-39" transform="translate(127.246094 0)"/>
       <use xlink:href="#DejaVuSans-35" transform="translate(190.869141 0)"/>
       <use xlink:href="#DejaVuSans-31" transform="translate(254.492188 0)"/>
       <use xlink:href="#DejaVuSans-30" transform="translate(318.115234 0)"/>
       <use xlink:href="#DejaVuSans-38" transform="translate(381.738281 0)"/>
      </g>
     </g>
    </g>
    <g id="xtick_5">
     <g id="line2d_9">
      <path d="M 192.651125 343.908176 
L 192.651125 23.837812 
" clip-path="url(#pcaf18f7f70)" style="fill: none; stroke: #e5e5e5; stroke-width: 0.6; stroke-linecap: square"/>
     </g>
     <g id="line2d_10">
      <g>
       <use xlink:href="#m860f84eec9" x="192.651125" y="343.908176" style="stroke: #000000; stroke-width: 0.8"/>
      </g>
     </g>
     <g id="text_5">
      <!-- 3788762 -->
      <g transform="translate(153.09513 395.146986) rotate(-45) scale(0.12 -0.12)">
       <use xlink:href="#DejaVuSans-33"/>
       <use xlink:href="#DejaVuSans-37" transform="translate(63.623047 0)"/>
       <use xlink:href="#DejaVuSans-38" transform="translate(127.246094 0)"/>
       <use xlink:href="#DejaVuSans-38" transform="translate(190.869141 0)"/>
       <use xlink:href="#DejaVuSans-37" transform="translate(254.492188 0)"/>
       <use xlink:href="#DejaVuSans-36" transform="translate(318.115234 0)"/>
       <use xlink:href="#DejaVuSans-32" transform="translate(381.738281 0)"/>
      </g>
     </g>
    </g>
    <g id="xtick_6">
     <g id="line2d_11">
      <path d="M 225.443875 343.908176 
L 225.443875 23.837812 
" clip-path="url(#pcaf18f7f70)" style="fill: none; stroke: #e5e5e5; stroke-width: 0.6; stroke-linecap: square"/>
     </g>
     <g id="line2d_12">
      <g>
       <use xlink:href="#m860f84eec9" x="225.443875" y="343.908176" style="stroke: #000000; stroke-width: 0.8"/>
      </g>
     </g>
     <g id="text_6">
      <!-- 3773552 -->
      <g transform="translate(185.88788 395.146986) rotate(-45) scale(0.12 -0.12)">
       <use xlink:href="#DejaVuSans-33"/>
       <use xlink:href="#DejaVuSans-37" transform="translate(63.623047 0)"/>
       <use xlink:href="#DejaVuSans-37" transform="translate(127.246094 0)"/>
       <use xlink:href="#DejaVuSans-33" transform="translate(190.869141 0)"/>
       <use xlink:href="#DejaVuSans-35" transform="translate(254.492188 0)"/>
       <use xlink:href="#DejaVuSans-35" transform="translate(318.115234 0)"/>
       <use xlink:href="#DejaVuSans-32" transform="translate(381.738281 0)"/>
      </g>
     </g>
    </g>
    <g id="xtick_7">
     <g id="line2d_13">
      <path d="M 258.236625 343.908176 
L 258.236625 23.837812 
" clip-path="url(#pcaf18f7f70)" style="fill: none; stroke: #e5e5e5; stroke-width: 0.6; stroke-linecap: square"/>
     </g>
     <g id="line2d_14">
      <g>
       <use xlink:href="#m860f84eec9" x="258.236625" y="343.908176" style="stroke: #000000; stroke-width: 0.8"/>
      </g>
     </g>
     <g id="text_7">
      <!-- 3773665 -->
      <g transform="translate(218.68063 395.146986) rotate(-45) scale(0.12 -0.12)">
       <use xlink:href="#DejaVuSans-33"/>
       <use xlink:href="#DejaVuSans-37" transform="translate(63.623047 0)"/>
       <use xlink:href="#DejaVuSans-37" transform="translate(127.246094 0)"/>
       <use xlink:href="#DejaVuSans-33" transform="translate(190.869141 0)"/>
       <use xlink:href="#DejaVuSans-36" transform="translate(254.492188 0)"/>
       <use xlink:href="#DejaVuSans-36" transform="translate(318.115234 0)"/>
       <use xlink:href="#DejaVuSans-35" transform="translate(381.738281 0)"/>
      </g>
     </g>
    </g>
    <g id="xtick_8">
     <g id="line2d_15">
      <path d="M 291.029375 343.908176 
L 291.029375 23.837812 
" clip-path="url(#pcaf18f7f70)" style="fill: none; stroke: #e5e5e5; stroke-width: 0.6; stroke-linecap: square"/>
     </g>
     <g id="line2d_16">
      <g>
       <use xlink:href="#m860f84eec9" x="291.029375" y="343.908176" style="stroke: #000000; stroke-width: 0.8"/>
      </g>
     </g>
     <g id="text_8">
      <!-- 3773474 -->
      <g transform="translate(251.47338 395.146986) rotate(-45) scale(0.12 -0.12)">
       <defs>
        <path id="DejaVuSans-34" d="M 2419 4116 
L 825 1625 
L 2419 1625 
L 2419 4116 
z
M 2253 4666 
L 3047 4666 
L 3047 1625 
L 3713 1625 
L 3713 1100 
L 3047 1100 
L 3047 0 
L 2419 0 
L 2419 1100 
L 313 1100 
L 313 1709 
L 2253 4666 
z
" transform="scale(0.015625)"/>
       </defs>
       <use xlink:href="#DejaVuSans-33"/>
       <use xlink:href="#DejaVuSans-37" transform="translate(63.623047 0)"/>
       <use xlink:href="#DejaVuSans-37" transform="translate(127.246094 0)"/>
       <use xlink:href="#DejaVuSans-33" transform="translate(190.869141 0)"/>
       <use xlink:href="#DejaVuSans-34" transform="translate(254.492188 0)"/>
       <use xlink:href="#DejaVuSans-37" transform="translate(318.115234 0)"/>
       <use xlink:href="#DejaVuSans-34" transform="translate(381.738281 0)"/>
      </g>
     </g>
    </g>
    <g id="xtick_9">
     <g id="line2d_17">
      <path d="M 323.822125 343.908176 
L 323.822125 23.837812 
" clip-path="url(#pcaf18f7f70)" style="fill: none; stroke: #e5e5e5; stroke-width: 0.6; stroke-linecap: square"/>
     </g>
     <g id="line2d_18">
      <g>
       <use xlink:href="#m860f84eec9" x="323.822125" y="343.908176" style="stroke: #000000; stroke-width: 0.8"/>
      </g>
     </g>
     <g id="text_9">
      <!-- 3857291 -->
      <g transform="translate(284.26613 395.146986) rotate(-45) scale(0.12 -0.12)">
       <use xlink:href="#DejaVuSans-33"/>
       <use xlink:href="#DejaVuSans-38" transform="translate(63.623047 0)"/>
       <use xlink:href="#DejaVuSans-35" transform="translate(127.246094 0)"/>
       <use xlink:href="#DejaVuSans-37" transform="translate(190.869141 0)"/>
       <use xlink:href="#DejaVuSans-32" transform="translate(254.492188 0)"/>
       <use xlink:href="#DejaVuSans-39" transform="translate(318.115234 0)"/>
       <use xlink:href="#DejaVuSans-31" transform="translate(381.738281 0)"/>
      </g>
     </g>
    </g>
    <g id="xtick_10">
     <g id="line2d_19">
      <path d="M 356.614875 343.908176 
L 356.614875 23.837812 
" clip-path="url(#pcaf18f7f70)" style="fill: none; stroke: #e5e5e5; stroke-width: 0.6; stroke-linecap: square"/>
     </g>
     <g id="line2d_20">
      <g>
       <use xlink:href="#m860f84eec9" x="356.614875" y="343.908176" style="stroke: #000000; stroke-width: 0.8"/>
      </g>
     </g>
     <g id="text_10">
      <!-- 3788775 -->
      <g transform="translate(317.05888 395.146986) rotate(-45) scale(0.12 -0.12)">
       <use xlink:href="#DejaVuSans-33"/>
       <use xlink:href="#DejaVuSans-37" transform="translate(63.623047 0)"/>
       <use xlink:href="#DejaVuSans-38" transform="translate(127.246094 0)"/>
       <use xlink:href="#DejaVuSans-38" transform="translate(190.869141 0)"/>
       <use xlink:href="#DejaVuSans-37" transform="translate(254.492188 0)"/>
       <use xlink:href="#DejaVuSans-37" transform="translate(318.115234 0)"/>
       <use xlink:href="#DejaVuSans-35" transform="translate(381.738281 0)"/>
      </g>
     </g>
    </g>
    <g id="xtick_11">
     <g id="line2d_21">
      <path d="M 389.407625 343.908176 
L 389.407625 23.837812 
" clip-path="url(#pcaf18f7f70)" style="fill: none; stroke: #e5e5e5; stroke-width: 0.6; stroke-linecap: square"/>
     </g>
     <g id="line2d_22">
      <g>
       <use xlink:href="#m860f84eec9" x="389.407625" y="343.908176" style="stroke: #000000; stroke-width: 0.8"/>
      </g>
     </g>
     <g id="text_11">
      <!-- 3857263 -->
      <g transform="translate(349.85163 395.146986) rotate(-45) scale(0.12 -0.12)">
       <use xlink:href="#DejaVuSans-33"/>
       <use xlink:href="#DejaVuSans-38" transform="translate(63.623047 0)"/>
       <use xlink:href="#DejaVuSans-35" transform="translate(127.246094 0)"/>
       <use xlink:href="#DejaVuSans-37" transform="translate(190.869141 0)"/>
       <use xlink:href="#DejaVuSans-32" transform="translate(254.492188 0)"/>
       <use xlink:href="#DejaVuSans-36" transform="translate(318.115234 0)"/>
       <use xlink:href="#DejaVuSans-33" transform="translate(381.738281 0)"/>
      </g>
     </g>
    </g>
    <g id="xtick_12">
     <g id="line2d_23">
      <path d="M 422.200375 343.908176 
L 422.200375 23.837812 
" clip-path="url(#pcaf18f7f70)" style="fill: none; stroke: #e5e5e5; stroke-width: 0.6; stroke-linecap: square"/>
     </g>
     <g id="line2d_24">
      <g>
       <use xlink:href="#m860f84eec9" x="422.200375" y="343.908176" style="stroke: #000000; stroke-width: 0.8"/>
      </g>
     </g>
     <g id="text_12">
      <!-- 3794686 -->
      <g transform="translate(382.64438 395.146986) rotate(-45) scale(0.12 -0.12)">
       <use xlink:href="#DejaVuSans-33"/>
       <use xlink:href="#DejaVuSans-37" transform="translate(63.623047 0)"/>
       <use xlink:href="#DejaVuSans-39" transform="translate(127.246094 0)"/>
       <use xlink:href="#DejaVuSans-34" transform="translate(190.869141 0)"/>
       <use xlink:href="#DejaVuSans-36" transform="translate(254.492188 0)"/>
       <use xlink:href="#DejaVuSans-38" transform="translate(318.115234 0)"/>
       <use xlink:href="#DejaVuSans-36" transform="translate(381.738281 0)"/>
      </g>
     </g>
    </g>
    <g id="xtick_13">
     <g id="line2d_25">
      <path d="M 454.993125 343.908176 
L 454.993125 23.837812 
" clip-path="url(#pcaf18f7f70)" style="fill: none; stroke: #e5e5e5; stroke-width: 0.6; stroke-linecap: square"/>
     </g>
     <g id="line2d_26">
      <g>
       <use xlink:href="#m860f84eec9" x="454.993125" y="343.908176" style="stroke: #000000; stroke-width: 0.8"/>
      </g>
     </g>
     <g id="text_13">
      <!-- 3764440 -->
      <g transform="translate(415.43713 395.146986) rotate(-45) scale(0.12 -0.12)">
       <use xlink:href="#DejaVuSans-33"/>
       <use xlink:href="#DejaVuSans-37" transform="translate(63.623047 0)"/>
       <use xlink:href="#DejaVuSans-36" transform="translate(127.246094 0)"/>
       <use xlink:href="#DejaVuSans-34" transform="translate(190.869141 0)"/>
       <use xlink:href="#DejaVuSans-34" transform="translate(254.492188 0)"/>
       <use xlink:href="#DejaVuSans-34" transform="translate(318.115234 0)"/>
       <use xlink:href="#DejaVuSans-30" transform="translate(381.738281 0)"/>
      </g>
     </g>
    </g>
    <g id="xtick_14">
     <g id="line2d_27">
      <path d="M 487.785875 343.908176 
L 487.785875 23.837812 
" clip-path="url(#pcaf18f7f70)" style="fill: none; stroke: #e5e5e5; stroke-width: 0.6; stroke-linecap: square"/>
     </g>
     <g id="line2d_28">
      <g>
       <use xlink:href="#m860f84eec9" x="487.785875" y="343.908176" style="stroke: #000000; stroke-width: 0.8"/>
      </g>
     </g>
     <g id="text_14">
      <!-- 3773386 -->
      <g transform="translate(448.22988 395.146986) rotate(-45) scale(0.12 -0.12)">
       <use xlink:href="#DejaVuSans-33"/>
       <use xlink:href="#DejaVuSans-37" transform="translate(63.623047 0)"/>
       <use xlink:href="#DejaVuSans-37" transform="translate(127.246094 0)"/>
       <use xlink:href="#DejaVuSans-33" transform="translate(190.869141 0)"/>
       <use xlink:href="#DejaVuSans-33" transform="translate(254.492188 0)"/>
       <use xlink:href="#DejaVuSans-38" transform="translate(318.115234 0)"/>
       <use xlink:href="#DejaVuSans-36" transform="translate(381.738281 0)"/>
      </g>
     </g>
    </g>
    <g id="xtick_15">
     <g id="line2d_29">
      <path d="M 520.578625 343.908176 
L 520.578625 23.837812 
" clip-path="url(#pcaf18f7f70)" style="fill: none; stroke: #e5e5e5; stroke-width: 0.6; stroke-linecap: square"/>
     </g>
     <g id="line2d_30">
      <g>
       <use xlink:href="#m860f84eec9" x="520.578625" y="343.908176" style="stroke: #000000; stroke-width: 0.8"/>
      </g>
     </g>
     <g id="text_15">
      <!-- 3773377 -->
      <g transform="translate(481.02263 395.146986) rotate(-45) scale(0.12 -0.12)">
       <use xlink:href="#DejaVuSans-33"/>
       <use xlink:href="#DejaVuSans-37" transform="translate(63.623047 0)"/>
       <use xlink:href="#DejaVuSans-37" transform="translate(127.246094 0)"/>
       <use xlink:href="#DejaVuSans-33" transform="translate(190.869141 0)"/>
       <use xlink:href="#DejaVuSans-33" transform="translate(254.492188 0)"/>
       <use xlink:href="#DejaVuSans-37" transform="translate(318.115234 0)"/>
       <use xlink:href="#DejaVuSans-37" transform="translate(381.738281 0)"/>
      </g>
     </g>
    </g>
    <g id="xtick_16">
     <g id="line2d_31">
      <path d="M 553.371375 343.908176 
L 553.371375 23.837812 
" clip-path="url(#pcaf18f7f70)" style="fill: none; stroke: #e5e5e5; stroke-width: 0.6; stroke-linecap: square"/>
     </g>
     <g id="line2d_32">
      <g>
       <use xlink:href="#m860f84eec9" x="553.371375" y="343.908176" style="stroke: #000000; stroke-width: 0.8"/>
      </g>
     </g>
     <g id="text_16">
      <!-- 3773497 -->
      <g transform="translate(513.81538 395.146986) rotate(-45) scale(0.12 -0.12)">
       <use xlink:href="#DejaVuSans-33"/>
       <use xlink:href="#DejaVuSans-37" transform="translate(63.623047 0)"/>
       <use xlink:href="#DejaVuSans-37" transform="translate(127.246094 0)"/>
       <use xlink:href="#DejaVuSans-33" transform="translate(190.869141 0)"/>
       <use xlink:href="#DejaVuSans-34" transform="translate(254.492188 0)"/>
       <use xlink:href="#DejaVuSans-39" transform="translate(318.115234 0)"/>
       <use xlink:href="#DejaVuSans-37" transform="translate(381.738281 0)"/>
      </g>
     </g>
    </g>
    <g id="xtick_17">
     <g id="line2d_33">
      <path d="M 586.164125 343.908176 
L 586.164125 23.837812 
" clip-path="url(#pcaf18f7f70)" style="fill: none; stroke: #e5e5e5; stroke-width: 0.6; stroke-linecap: square"/>
     </g>
     <g id="line2d_34">
      <g>
       <use xlink:href="#m860f84eec9" x="586.164125" y="343.908176" style="stroke: #000000; stroke-width: 0.8"/>
      </g>
     </g>
     <g id="text_17">
      <!-- 3773477 -->
      <g transform="translate(546.60813 395.146986) rotate(-45) scale(0.12 -0.12)">
       <use xlink:href="#DejaVuSans-33"/>
       <use xlink:href="#DejaVuSans-37" transform="translate(63.623047 0)"/>
       <use xlink:href="#DejaVuSans-37" transform="translate(127.246094 0)"/>
       <use xlink:href="#DejaVuSans-33" transform="translate(190.869141 0)"/>
       <use xlink:href="#DejaVuSans-34" transform="translate(254.492188 0)"/>
       <use xlink:href="#DejaVuSans-37" transform="translate(318.115234 0)"/>
       <use xlink:href="#DejaVuSans-37" transform="translate(381.738281 0)"/>
      </g>
     </g>
    </g>
    <g id="xtick_18">
     <g id="line2d_35">
      <path d="M 618.956875 343.908176 
L 618.956875 23.837812 
" clip-path="url(#pcaf18f7f70)" style="fill: none; stroke: #e5e5e5; stroke-width: 0.6; stroke-linecap: square"/>
     </g>
     <g id="line2d_36">
      <g>
       <use xlink:href="#m860f84eec9" x="618.956875" y="343.908176" style="stroke: #000000; stroke-width: 0.8"/>
      </g>
     </g>
     <g id="text_18">
      <!-- 3795220 -->
      <g transform="translate(579.40088 395.146986) rotate(-45) scale(0.12 -0.12)">
       <use xlink:href="#DejaVuSans-33"/>
       <use xlink:href="#DejaVuSans-37" transform="translate(63.623047 0)"/>
       <use xlink:href="#DejaVuSans-39" transform="translate(127.246094 0)"/>
       <use xlink:href="#DejaVuSans-35" transform="translate(190.869141 0)"/>
       <use xlink:href="#DejaVuSans-32" transform="translate(254.492188 0)"/>
       <use xlink:href="#DejaVuSans-32" transform="translate(318.115234 0)"/>
       <use xlink:href="#DejaVuSans-30" transform="translate(381.738281 0)"/>
      </g>
     </g>
    </g>
    <g id="xtick_19">
     <g id="line2d_37">
      <path d="M 651.749625 343.908176 
L 651.749625 23.837812 
" clip-path="url(#pcaf18f7f70)" style="fill: none; stroke: #e5e5e5; stroke-width: 0.6; stroke-linecap: square"/>
     </g>
     <g id="line2d_38">
      <g>
       <use xlink:href="#m860f84eec9" x="651.749625" y="343.908176" style="stroke: #000000; stroke-width: 0.8"/>
      </g>
     </g>
     <g id="text_19">
      <!-- 3773571 -->
      <g transform="translate(612.19363 395.146986) rotate(-45) scale(0.12 -0.12)">
       <use xlink:href="#DejaVuSans-33"/>
       <use xlink:href="#DejaVuSans-37" transform="translate(63.623047 0)"/>
       <use xlink:href="#DejaVuSans-37" transform="translate(127.246094 0)"/>
       <use xlink:href="#DejaVuSans-33" transform="translate(190.869141 0)"/>
       <use xlink:href="#DejaVuSans-35" transform="translate(254.492188 0)"/>
       <use xlink:href="#DejaVuSans-37" transform="translate(318.115234 0)"/>
       <use xlink:href="#DejaVuSans-31" transform="translate(381.738281 0)"/>
      </g>
     </g>
    </g>
    <g id="xtick_20">
     <g id="line2d_39">
      <path d="M 684.542375 343.908176 
L 684.542375 23.837812 
" clip-path="url(#pcaf18f7f70)" style="fill: none; stroke: #e5e5e5; stroke-width: 0.6; stroke-linecap: square"/>
     </g>
     <g id="line2d_40">
      <g>
       <use xlink:href="#m860f84eec9" x="684.542375" y="343.908176" style="stroke: #000000; stroke-width: 0.8"/>
      </g>
     </g>
     <g id="text_20">
      <!-- 3773428 -->
      <g transform="translate(644.98638 395.146986) rotate(-45) scale(0.12 -0.12)">
       <use xlink:href="#DejaVuSans-33"/>
       <use xlink:href="#DejaVuSans-37" transform="translate(63.623047 0)"/>
       <use xlink:href="#DejaVuSans-37" transform="translate(127.246094 0)"/>
       <use xlink:href="#DejaVuSans-33" transform="translate(190.869141 0)"/>
       <use xlink:href="#DejaVuSans-34" transform="translate(254.492188 0)"/>
       <use xlink:href="#DejaVuSans-32" transform="translate(318.115234 0)"/>
       <use xlink:href="#DejaVuSans-38" transform="translate(381.738281 0)"/>
      </g>
     </g>
    </g>
    <g id="text_21">
     <!-- Match ID -->
     <g transform="translate(346.406875 410.029784) scale(0.12 -0.12)">
      <defs>
       <path id="DejaVuSans-4d" d="M 628 4666 
L 1569 4666 
L 2759 1491 
L 3956 4666 
L 4897 4666 
L 4897 0 
L 4281 0 
L 4281 4097 
L 3078 897 
L 2444 897 
L 1241 4097 
L 1241 0 
L 628 0 
L 628 4666 
z
" transform="scale(0.015625)"/>
       <path id="DejaVuSans-61" d="M 2194 1759 
Q 1497 1759 1228 1600 
Q 959 1441 959 1056 
Q 959 750 1161 570 
Q 1363 391 1709 391 
Q 2188 391 2477 730 
Q 2766 1069 2766 1631 
L 2766 1759 
L 2194 1759 
z
M 3341 1997 
L 3341 0 
L 2766 0 
L 2766 531 
Q 2569 213 2275 61 
Q 1981 -91 1556 -91 
Q 1019 -91 701 211 
Q 384 513 384 1019 
Q 384 1609 779 1909 
Q 1175 2209 1959 2209 
L 2766 2209 
L 2766 2266 
Q 2766 2663 2505 2880 
Q 2244 3097 1772 3097 
Q 1472 3097 1187 3025 
Q 903 2953 641 2809 
L 641 3341 
Q 956 3463 1253 3523 
Q 1550 3584 1831 3584 
Q 2591 3584 2966 3190 
Q 3341 2797 3341 1997 
z
" transform="scale(0.015625)"/>
       <path id="DejaVuSans-74" d="M 1172 4494 
L 1172 3500 
L 2356 3500 
L 2356 3053 
L 1172 3053 
L 1172 1153 
Q 1172 725 1289 603 
Q 1406 481 1766 481 
L 2356 481 
L 2356 0 
L 1766 0 
Q 1100 0 847 248 
Q 594 497 594 1153 
L 594 3053 
L 172 3053 
L 172 3500 
L 594 3500 
L 594 4494 
L 1172 4494 
z
" transform="scale(0.015625)"/>
       <path id="DejaVuSans-63" d="M 3122 3366 
L 3122 2828 
Q 2878 2963 2633 3030 
Q 2388 3097 2138 3097 
Q 1578 3097 1268 2742 
Q 959 2388 959 1747 
Q 959 1106 1268 751 
Q 1578 397 2138 397 
Q 2388 397 2633 464 
Q 2878 531 3122 666 
L 3122 134 
Q 2881 22 2623 -34 
Q 2366 -91 2075 -91 
Q 1284 -91 818 406 
Q 353 903 353 1747 
Q 353 2603 823 3093 
Q 1294 3584 2113 3584 
Q 2378 3584 2631 3529 
Q 2884 3475 3122 3366 
z
" transform="scale(0.015625)"/>
       <path id="DejaVuSans-68" d="M 3513 2113 
L 3513 0 
L 2938 0 
L 2938 2094 
Q 2938 2591 2744 2837 
Q 2550 3084 2163 3084 
Q 1697 3084 1428 2787 
Q 1159 2491 1159 1978 
L 1159 0 
L 581 0 
L 581 4863 
L 1159 4863 
L 1159 2956 
Q 1366 3272 1645 3428 
Q 1925 3584 2291 3584 
Q 2894 3584 3203 3211 
Q 3513 2838 3513 2113 
z
" transform="scale(0.015625)"/>
       <path id="DejaVuSans-20" transform="scale(0.015625)"/>
       <path id="DejaVuSans-49" d="M 628 4666 
L 1259 4666 
L 1259 0 
L 628 0 
L 628 4666 
z
" transform="scale(0.015625)"/>
       <path id="DejaVuSans-44" d="M 1259 4147 
L 1259 519 
L 2022 519 
Q 2988 519 3436 956 
Q 3884 1394 3884 2338 
Q 3884 3275 3436 3711 
Q 2988 4147 2022 4147 
L 1259 4147 
z
M 628 4666 
L 1925 4666 
Q 3281 4666 3915 4102 
Q 4550 3538 4550 2338 
Q 4550 1131 3912 565 
Q 3275 0 1925 0 
L 628 0 
L 628 4666 
z
" transform="scale(0.015625)"/>
      </defs>
      <use xlink:href="#DejaVuSans-4d"/>
      <use xlink:href="#DejaVuSans-61" transform="translate(86.279297 0)"/>
      <use xlink:href="#DejaVuSans-74" transform="translate(147.558594 0)"/>
      <use xlink:href="#DejaVuSans-63" transform="translate(186.767578 0)"/>
      <use xlink:href="#DejaVuSans-68" transform="translate(241.748047 0)"/>
      <use xlink:href="#DejaVuSans-20" transform="translate(305.126953 0)"/>
      <use xlink:href="#DejaVuSans-49" transform="translate(336.914062 0)"/>
      <use xlink:href="#DejaVuSans-44" transform="translate(366.40625 0)"/>
     </g>
    </g>
   </g>
   <g id="matplotlib.axis_2">
    <g id="ytick_1">
     <g id="line2d_41">
      <path d="M 45.08375 343.908176 
L 700.93875 343.908176 
" clip-path="url(#pcaf18f7f70)" style="fill: none; stroke-dasharray: 0.7,1.155; stroke-dashoffset: 0; stroke: #e5e5e5; stroke-width: 0.7"/>
     </g>
     <g id="line2d_42">
      <defs>
       <path id="mdfbf6d2cc9" d="M 0 0 
L -3.5 0 
" style="stroke: #000000; stroke-width: 0.8"/>
      </defs>
      <g>
       <use xlink:href="#mdfbf6d2cc9" x="45.08375" y="343.908176" style="stroke: #000000; stroke-width: 0.8"/>
      </g>
     </g>
     <g id="text_22">
      <!-- 0 -->
      <g transform="translate(30.44875 348.467239) scale(0.12 -0.12)">
       <use xlink:href="#DejaVuSans-30"/>
      </g>
     </g>
    </g>
    <g id="ytick_2">
     <g id="line2d_43">
      <path d="M 45.08375 299.080394 
L 700.93875 299.080394 
" clip-path="url(#pcaf18f7f70)" style="fill: none; stroke-dasharray: 0.7,1.155; stroke-dashoffset: 0; stroke: #e5e5e5; stroke-width: 0.7"/>
     </g>
     <g id="line2d_44">
      <g>
       <use xlink:href="#mdfbf6d2cc9" x="45.08375" y="299.080394" style="stroke: #000000; stroke-width: 0.8"/>
      </g>
     </g>
     <g id="text_23">
      <!-- 5 -->
      <g transform="translate(30.44875 303.639457) scale(0.12 -0.12)">
       <use xlink:href="#DejaVuSans-35"/>
      </g>
     </g>
    </g>
    <g id="ytick_3">
     <g id="line2d_45">
      <path d="M 45.08375 254.252612 
L 700.93875 254.252612 
" clip-path="url(#pcaf18f7f70)" style="fill: none; stroke-dasharray: 0.7,1.155; stroke-dashoffset: 0; stroke: #e5e5e5; stroke-width: 0.7"/>
     </g>
     <g id="line2d_46">
      <g>
       <use xlink:href="#mdfbf6d2cc9" x="45.08375" y="254.252612" style="stroke: #000000; stroke-width: 0.8"/>
      </g>
     </g>
     <g id="text_24">
      <!-- 10 -->
      <g transform="translate(22.81375 258.811675) scale(0.12 -0.12)">
       <use xlink:href="#DejaVuSans-31"/>
       <use xlink:href="#DejaVuSans-30" transform="translate(63.623047 0)"/>
      </g>
     </g>
    </g>
    <g id="ytick_4">
     <g id="line2d_47">
      <path d="M 45.08375 209.42483 
L 700.93875 209.42483 
" clip-path="url(#pcaf18f7f70)" style="fill: none; stroke-dasharray: 0.7,1.155; stroke-dashoffset: 0; stroke: #e5e5e5; stroke-width: 0.7"/>
     </g>
     <g id="line2d_48">
      <g>
       <use xlink:href="#mdfbf6d2cc9" x="45.08375" y="209.42483" style="stroke: #000000; stroke-width: 0.8"/>
      </g>
     </g>
     <g id="text_25">
      <!-- 15 -->
      <g transform="translate(22.81375 213.983893) scale(0.12 -0.12)">
       <use xlink:href="#DejaVuSans-31"/>
       <use xlink:href="#DejaVuSans-35" transform="translate(63.623047 0)"/>
      </g>
     </g>
    </g>
    <g id="ytick_5">
     <g id="line2d_49">
      <path d="M 45.08375 164.597048 
L 700.93875 164.597048 
" clip-path="url(#pcaf18f7f70)" style="fill: none; stroke-dasharray: 0.7,1.155; stroke-dashoffset: 0; stroke: #e5e5e5; stroke-width: 0.7"/>
     </g>
     <g id="line2d_50">
      <g>
       <use xlink:href="#mdfbf6d2cc9" x="45.08375" y="164.597048" style="stroke: #000000; stroke-width: 0.8"/>
      </g>
     </g>
     <g id="text_26">
      <!-- 20 -->
      <g transform="translate(22.81375 169.156111) scale(0.12 -0.12)">
       <use xlink:href="#DejaVuSans-32"/>
       <use xlink:href="#DejaVuSans-30" transform="translate(63.623047 0)"/>
      </g>
     </g>
    </g>
    <g id="ytick_6">
     <g id="line2d_51">
      <path d="M 45.08375 119.769266 
L 700.93875 119.769266 
" clip-path="url(#pcaf18f7f70)" style="fill: none; stroke-dasharray: 0.7,1.155; stroke-dashoffset: 0; stroke: #e5e5e5; stroke-width: 0.7"/>
     </g>
     <g id="line2d_52">
      <g>
       <use xlink:href="#mdfbf6d2cc9" x="45.08375" y="119.769266" style="stroke: #000000; stroke-width: 0.8"/>
      </g>
     </g>
     <g id="text_27">
      <!-- 25 -->
      <g transform="translate(22.81375 124.328329) scale(0.12 -0.12)">
       <use xlink:href="#DejaVuSans-32"/>
       <use xlink:href="#DejaVuSans-35" transform="translate(63.623047 0)"/>
      </g>
     </g>
    </g>
    <g id="ytick_7">
     <g id="line2d_53">
      <path d="M 45.08375 74.941484 
L 700.93875 74.941484 
" clip-path="url(#pcaf18f7f70)" style="fill: none; stroke-dasharray: 0.7,1.155; stroke-dashoffset: 0; stroke: #e5e5e5; stroke-width: 0.7"/>
     </g>
     <g id="line2d_54">
      <g>
       <use xlink:href="#mdfbf6d2cc9" x="45.08375" y="74.941484" style="stroke: #000000; stroke-width: 0.8"/>
      </g>
     </g>
     <g id="text_28">
      <!-- 30 -->
      <g transform="translate(22.81375 79.500547) scale(0.12 -0.12)">
       <use xlink:href="#DejaVuSans-33"/>
       <use xlink:href="#DejaVuSans-30" transform="translate(63.623047 0)"/>
      </g>
     </g>
    </g>
    <g id="ytick_8">
     <g id="line2d_55">
      <path d="M 45.08375 30.113702 
L 700.93875 30.113702 
" clip-path="url(#pcaf18f7f70)" style="fill: none; stroke-dasharray: 0.7,1.155; stroke-dashoffset: 0; stroke: #e5e5e5; stroke-width: 0.7"/>
     </g>
     <g id="line2d_56">
      <g>
       <use xlink:href="#mdfbf6d2cc9" x="45.08375" y="30.113702" style="stroke: #000000; stroke-width: 0.8"/>
      </g>
     </g>
     <g id="text_29">
      <!-- 35 -->
      <g transform="translate(22.81375 34.672764) scale(0.12 -0.12)">
       <use xlink:href="#DejaVuSans-33"/>
       <use xlink:href="#DejaVuSans-35" transform="translate(63.623047 0)"/>
      </g>
     </g>
    </g>
    <g id="text_30">
     <!-- Value -->
     <g transform="translate(16.318125 200.350494) rotate(-90) scale(0.12 -0.12)">
      <defs>
       <path id="DejaVuSans-56" d="M 1831 0 
L 50 4666 
L 709 4666 
L 2188 738 
L 3669 4666 
L 4325 4666 
L 2547 0 
L 1831 0 
z
" transform="scale(0.015625)"/>
       <path id="DejaVuSans-6c" d="M 603 4863 
L 1178 4863 
L 1178 0 
L 603 0 
L 603 4863 
z
" transform="scale(0.015625)"/>
       <path id="DejaVuSans-75" d="M 544 1381 
L 544 3500 
L 1119 3500 
L 1119 1403 
Q 1119 906 1312 657 
Q 1506 409 1894 409 
Q 2359 409 2629 706 
Q 2900 1003 2900 1516 
L 2900 3500 
L 3475 3500 
L 3475 0 
L 2900 0 
L 2900 538 
Q 2691 219 2414 64 
Q 2138 -91 1772 -91 
Q 1169 -91 856 284 
Q 544 659 544 1381 
z
M 1991 3584 
L 1991 3584 
z
" transform="scale(0.015625)"/>
       <path id="DejaVuSans-65" d="M 3597 1894 
L 3597 1613 
L 953 1613 
Q 991 1019 1311 708 
Q 1631 397 2203 397 
Q 2534 397 2845 478 
Q 3156 559 3463 722 
L 3463 178 
Q 3153 47 2828 -22 
Q 2503 -91 2169 -91 
Q 1331 -91 842 396 
Q 353 884 353 1716 
Q 353 2575 817 3079 
Q 1281 3584 2069 3584 
Q 2775 3584 3186 3129 
Q 3597 2675 3597 1894 
z
M 3022 2063 
Q 3016 2534 2758 2815 
Q 2500 3097 2075 3097 
Q 1594 3097 1305 2825 
Q 1016 2553 972 2059 
L 3022 2063 
z
" transform="scale(0.015625)"/>
      </defs>
      <use xlink:href="#DejaVuSans-56"/>
      <use xlink:href="#DejaVuSans-61" transform="translate(60.658203 0)"/>
      <use xlink:href="#DejaVuSans-6c" transform="translate(121.9375 0)"/>
      <use xlink:href="#DejaVuSans-75" transform="translate(149.720703 0)"/>
      <use xlink:href="#DejaVuSans-65" transform="translate(213.099609 0)"/>
     </g>
    </g>
   </g>
   <g id="patch_23">
    <path d="M 45.08375 343.908176 
L 45.08375 23.837812 
" style="fill: none; stroke: #000000; stroke-width: 0.8; stroke-linejoin: miter; stroke-linecap: square"/>
   </g>
   <g id="patch_24">
    <path d="M 45.08375 343.908176 
L 700.93875 343.908176 
" style="fill: none; stroke: #000000; stroke-width: 0.8; stroke-linejoin: miter; stroke-linecap: square"/>
   </g>
   <g id="text_31">
    <!-- 34 -->
    <g transform="translate(55.753875 33.20754) scale(0.09 -0.09)">
     <use xlink:href="#DejaVuSans-33"/>
     <use xlink:href="#DejaVuSans-34" transform="translate(63.623047 0)"/>
    </g>
   </g>
   <g id="text_32">
    <!-- 34 -->
    <g transform="translate(88.546625 33.20754) scale(0.09 -0.09)">
     <use xlink:href="#DejaVuSans-33"/>
     <use xlink:href="#DejaVuSans-34" transform="translate(63.623047 0)"/>
    </g>
   </g>
   <g id="text_33">
    <!-- 19 -->
    <g transform="translate(121.339375 167.690886) scale(0.09 -0.09)">
     <use xlink:href="#DejaVuSans-31"/>
     <use xlink:href="#DejaVuSans-39" transform="translate(63.623047 0)"/>
    </g>
   </g>
   <g id="text_34">
    <!-- 18 -->
    <g transform="translate(154.132125 176.656442) scale(0.09 -0.09)">
     <use xlink:href="#DejaVuSans-31"/>
     <use xlink:href="#DejaVuSans-38" transform="translate(63.623047 0)"/>
    </g>
   </g>
   <g id="text_35">
    <!-- 17 -->
    <g transform="translate(186.924875 185.621999) scale(0.09 -0.09)">
     <use xlink:href="#DejaVuSans-31"/>
     <use xlink:href="#DejaVuSans-37" transform="translate(63.623047 0)"/>
    </g>
   </g>
   <g id="text_36">
    <!-- 15 -->
    <g transform="translate(219.717625 203.553111) scale(0.09 -0.09)">
     <use xlink:href="#DejaVuSans-31"/>
     <use xlink:href="#DejaVuSans-35" transform="translate(63.623047 0)"/>
    </g>
   </g>
   <g id="text_37">
    <!-- 15 -->
    <g transform="translate(252.510375 203.553111) scale(0.09 -0.09)">
     <use xlink:href="#DejaVuSans-31"/>
     <use xlink:href="#DejaVuSans-35" transform="translate(63.623047 0)"/>
    </g>
   </g>
   <g id="text_38">
    <!-- 12 -->
    <g transform="translate(285.303125 230.449781) scale(0.09 -0.09)">
     <use xlink:href="#DejaVuSans-31"/>
     <use xlink:href="#DejaVuSans-32" transform="translate(63.623047 0)"/>
    </g>
   </g>
   <g id="text_39">
    <!-- 11 -->
    <g transform="translate(318.095875 239.415337) scale(0.09 -0.09)">
     <use xlink:href="#DejaVuSans-31"/>
     <use xlink:href="#DejaVuSans-31" transform="translate(63.623047 0)"/>
    </g>
   </g>
   <g id="text_40">
    <!-- 11 -->
    <g transform="translate(350.888625 239.415337) scale(0.09 -0.09)">
     <use xlink:href="#DejaVuSans-31"/>
     <use xlink:href="#DejaVuSans-31" transform="translate(63.623047 0)"/>
    </g>
   </g>
   <g id="text_41">
    <!-- 10 -->
    <g transform="translate(383.681375 248.380893) scale(0.09 -0.09)">
     <use xlink:href="#DejaVuSans-31"/>
     <use xlink:href="#DejaVuSans-30" transform="translate(63.623047 0)"/>
    </g>
   </g>
   <g id="text_42">
    <!-- 9 -->
    <g transform="translate(419.33725 257.34645) scale(0.09 -0.09)">
     <use xlink:href="#DejaVuSans-39"/>
    </g>
   </g>
   <g id="text_43">
    <!-- 8 -->
    <g transform="translate(452.13 266.312006) scale(0.09 -0.09)">
     <use xlink:href="#DejaVuSans-38"/>
    </g>
   </g>
   <g id="text_44">
    <!-- 8 -->
    <g transform="translate(484.92275 266.312006) scale(0.09 -0.09)">
     <use xlink:href="#DejaVuSans-38"/>
    </g>
   </g>
   <g id="text_45">
    <!-- 8 -->
    <g transform="translate(517.7155 266.312006) scale(0.09 -0.09)">
     <use xlink:href="#DejaVuSans-38"/>
    </g>
   </g>
   <g id="text_46">
    <!-- 7 -->
    <g transform="translate(550.50825 275.277563) scale(0.09 -0.09)">
     <use xlink:href="#DejaVuSans-37"/>
    </g>
   </g>
   <g id="text_47">
    <!-- 7 -->
    <g transform="translate(583.301 275.277563) scale(0.09 -0.09)">
     <use xlink:href="#DejaVuSans-37"/>
    </g>
   </g>
   <g id="text_48">
    <!-- 7 -->
    <g transform="translate(616.09375 275.277563) scale(0.09 -0.09)">
     <use xlink:href="#DejaVuSans-37"/>
    </g>
   </g>
   <g id="text_49">
    <!-- 7 -->
    <g transform="translate(648.8865 275.277563) scale(0.09 -0.09)">
     <use xlink:href="#DejaVuSans-37"/>
    </g>
   </g>
   <g id="text_50">
    <!-- 6 -->
    <g transform="translate(681.67925 284.243119) scale(0.09 -0.09)">
     <use xlink:href="#DejaVuSans-36"/>
    </g>
   </g>
   <g id="text_51">
    <!-- Progressive passes per match (Top 20) -->
    <g transform="translate(237.697969 17.837812) scale(0.14 -0.14)">
     <defs>
      <path id="DejaVuSans-50" d="M 1259 4147 
L 1259 2394 
L 2053 2394 
Q 2494 2394 2734 2622 
Q 2975 2850 2975 3272 
Q 2975 3691 2734 3919 
Q 2494 4147 2053 4147 
L 1259 4147 
z
M 628 4666 
L 2053 4666 
Q 2838 4666 3239 4311 
Q 3641 3956 3641 3272 
Q 3641 2581 3239 2228 
Q 2838 1875 2053 1875 
L 1259 1875 
L 1259 0 
L 628 0 
L 628 4666 
z
" transform="scale(0.015625)"/>
      <path id="DejaVuSans-72" d="M 2631 2963 
Q 2534 3019 2420 3045 
Q 2306 3072 2169 3072 
Q 1681 3072 1420 2755 
Q 1159 2438 1159 1844 
L 1159 0 
L 581 0 
L 581 3500 
L 1159 3500 
L 1159 2956 
Q 1341 3275 1631 3429 
Q 1922 3584 2338 3584 
Q 2397 3584 2469 3576 
Q 2541 3569 2628 3553 
L 2631 2963 
z
" transform="scale(0.015625)"/>
      <path id="DejaVuSans-6f" d="M 1959 3097 
Q 1497 3097 1228 2736 
Q 959 2375 959 1747 
Q 959 1119 1226 758 
Q 1494 397 1959 397 
Q 2419 397 2687 759 
Q 2956 1122 2956 1747 
Q 2956 2369 2687 2733 
Q 2419 3097 1959 3097 
z
M 1959 3584 
Q 2709 3584 3137 3096 
Q 3566 2609 3566 1747 
Q 3566 888 3137 398 
Q 2709 -91 1959 -91 
Q 1206 -91 779 398 
Q 353 888 353 1747 
Q 353 2609 779 3096 
Q 1206 3584 1959 3584 
z
" transform="scale(0.015625)"/>
      <path id="DejaVuSans-67" d="M 2906 1791 
Q 2906 2416 2648 2759 
Q 2391 3103 1925 3103 
Q 1463 3103 1205 2759 
Q 947 2416 947 1791 
Q 947 1169 1205 825 
Q 1463 481 1925 481 
Q 2391 481 2648 825 
Q 2906 1169 2906 1791 
z
M 3481 434 
Q 3481 -459 3084 -895 
Q 2688 -1331 1869 -1331 
Q 1566 -1331 1297 -1286 
Q 1028 -1241 775 -1147 
L 775 -588 
Q 1028 -725 1275 -790 
Q 1522 -856 1778 -856 
Q 2344 -856 2625 -561 
Q 2906 -266 2906 331 
L 2906 616 
Q 2728 306 2450 153 
Q 2172 0 1784 0 
Q 1141 0 747 490 
Q 353 981 353 1791 
Q 353 2603 747 3093 
Q 1141 3584 1784 3584 
Q 2172 3584 2450 3431 
Q 2728 3278 2906 2969 
L 2906 3500 
L 3481 3500 
L 3481 434 
z
" transform="scale(0.015625)"/>
      <path id="DejaVuSans-73" d="M 2834 3397 
L 2834 2853 
Q 2591 2978 2328 3040 
Q 2066 3103 1784 3103 
Q 1356 3103 1142 2972 
Q 928 2841 928 2578 
Q 928 2378 1081 2264 
Q 1234 2150 1697 2047 
L 1894 2003 
Q 2506 1872 2764 1633 
Q 3022 1394 3022 966 
Q 3022 478 2636 193 
Q 2250 -91 1575 -91 
Q 1294 -91 989 -36 
Q 684 19 347 128 
L 347 722 
Q 666 556 975 473 
Q 1284 391 1588 391 
Q 1994 391 2212 530 
Q 2431 669 2431 922 
Q 2431 1156 2273 1281 
Q 2116 1406 1581 1522 
L 1381 1569 
Q 847 1681 609 1914 
Q 372 2147 372 2553 
Q 372 3047 722 3315 
Q 1072 3584 1716 3584 
Q 2034 3584 2315 3537 
Q 2597 3491 2834 3397 
z
" transform="scale(0.015625)"/>
      <path id="DejaVuSans-69" d="M 603 3500 
L 1178 3500 
L 1178 0 
L 603 0 
L 603 3500 
z
M 603 4863 
L 1178 4863 
L 1178 4134 
L 603 4134 
L 603 4863 
z
" transform="scale(0.015625)"/>
      <path id="DejaVuSans-76" d="M 191 3500 
L 800 3500 
L 1894 563 
L 2988 3500 
L 3597 3500 
L 2284 0 
L 1503 0 
L 191 3500 
z
" transform="scale(0.015625)"/>
      <path id="DejaVuSans-70" d="M 1159 525 
L 1159 -1331 
L 581 -1331 
L 581 3500 
L 1159 3500 
L 1159 2969 
Q 1341 3281 1617 3432 
Q 1894 3584 2278 3584 
Q 2916 3584 3314 3078 
Q 3713 2572 3713 1747 
Q 3713 922 3314 415 
Q 2916 -91 2278 -91 
Q 1894 -91 1617 61 
Q 1341 213 1159 525 
z
M 3116 1747 
Q 3116 2381 2855 2742 
Q 2594 3103 2138 3103 
Q 1681 3103 1420 2742 
Q 1159 2381 1159 1747 
Q 1159 1113 1420 752 
Q 1681 391 2138 391 
Q 2594 391 2855 752 
Q 3116 1113 3116 1747 
z
" transform="scale(0.015625)"/>
      <path id="DejaVuSans-6d" d="M 3328 2828 
Q 3544 3216 3844 3400 
Q 4144 3584 4550 3584 
Q 5097 3584 5394 3201 
Q 5691 2819 5691 2113 
L 5691 0 
L 5113 0 
L 5113 2094 
Q 5113 2597 4934 2840 
Q 4756 3084 4391 3084 
Q 3944 3084 3684 2787 
Q 3425 2491 3425 1978 
L 3425 0 
L 2847 0 
L 2847 2094 
Q 2847 2600 2669 2842 
Q 2491 3084 2119 3084 
Q 1678 3084 1418 2786 
Q 1159 2488 1159 1978 
L 1159 0 
L 581 0 
L 581 3500 
L 1159 3500 
L 1159 2956 
Q 1356 3278 1631 3431 
Q 1906 3584 2284 3584 
Q 2666 3584 2933 3390 
Q 3200 3197 3328 2828 
z
" transform="scale(0.015625)"/>
      <path id="DejaVuSans-28" d="M 1984 4856 
Q 1566 4138 1362 3434 
Q 1159 2731 1159 2009 
Q 1159 1288 1364 580 
Q 1569 -128 1984 -844 
L 1484 -844 
Q 1016 -109 783 600 
Q 550 1309 550 2009 
Q 550 2706 781 3412 
Q 1013 4119 1484 4856 
L 1984 4856 
z
" transform="scale(0.015625)"/>
      <path id="DejaVuSans-54" d="M -19 4666 
L 3928 4666 
L 3928 4134 
L 2272 4134 
L 2272 0 
L 1638 0 
L 1638 4134 
L -19 4134 
L -19 4666 
z
" transform="scale(0.015625)"/>
      <path id="DejaVuSans-29" d="M 513 4856 
L 1013 4856 
Q 1481 4119 1714 3412 
Q 1947 2706 1947 2009 
Q 1947 1309 1714 600 
Q 1481 -109 1013 -844 
L 513 -844 
Q 928 -128 1133 580 
Q 1338 1288 1338 2009 
Q 1338 2731 1133 3434 
Q 928 4138 513 4856 
z
" transform="scale(0.015625)"/>
     </defs>
     <use xlink:href="#DejaVuSans-50"/>
     <use xlink:href="#DejaVuSans-72" transform="translate(58.552734 0)"/>
     <use xlink:href="#DejaVuSans-6f" transform="translate(97.416016 0)"/>
     <use xlink:href="#DejaVuSans-67" transform="translate(158.597656 0)"/>
     <use xlink:href="#DejaVuSans-72" transform="translate(222.074219 0)"/>
     <use xlink:href="#DejaVuSans-65" transform="translate(260.9375 0)"/>
     <use xlink:href="#DejaVuSans-73" transform="translate(322.460938 0)"/>
     <use xlink:href="#DejaVuSans-73" transform="translate(374.560547 0)"/>
     <use xlink:href="#DejaVuSans-69" transform="translate(426.660156 0)"/>
     <use xlink:href="#DejaVuSans-76" transform="translate(454.443359 0)"/>
     <use xlink:href="#DejaVuSans-65" transform="translate(513.623047 0)"/>
     <use xlink:href="#DejaVuSans-20" transform="translate(575.146484 0)"/>
     <use xlink:href="#DejaVuSans-70" transform="translate(606.933594 0)"/>
     <use xlink:href="#DejaVuSans-61" transform="translate(670.410156 0)"/>
     <use xlink:href="#DejaVuSans-73" transform="translate(731.689453 0)"/>
     <use xlink:href="#DejaVuSans-73" transform="translate(783.789062 0)"/>
     <use xlink:href="#DejaVuSans-65" transform="translate(835.888672 0)"/>
     <use xlink:href="#DejaVuSans-73" transform="translate(897.412109 0)"/>
     <use xlink:href="#DejaVuSans-20" transform="translate(949.511719 0)"/>
     <use xlink:href="#DejaVuSans-70" transform="translate(981.298828 0)"/>
     <use xlink:href="#DejaVuSans-65" transform="translate(1044.775391 0)"/>
     <use xlink:href="#DejaVuSans-72" transform="translate(1106.298828 0)"/>
     <use xlink:href="#DejaVuSans-20" transform="translate(1147.412109 0)"/>
     <use xlink:href="#DejaVuSans-6d" transform="translate(1179.199219 0)"/>
     <use xlink:href="#DejaVuSans-61" transform="translate(1276.611328 0)"/>
     <use xlink:href="#DejaVuSans-74" transform="translate(1337.890625 0)"/>
     <use xlink:href="#DejaVuSans-63" transform="translate(1377.099609 0)"/>
     <use xlink:href="#DejaVuSans-68" transform="translate(1432.080078 0)"/>
     <use xlink:href="#DejaVuSans-20" transform="translate(1495.458984 0)"/>
     <use xlink:href="#DejaVuSans-28" transform="translate(1527.246094 0)"/>
     <use xlink:href="#DejaVuSans-54" transform="translate(1566.259766 0)"/>
     <use xlink:href="#DejaVuSans-6f" transform="translate(1610.34375 0)"/>
     <use xlink:href="#DejaVuSans-70" transform="translate(1671.525391 0)"/>
     <use xlink:href="#DejaVuSans-20" transform="translate(1735.001953 0)"/>
     <use xlink:href="#DejaVuSans-32" transform="translate(1766.789062 0)"/>
     <use xlink:href="#DejaVuSans-30" transform="translate(1830.412109 0)"/>
     <use xlink:href="#DejaVuSans-29" transform="translate(1894.035156 0)"/>
    </g>
   </g>
  </g>
 </g>
 <defs>
  <clipPath id="pcaf18f7f70">
   <rect x="45.08375" y="23.837812" width="655.855" height="320.070364"/>
  </clipPath>
 </defs>
</svg>
